<svg width="224" height="346" viewBox="0 0 224 346" fill="none" xmlns="http://www.w3.org/2000/svg">
<g clip-path="url(#clip0_16_1247)">
<mask id="mask0_16_1247" style="mask-type:luminance" maskUnits="userSpaceOnUse" x="0" y="0" width="224" height="346">
<path d="M223.751 0H0.221222V345.008H223.751V0Z" fill="white"/>
</mask>
<g mask="url(#mask0_16_1247)">
<path d="M97.0266 36.1056L85.4141 32.957L83.4794 40.0924L95.0919 43.2409L97.0266 36.1056Z" fill="#F2563D"/>
<path d="M98.2623 34.0204L86.4238 25.9509L89.6613 19.2344L100.533 26.6274L98.2623 34.0204Z" fill="#F2563D"/>
<path d="M111.395 23.5264L107.199 12.25L100.27 14.8282L104.466 26.1046L111.395 23.5264Z" fill="#F2563D"/>
<path d="M124.359 18.7882L120.164 7.51172L113.235 10.0899L117.431 21.3664L124.359 18.7882Z" fill="#F2563D"/>
<path d="M93.2873 49.9571L81.6748 46.8086L79.7402 53.944L91.3527 57.0925L93.2873 49.9571Z" fill="#F2563D"/>
<path d="M91.0155 65.7088H90.5323C90.0629 65.5733 89.6644 65.2607 89.421 64.837C89.1776 64.4133 89.1083 63.9116 89.2277 63.4378L99.375 25.9895C99.4622 25.7067 99.6116 25.4471 99.8123 25.2297C100.013 25.0123 100.26 24.8426 100.535 24.7331L133.779 12.8463L130.397 4.19695L91.1122 19.3212L79.8052 60.9734C79.7498 61.2129 79.6456 61.4383 79.4991 61.6357C79.3527 61.8331 79.1671 61.9982 78.954 62.1206C78.7408 62.243 78.5048 62.3202 78.2605 62.3473C78.0162 62.3744 77.7689 62.3508 77.5342 62.2781C77.0647 62.1425 76.6662 61.8299 76.4228 61.4062C76.1794 60.9825 76.1101 60.4808 76.2295 60.007L87.7781 17.4367C87.8586 17.1507 88.0057 16.8878 88.2072 16.6695C88.4088 16.4511 88.6591 16.2836 88.9378 16.1804L130.687 -0.00691982C131.142 -0.166878 131.642 -0.14577 132.083 0.0520472C132.523 0.249863 132.871 0.609288 133.054 1.05613L137.886 13.0879C137.994 13.3144 138.049 13.562 138.049 13.8127C138.049 14.0634 137.994 14.311 137.886 14.5375C137.788 14.765 137.643 14.9689 137.459 15.1356C137.276 15.3023 137.059 15.4278 136.823 15.5039L102.709 27.7773L92.8034 64.3075C92.6983 64.7038 92.467 65.0549 92.1443 65.3078C91.8217 65.5607 91.4254 65.7015 91.0155 65.7088Z" fill="#3E3126"/>
<path d="M135.518 323.74H43.7091C40.7746 323.743 37.9518 322.615 35.8278 320.59C33.7039 318.565 32.4423 315.799 32.3055 312.868L17.6161 87.4052C17.5508 85.9246 17.7863 84.4462 18.3082 83.0591C18.8301 81.6721 19.6277 80.4051 20.6528 79.3349C21.6779 78.2646 22.9093 77.4131 24.2726 76.8319C25.6359 76.2507 27.1028 75.9518 28.5848 75.9533H150.69C152.177 75.9453 153.649 76.2394 155.018 76.8176C156.387 77.3959 157.624 78.2464 158.654 79.3173C159.684 80.3883 160.486 81.6575 161.011 83.0478C161.536 84.4381 161.773 85.9206 161.707 87.4052L146.97 312.868C146.833 315.808 145.564 318.581 143.43 320.607C141.296 322.633 138.461 323.756 135.518 323.74Z" fill="#FF7769"/>
<path d="M162.095 87.4038L147.358 312.818C147.233 315.75 145.984 318.521 143.869 320.555C141.754 322.589 138.936 323.729 136.002 323.739H44.1936C41.2141 323.747 38.3507 322.585 36.2207 320.501C125.855 268.847 148.711 131.375 154.267 76.3867C156.602 77.1074 158.633 78.5772 160.048 80.5686C161.463 82.5601 162.183 84.9623 162.095 87.4038Z" fill="#E52B17"/>
<path d="M28.6825 258.547C28.109 258.561 27.5524 258.352 27.1291 257.965C26.7058 257.578 26.4487 257.042 26.4114 256.47L21.5794 181.138C21.5166 180.821 21.5222 180.494 21.5959 180.179C21.6696 179.864 21.8097 179.569 22.0067 179.313C22.2038 179.056 22.4533 178.845 22.7386 178.693C23.0239 178.541 23.3383 178.451 23.661 178.43C23.9836 178.41 24.307 178.458 24.6095 178.572C24.9119 178.686 25.1865 178.864 25.4149 179.093C25.6432 179.322 25.8201 179.597 25.9336 179.899C26.0472 180.202 26.0947 180.526 26.0732 180.848L30.9052 256.083C30.9316 256.379 30.8984 256.677 30.8076 256.96C30.7168 257.243 30.5702 257.505 30.3765 257.73C30.1828 257.955 29.946 258.139 29.6799 258.271C29.4138 258.403 29.124 258.481 28.8275 258.499L28.6825 258.547Z" fill="#3E3126"/>
<path d="M135.518 326.006H43.7098C40.1976 325.997 36.8235 324.637 34.2866 322.208C31.7498 319.78 30.2447 316.468 30.0834 312.959L28.1989 283.629C28.1725 283.333 28.2057 283.035 28.2965 282.752C28.3873 282.469 28.5339 282.207 28.7276 281.982C28.9213 281.757 29.1582 281.573 29.4243 281.44C29.6903 281.308 29.9802 281.231 30.2767 281.213C30.5751 281.193 30.8744 281.232 31.1575 281.329C31.4406 281.425 31.7018 281.576 31.9263 281.774C32.1508 281.971 32.334 282.211 32.4656 282.48C32.5971 282.748 32.6743 283.04 32.6927 283.339L34.6255 312.718C34.7131 315.068 35.7087 317.292 37.4029 318.924C39.0972 320.555 41.358 321.465 43.7098 321.464H135.518C137.871 321.478 140.137 320.58 141.84 318.958C143.543 317.336 144.551 315.116 144.651 312.766L159.679 87.2547C159.731 86.0785 159.543 84.904 159.126 83.8031C158.709 82.7021 158.072 81.6979 157.253 80.852C156.434 80.006 155.451 79.3361 154.364 78.8834C153.278 78.4306 152.11 78.2044 150.933 78.2188H28.5855C27.4126 78.21 26.2502 78.4413 25.17 78.8983C24.0897 79.3553 23.1143 80.0285 22.3038 80.8764C21.4741 81.7191 20.8304 82.7265 20.4142 83.8335C19.9981 84.9404 19.8187 86.1224 19.8878 87.303L24.3816 154.613C24.4201 155.216 24.2177 155.809 23.8189 156.262C23.4202 156.715 22.8578 156.991 22.2555 157.029C21.6532 157.068 21.0603 156.865 20.6072 156.467C20.1541 156.068 19.8779 155.506 19.8395 154.903L15.4423 87.2547C15.3642 85.4655 15.6485 83.6791 16.2782 82.0026C16.9078 80.3261 17.8699 78.7942 19.1065 77.4989C20.3432 76.2036 21.8289 75.1716 23.4744 74.4649C25.1199 73.7583 26.8913 73.3915 28.6821 73.3867H150.691C152.482 73.3853 154.254 73.7458 155.902 74.4466C157.55 75.1474 159.039 76.174 160.28 77.4647C161.521 78.7555 162.489 80.2838 163.124 81.9578C163.76 83.6319 164.051 85.4171 163.979 87.2064L149.193 313.008C149.043 316.524 147.533 319.845 144.982 322.27C142.431 324.694 139.038 326.034 135.518 326.006Z" fill="#3E3126"/>
<path d="M36.2211 219.758C35.7677 219.772 35.3271 219.607 34.9931 219.301C34.6592 218.994 34.4583 218.568 34.4333 218.116L32.4038 187.094C32.3771 186.627 32.534 186.169 32.8411 185.817C33.1482 185.464 33.5809 185.246 34.0467 185.209C34.2791 185.19 34.5131 185.217 34.7348 185.289C34.9565 185.362 35.1613 185.478 35.3371 185.631C35.5129 185.785 35.6561 185.972 35.7582 186.181C35.8602 186.391 35.9191 186.619 35.9312 186.852L37.9607 217.874C37.9874 218.34 37.8304 218.799 37.5234 219.151C37.2163 219.503 36.7836 219.721 36.3178 219.758H36.2211Z" fill="white"/>
<path d="M37.2471 234.597C38.8982 234.49 40.1184 232.589 39.9726 230.352C39.8267 228.115 38.3701 226.389 36.719 226.497C35.0679 226.604 33.8477 228.505 33.9935 230.742C34.1394 232.979 35.5961 234.705 37.2471 234.597Z" fill="white"/>
<path d="M38.8786 128.71C38.6878 128.754 38.4896 128.754 38.2988 128.71C37.948 128.561 37.6702 128.28 37.5255 127.927C37.3808 127.574 37.3808 127.179 37.5257 126.826L45.5469 107.836C45.715 107.49 46.0062 107.218 46.3637 107.075C46.7211 106.932 47.1191 106.928 47.4797 107.063C47.834 107.222 48.1126 107.512 48.2568 107.873C48.4011 108.234 48.3996 108.636 48.2528 108.996L40.2316 127.744C40.1325 128.024 39.9495 128.268 39.7075 128.44C39.4654 128.613 39.1761 128.708 38.8786 128.71Z" fill="#3E3126"/>
<path d="M49.5572 119.53H48.9773C48.6222 119.371 48.3404 119.083 48.1881 118.725C48.0359 118.366 48.0243 117.964 48.1559 117.597L52.4564 107.45C52.5301 107.271 52.6391 107.108 52.777 106.971C52.9149 106.834 53.0789 106.727 53.2591 106.654C53.4394 106.582 53.6324 106.547 53.8265 106.551C54.0206 106.555 54.212 106.598 54.3892 106.677C54.7435 106.836 55.0222 107.127 55.1664 107.487C55.3106 107.848 55.3092 108.25 55.1623 108.61L50.8618 118.757C50.7291 118.987 50.5393 119.179 50.3108 119.315C50.0823 119.45 49.8227 119.524 49.5572 119.53Z" fill="#3E3126"/>
<path d="M75.6016 299.037C81.6061 299.037 86.4737 294.17 86.4737 288.165C86.4737 282.161 81.6061 277.293 75.6016 277.293C69.5971 277.293 64.7295 282.161 64.7295 288.165C64.7295 294.17 69.5971 299.037 75.6016 299.037Z" fill="#E52B17"/>
<path d="M57.434 293.973C58.8751 293.973 60.0433 292.804 60.0433 291.363C60.0433 289.922 58.8751 288.754 57.434 288.754C55.9929 288.754 54.8247 289.922 54.8247 291.363C54.8247 292.804 55.9929 293.973 57.434 293.973Z" fill="#E52B17"/>
<path opacity="0.45" d="M61.7345 276.866C63.6025 276.866 65.1169 275.352 65.1169 273.484C65.1169 271.616 63.6025 270.102 61.7345 270.102C59.8664 270.102 58.3521 271.616 58.3521 273.484C58.3521 275.352 59.8664 276.866 61.7345 276.866Z" fill="#E52B17"/>
<path opacity="0.45" d="M62.8933 260.789C64.5479 260.789 65.8892 259.447 65.8892 257.793C65.8892 256.138 64.5479 254.797 62.8933 254.797C61.2388 254.797 59.8975 256.138 59.8975 257.793C59.8975 259.447 61.2388 260.789 62.8933 260.789Z" fill="#E52B17"/>
<path opacity="0.1" d="M70.3355 244.635C71.6165 244.635 72.6549 243.596 72.6549 242.315C72.6549 241.035 71.6165 239.996 70.3355 239.996C69.0545 239.996 68.0161 241.035 68.0161 242.315C68.0161 243.596 69.0545 244.635 70.3355 244.635Z" fill="#E52B17"/>
<path d="M34.8193 89.3359H155.62V102.527H48.0108C44.5122 102.527 41.1569 101.138 38.683 98.6637C36.2091 96.1898 34.8193 92.8345 34.8193 89.3359Z" fill="#E52B17"/>
<path d="M177.218 91.6499L170.791 72.2734H95.4599H83.8631H8.5316L2.05667 91.6499" fill="#FFEEEB"/>
<path d="M2.05761 93.5488H1.47777C1.2278 93.4782 0.995135 93.3567 0.794364 93.1919C0.593593 93.0271 0.429058 92.8226 0.311086 92.5912C0.193114 92.3598 0.124253 92.1065 0.108826 91.8472C0.093399 91.5879 0.131738 91.3282 0.221438 91.0845L6.69637 71.7563C6.8241 71.3948 7.05905 71.0809 7.36987 70.8564C7.68068 70.6319 8.05258 70.5076 8.4359 70.5H129.237C129.679 70.5715 130.081 70.7979 130.371 71.1388C130.661 71.4796 130.821 71.9127 130.821 72.3603C130.821 72.808 130.661 73.241 130.371 73.5819C130.081 73.9228 129.679 74.1492 129.237 74.2207H9.88552L3.84547 92.2442C3.72315 92.6224 3.48436 92.9523 3.16325 93.1866C2.84213 93.4209 2.45514 93.5477 2.05761 93.5488Z" fill="#3E3126"/>
<path d="M44.5322 82.4805H13.4139C12.9962 82.4111 12.6167 82.1958 12.343 81.8728C12.0692 81.5499 11.9189 81.1402 11.9189 80.7168C11.9189 80.2934 12.0692 79.8838 12.343 79.5608C12.6167 79.2378 12.9962 79.0225 13.4139 78.9531H44.5322C44.9936 78.9531 45.436 79.1364 45.7622 79.4626C46.0885 79.7889 46.2717 80.2313 46.2717 80.6927C46.2719 81.1586 46.0902 81.6061 45.7653 81.9401C45.4404 82.274 44.9979 82.4679 44.5322 82.4805Z" fill="white"/>
<path d="M57.095 83.6831C59.3367 83.6831 61.154 82.3418 61.154 80.6873C61.154 79.0327 59.3367 77.6914 57.095 77.6914C54.8534 77.6914 53.0361 79.0327 53.0361 80.6873C53.0361 82.3418 54.8534 83.6831 57.095 83.6831Z" fill="white"/>
<path d="M29.2626 269C30.7037 269 31.8719 267.832 31.8719 266.391C31.8719 264.949 30.7037 263.781 29.2626 263.781C27.8215 263.781 26.6533 264.949 26.6533 266.391C26.6533 267.832 27.8215 269 29.2626 269Z" fill="#3E3126"/>
<path d="M22.6425 167.375C24.0836 167.375 25.2518 166.207 25.2518 164.766C25.2518 163.324 24.0836 162.156 22.6425 162.156C21.2014 162.156 20.0332 163.324 20.0332 164.766C20.0332 166.207 21.2014 167.375 22.6425 167.375Z" fill="#3E3126"/>
<path d="M169.731 94.0175H9.59693C9.10539 94.0177 8.63324 93.8258 8.28119 93.4828C7.92913 93.1397 7.72504 92.6727 7.71243 92.1814C7.72468 91.6854 7.92716 91.2132 8.27795 90.8624C8.62874 90.5116 9.10099 90.3091 9.59693 90.2969H169.731C170.222 90.3095 170.689 90.5136 171.032 90.8656C171.375 91.2177 171.567 91.6898 171.567 92.1814C171.567 92.6684 171.373 93.1354 171.029 93.4797C170.685 93.8241 170.218 94.0175 169.731 94.0175Z" fill="#3E3126"/>
<path d="M177.267 93.5517C176.869 93.5506 176.482 93.4238 176.161 93.1895C175.84 92.9552 175.601 92.6253 175.479 92.2471L169.342 74.1269H144.506C144.064 74.0555 143.662 73.829 143.371 73.4882C143.081 73.1473 142.922 72.7142 142.922 72.2666C142.922 71.8189 143.081 71.3859 143.371 71.045C143.662 70.7041 144.064 70.4777 144.506 70.4062H170.792C171.175 70.4138 171.547 70.5382 171.858 70.7627C172.169 70.9871 172.404 71.3011 172.531 71.6626L179.006 90.9907C179.161 91.4587 179.126 91.9686 178.909 92.4111C178.693 92.8537 178.311 93.1938 177.847 93.3584L177.267 93.5517Z" fill="#3E3126"/>
<path d="M95.2679 272.327C98.7906 272.327 101.646 269.471 101.646 265.949C101.646 262.426 98.7906 259.57 95.2679 259.57C91.7453 259.57 88.8896 262.426 88.8896 265.949C88.8896 269.471 91.7453 272.327 95.2679 272.327Z" fill="#E52B17"/>
<path d="M81.9797 274.17C83.661 274.17 85.0239 272.807 85.0239 271.126C85.0239 269.445 83.661 268.082 81.9797 268.082C80.2985 268.082 78.9355 269.445 78.9355 271.126C78.9355 272.807 80.2985 274.17 81.9797 274.17Z" fill="#E52B17"/>
<path opacity="0.45" d="M76.374 257.106C77.7884 257.106 78.935 255.96 78.935 254.545C78.935 253.131 77.7884 251.984 76.374 251.984C74.9596 251.984 73.813 253.131 73.813 254.545C73.813 255.96 74.9596 257.106 76.374 257.106Z" fill="#E52B17"/>
<path opacity="0.6" d="M75.6 265.22C77.0144 265.22 78.161 264.073 78.161 262.659C78.161 261.244 77.0144 260.098 75.6 260.098C74.1857 260.098 73.0391 261.244 73.0391 262.659C73.0391 264.073 74.1857 265.22 75.6 265.22Z" fill="#E52B17"/>
<path d="M142.719 151.283L145.425 142.441L177.365 130.844C177.365 130.844 197.804 148.577 196.21 148.867C194.615 149.157 142.719 151.283 142.719 151.283Z" fill="white"/>
<path opacity="0.45" d="M78.7415 261.255C80.3427 261.255 81.6407 259.957 81.6407 258.356C81.6407 256.755 80.3427 255.457 78.7415 255.457C77.1403 255.457 75.8423 256.755 75.8423 258.356C75.8423 259.957 77.1403 261.255 78.7415 261.255Z" fill="#E52B17"/>
<path d="M215.343 175.934L194.614 333.748C194.122 336.247 192.78 338.499 190.815 340.12C188.851 341.741 186.385 342.631 183.838 342.639H108.7C106.139 342.644 103.655 341.761 101.673 340.139C99.6902 338.518 98.3314 336.259 97.8281 333.748L77.147 175.934" fill="white"/>
<path d="M191.136 176.468L190.169 182.266H78.2109V187.775H178.572C179.863 187.781 181.138 188.065 182.309 188.608C183.481 189.151 184.521 189.94 185.361 190.921C186.2 191.902 186.817 193.053 187.172 194.294C187.526 195.536 187.609 196.839 187.415 198.115L171.614 289.924H93.3835L96.2344 300.071H157.263C163.835 300.071 168.86 318.771 167.749 325.295L166.202 334.33C165.678 336.819 164.309 339.05 162.327 340.644C160.346 342.238 157.873 343.098 155.33 343.076H183.018C185.571 343.07 188.043 342.182 190.016 340.562C191.988 338.941 193.34 336.689 193.842 334.185L214.571 176.371L191.136 176.468Z" fill="#FFEDE1"/>
<path d="M183.839 344.994H108.701C105.597 344.991 102.591 343.917 100.188 341.954C97.7843 339.991 96.1319 337.259 95.5091 334.219L74.7796 176.211C74.6963 175.571 74.871 174.923 75.2652 174.411C75.6593 173.899 76.2408 173.565 76.8816 173.481C77.5223 173.398 78.1699 173.573 78.6819 173.967C79.1939 174.361 79.5284 174.942 79.6117 175.583L100.196 333.398C100.625 335.332 101.703 337.062 103.249 338.301C104.796 339.54 106.719 340.214 108.701 340.211H183.839C185.812 340.203 187.724 339.524 189.261 338.286C190.797 337.048 191.867 335.324 192.295 333.398L212.831 175.583C212.915 174.962 213.242 174.4 213.74 174.019C214.238 173.639 214.867 173.471 215.489 173.554C216.113 173.638 216.68 173.963 217.068 174.46C217.456 174.956 217.635 175.585 217.566 176.211L196.982 334.026C196.4 337.093 194.772 339.864 192.375 341.864C189.978 343.864 186.961 344.971 183.839 344.994Z" fill="#3E3126"/>
<path d="M221.577 212.068L209.449 282.374C209.094 284.486 208 286.403 206.363 287.784C204.726 289.165 202.651 289.919 200.509 289.912H92.0302C89.8968 289.907 87.834 289.148 86.2067 287.768C84.5795 286.389 83.4929 284.478 83.1392 282.374L70.7209 212.068C70.5043 210.766 70.5727 209.432 70.9212 208.159C71.2698 206.885 71.8903 205.703 72.74 204.692C73.5897 203.682 74.6484 202.867 75.843 202.306C77.0377 201.744 78.34 201.448 79.6602 201.438H212.831C214.138 201.467 215.422 201.778 216.597 202.349C217.773 202.921 218.811 203.739 219.641 204.748C220.471 205.757 221.074 206.933 221.408 208.197C221.742 209.46 221.8 210.78 221.577 212.068Z" fill="#FFA878"/>
<path d="M171.615 289.909C183.212 264.348 186.836 201.531 186.836 201.531H212.832C214.148 201.527 215.449 201.81 216.643 202.361C217.838 202.912 218.899 203.717 219.75 204.721C220.601 205.724 221.223 206.901 221.572 208.169C221.922 209.438 221.989 210.768 221.771 212.065L209.45 282.323C209.105 284.444 208.016 286.372 206.377 287.763C204.739 289.153 202.659 289.914 200.51 289.909" fill="#EA5706"/>
<path opacity="0.25" d="M210.705 285.897C209.845 286.901 208.778 287.705 207.576 288.256C206.375 288.807 205.068 289.09 203.747 289.086H140.351C168.376 256.374 178.089 225.642 179.635 200.66H189.927L174.851 289.038H203.844C205.144 289.028 206.428 288.742 207.61 288.201C208.792 287.66 209.847 286.875 210.705 285.897Z" fill="#EA5706"/>
<path d="M218.532 231.6H218.194C217.962 231.559 217.741 231.473 217.542 231.346C217.344 231.22 217.172 231.055 217.038 230.862C216.903 230.669 216.808 230.451 216.758 230.221C216.707 229.992 216.703 229.754 216.745 229.522L219.837 211.789C220.007 210.742 219.953 209.67 219.678 208.646C219.403 207.621 218.914 206.666 218.242 205.845C217.58 205.045 216.755 204.394 215.822 203.936C214.889 203.477 213.869 203.222 212.831 203.188H163.689C163.271 203.118 162.892 202.903 162.618 202.58C162.344 202.257 162.194 201.847 162.194 201.424C162.194 201.001 162.344 200.591 162.618 200.268C162.892 199.945 163.271 199.73 163.689 199.66H212.831C214.415 199.654 215.981 199.997 217.418 200.665C218.854 201.333 220.126 202.31 221.142 203.526C222.169 204.721 222.915 206.132 223.325 207.654C223.735 209.176 223.798 210.771 223.509 212.32L220.465 230.102C220.394 230.551 220.154 230.955 219.795 231.233C219.436 231.511 218.985 231.643 218.532 231.6Z" fill="#3E3126"/>
<path d="M77.0984 250.59C76.673 250.586 76.2621 250.434 75.9361 250.161C75.61 249.888 75.3889 249.51 75.3105 249.092L68.9805 212.32C68.7215 210.766 68.8032 209.175 69.2199 207.656C69.6367 206.137 70.3785 204.726 71.3942 203.522C72.4098 202.318 73.675 201.349 75.1021 200.682C76.5292 200.015 78.0842 199.667 79.6594 199.66H135.518C135.935 199.73 136.315 199.945 136.589 200.268C136.862 200.591 137.013 201 137.013 201.424C137.013 201.847 136.862 202.257 136.589 202.58C136.315 202.903 135.935 203.118 135.518 203.188H79.6594C78.5997 203.196 77.5544 203.433 76.5952 203.884C75.6361 204.334 74.7857 204.987 74.1025 205.797C73.4447 206.623 72.9779 207.584 72.7356 208.611C72.4933 209.639 72.4816 210.708 72.7012 211.74L79.0312 248.512C79.0726 248.741 79.0677 248.976 79.0168 249.203C78.966 249.429 78.8701 249.644 78.735 249.833C78.5998 250.022 78.4281 250.182 78.23 250.304C78.0319 250.426 77.8114 250.506 77.5816 250.542L77.0984 250.59Z" fill="#3E3126"/>
<path d="M200.51 291.665H92.0303C89.4786 291.658 87.0105 290.754 85.0582 289.111C83.1059 287.468 81.7938 285.191 81.3515 282.678L79.177 270.066C79.1121 269.604 79.2306 269.134 79.5073 268.758C79.784 268.382 80.1968 268.129 80.6575 268.053C81.1183 267.977 81.5903 268.085 81.9729 268.353C82.3554 268.62 82.6179 269.027 82.7044 269.486L84.8789 282.049C85.1645 283.739 86.0395 285.273 87.3487 286.379C88.6579 287.484 90.3166 288.091 92.0303 288.089H200.751C202.471 288.092 204.136 287.488 205.453 286.383C206.77 285.278 207.655 283.743 207.951 282.049L212.831 252.236C212.872 252.004 212.958 251.782 213.085 251.584C213.211 251.386 213.376 251.214 213.569 251.079C213.762 250.945 213.98 250.849 214.21 250.799C214.44 250.749 214.677 250.744 214.909 250.786C215.371 250.88 215.78 251.148 216.05 251.535C216.319 251.922 216.43 252.398 216.359 252.864L211.188 282.678C210.755 285.195 209.445 287.478 207.491 289.123C205.537 290.767 203.064 291.668 200.51 291.665Z" fill="#3E3126"/>
<path d="M190.748 226.138H190.361C190.112 226.041 189.912 225.849 189.803 225.605C189.695 225.361 189.687 225.083 189.782 224.833L195.29 211.739C195.343 211.614 195.42 211.501 195.517 211.406C195.614 211.311 195.728 211.237 195.855 211.187C195.981 211.138 196.115 211.114 196.251 211.118C196.386 211.121 196.52 211.151 196.643 211.207C196.766 211.254 196.878 211.327 196.973 211.419C197.067 211.511 197.141 211.622 197.191 211.744C197.241 211.867 197.265 211.998 197.262 212.13C197.259 212.262 197.23 212.392 197.175 212.512L191.618 225.607C191.537 225.767 191.412 225.902 191.259 225.996C191.105 226.09 190.928 226.139 190.748 226.138Z" fill="#3E3126"/>
<path d="M198.336 219.806H197.949C197.7 219.708 197.5 219.517 197.391 219.272C197.283 219.028 197.275 218.751 197.369 218.501L200.365 211.494C200.413 211.371 200.485 211.259 200.577 211.165C200.67 211.071 200.78 210.996 200.903 210.946C201.025 210.897 201.156 210.872 201.288 210.875C201.42 210.878 201.55 210.908 201.67 210.963C201.919 211.06 202.12 211.252 202.228 211.496C202.337 211.74 202.345 212.018 202.25 212.268L199.254 219.274C199.165 219.439 199.032 219.575 198.87 219.669C198.708 219.763 198.523 219.81 198.336 219.806Z" fill="#3E3126"/>
<path d="M178.92 272.863C179.619 269.438 178.574 266.333 176.587 265.927C174.6 265.522 172.423 267.97 171.724 271.395C171.025 274.821 172.069 277.926 174.057 278.332C176.044 278.737 178.221 276.289 178.92 272.863Z" fill="#EA5706"/>
<path d="M172.34 263.829C173.354 263.829 174.176 263.007 174.176 261.992C174.176 260.978 173.354 260.156 172.34 260.156C171.325 260.156 170.503 260.978 170.503 261.992C170.503 263.007 171.325 263.829 172.34 263.829Z" fill="#EA5706"/>
<path d="M166.154 285.472C167.515 285.472 168.618 284.368 168.618 283.007C168.618 281.646 167.515 280.543 166.154 280.543C164.793 280.543 163.689 281.646 163.689 283.007C163.689 284.368 164.793 285.472 166.154 285.472Z" fill="#EA5706"/>
<path opacity="0.35" d="M165.186 272.72C165.987 272.72 166.636 272.071 166.636 271.27C166.636 270.469 165.987 269.82 165.186 269.82C164.386 269.82 163.737 270.469 163.737 271.27C163.737 272.071 164.386 272.72 165.186 272.72Z" fill="#EA5706"/>
<path d="M176.737 258.127C180.179 258.127 182.97 255.336 182.97 251.893C182.97 248.451 180.179 245.66 176.737 245.66C173.294 245.66 170.503 248.451 170.503 251.893C170.503 255.336 173.294 258.127 176.737 258.127Z" fill="#EA5706"/>
<path d="M168.86 241.6C169.714 241.6 170.406 240.908 170.406 240.054C170.406 239.2 169.714 238.508 168.86 238.508C168.006 238.508 167.313 239.2 167.313 240.054C167.313 240.908 168.006 241.6 168.86 241.6Z" fill="#EA5706"/>
<path opacity="0.35" d="M165.429 254.881C167.11 254.881 168.473 253.518 168.473 251.837C168.473 250.156 167.11 248.793 165.429 248.793C163.748 248.793 162.385 250.156 162.385 251.837C162.385 253.518 163.748 254.881 165.429 254.881Z" fill="#EA5706"/>
<path opacity="0.35" d="M174.175 233.534C175.856 233.534 177.219 232.171 177.219 230.49C177.219 228.808 175.856 227.445 174.175 227.445C172.494 227.445 171.131 228.808 171.131 230.49C171.131 232.171 172.494 233.534 174.175 233.534Z" fill="#EA5706"/>
<path d="M195.726 148.579C195.238 148.578 194.771 148.387 194.421 148.048L181.036 135.291C180.416 134.67 179.639 134.23 178.788 134.017C177.936 133.804 177.043 133.827 176.204 134.083C175.954 134.194 175.683 134.25 175.409 134.248C175.135 134.246 174.865 134.186 174.616 134.072C174.368 133.958 174.146 133.792 173.966 133.586C173.786 133.379 173.652 133.137 173.573 132.875C173.494 132.613 173.471 132.337 173.506 132.066C173.542 131.795 173.634 131.534 173.778 131.301C173.922 131.068 174.113 130.868 174.34 130.715C174.566 130.561 174.823 130.458 175.093 130.411C176.595 129.932 178.198 129.862 179.736 130.211C181.273 130.559 182.69 131.312 183.839 132.392L197.175 145.245C197.532 145.615 197.732 146.109 197.732 146.623C197.732 147.136 197.532 147.63 197.175 148C196.987 148.192 196.761 148.343 196.512 148.442C196.262 148.542 195.994 148.589 195.726 148.579Z" fill="#3E3126"/>
<path d="M141.606 147.424C141.228 147.421 140.859 147.31 140.543 147.105C140.226 146.899 139.975 146.608 139.818 146.264C139.627 145.79 139.631 145.259 139.83 144.788C140.03 144.317 140.407 143.944 140.881 143.751L163.592 134.087C164.067 133.891 164.599 133.887 165.077 134.077C165.555 134.266 165.941 134.634 166.153 135.102C166.347 135.57 166.349 136.096 166.159 136.566C165.969 137.036 165.603 137.413 165.138 137.615L142.379 147.279C142.132 147.374 141.87 147.423 141.606 147.424Z" fill="#3E3126"/>
<path d="M93.48 145.434H199.785C201.72 145.434 203.576 146.202 204.944 147.571C206.313 148.939 207.081 150.795 207.081 152.73V171.382H86.2803V152.682C86.2928 150.772 87.0538 148.942 88.3999 147.587C89.7461 146.232 91.57 145.459 93.48 145.434Z" fill="white"/>
<path d="M218.148 182.258H74.1529C73.499 182.254 72.8576 182.079 72.2932 181.748C71.7288 181.418 71.2613 180.945 70.938 180.377C70.6146 179.809 70.4467 179.165 70.4513 178.511C70.4558 177.857 70.6326 177.216 70.9637 176.652C73.4852 172.285 77.1024 168.65 81.4581 166.108C85.8138 163.566 90.7573 162.204 95.8004 162.156H196.5C201.549 162.174 206.504 163.524 210.865 166.069C215.226 168.615 218.838 172.265 221.337 176.652C221.684 177.213 221.874 177.858 221.886 178.518C221.899 179.177 221.733 179.828 221.406 180.402C221.08 180.975 220.605 181.45 220.032 181.777C219.458 182.104 218.807 182.27 218.148 182.258Z" fill="white"/>
<path d="M192.73 181.528C192.344 183.122 190.652 180.706 190.459 182.397H153.301C153.574 178.363 152.687 174.336 150.743 170.791C148.799 167.245 145.88 164.331 142.332 162.393C136.872 158.672 139.723 149.926 132.668 146.06L174.175 145.432C176.212 145.258 178.256 145.691 180.047 146.678C181.838 147.665 183.296 149.16 184.237 150.975C185.178 152.79 185.56 154.844 185.335 156.876C185.109 158.908 184.286 160.828 182.969 162.393C181.278 164.664 196.692 163.939 192.73 181.528Z" fill="#FFEDE1"/>
<path d="M86.1838 165.781C85.6969 165.781 85.2298 165.587 84.8855 165.243C84.5411 164.898 84.3477 164.431 84.3477 163.944V152.686C84.3604 150.272 85.3282 147.962 87.0395 146.259C88.7508 144.557 91.0665 143.602 93.4802 143.602H199.785C202.199 143.602 204.514 144.557 206.226 146.259C207.937 147.962 208.905 150.272 208.918 152.686C208.918 153.173 208.724 153.64 208.38 153.984C208.035 154.329 207.568 154.522 207.081 154.522C206.594 154.522 206.127 154.329 205.783 153.984C205.439 153.64 205.245 153.173 205.245 152.686C205.233 151.246 204.652 149.87 203.629 148.856C202.606 147.842 201.225 147.274 199.785 147.274H93.4802C92.0449 147.274 90.6684 147.844 89.6534 148.859C88.6385 149.874 88.0683 151.25 88.0683 152.686V163.944C88.0557 164.436 87.8516 164.903 87.4996 165.246C87.1475 165.589 86.6754 165.781 86.1838 165.781Z" fill="#3E3126"/>
<path d="M218.146 184.087H74.1508C73.1706 184.084 72.2086 183.823 71.3608 183.331C70.5129 182.839 69.8088 182.134 69.3187 181.285C68.8315 180.431 68.5752 179.465 68.5752 178.482C68.5752 177.499 68.8315 176.533 69.3187 175.68C72.038 171.086 75.9034 167.277 80.5365 164.626C85.1697 161.975 90.4119 160.572 95.75 160.555H154.846C155.288 160.627 155.69 160.853 155.98 161.194C156.27 161.535 156.43 161.968 156.43 162.416C156.43 162.863 156.27 163.296 155.98 163.637C155.69 163.978 155.288 164.205 154.846 164.276H95.7983C91.1291 164.31 86.5481 165.551 82.5007 167.88C78.4534 170.208 75.0774 173.545 72.7012 177.564C72.5404 177.852 72.4559 178.177 72.4559 178.506C72.4559 178.836 72.5404 179.161 72.7012 179.449C72.8546 179.735 73.0853 179.974 73.3671 180.136C73.649 180.298 73.9707 180.378 74.2957 180.367H218.146C218.475 180.366 218.799 180.282 219.086 180.121C219.374 179.961 219.615 179.729 219.788 179.449C219.959 179.164 220.049 178.838 220.049 178.506C220.049 178.175 219.959 177.849 219.788 177.564C217.403 173.51 213.998 170.151 209.912 167.82C205.826 165.489 201.202 164.267 196.498 164.276H177.895C177.625 164.32 177.35 164.304 177.087 164.231C176.824 164.157 176.58 164.028 176.372 163.851C176.164 163.674 175.998 163.454 175.883 163.206C175.769 162.958 175.709 162.689 175.709 162.416C175.709 162.143 175.769 161.873 175.883 161.625C175.998 161.378 176.164 161.158 176.372 160.981C176.58 160.804 176.824 160.674 177.087 160.601C177.35 160.527 177.625 160.512 177.895 160.555H196.498C201.838 160.563 207.084 161.961 211.719 164.614C216.354 167.266 220.217 171.08 222.929 175.68C223.441 176.525 223.711 177.494 223.711 178.482C223.711 179.47 223.441 180.44 222.929 181.285C222.447 182.13 221.751 182.834 220.912 183.325C220.072 183.817 219.118 184.08 218.146 184.087Z" fill="#3E3126"/>
<path d="M87.9717 255.744C87.6155 255.739 87.2719 255.612 86.999 255.383C86.7261 255.154 86.5405 254.838 86.4738 254.488L82.3665 233.42C82.3242 233.22 82.3219 233.014 82.3599 232.813C82.3978 232.612 82.4752 232.421 82.5875 232.25C82.6998 232.079 82.8449 231.932 83.0143 231.818C83.1837 231.704 83.3742 231.624 83.5745 231.584C83.9771 231.511 84.3922 231.596 84.734 231.821C85.0758 232.046 85.318 232.393 85.4107 232.792L89.7112 253.86C89.7536 254.06 89.7558 254.266 89.7179 254.467C89.68 254.668 89.6026 254.859 89.4903 255.03C89.3779 255.2 89.2329 255.347 89.0634 255.462C88.894 255.576 88.7036 255.656 88.5032 255.696L87.9717 255.744Z" fill="white"/>
<path d="M82.4736 227.328C83.5978 227.098 84.2572 225.682 83.9465 224.165C83.6358 222.649 82.4726 221.606 81.3485 221.837C80.2243 222.067 79.5649 223.483 79.8756 224.999C80.1863 226.516 81.3495 227.558 82.4736 227.328Z" fill="white"/>
<path d="M176.301 273.012H207.999C208.435 273.012 208.853 273.185 209.161 273.493C209.469 273.801 209.642 274.219 209.642 274.655C209.642 275.09 209.469 275.508 209.161 275.816C208.853 276.124 208.435 276.298 207.999 276.298H176.108C175.672 276.298 175.254 276.124 174.946 275.816C174.638 275.508 174.465 275.09 174.465 274.655C174.465 274.219 174.638 273.801 174.946 273.493C175.254 273.185 175.672 273.012 176.108 273.012H176.301Z" fill="#3E3126"/>
<path d="M161.708 273.012H166.202C166.638 273.012 167.056 273.185 167.364 273.493C167.672 273.801 167.845 274.219 167.845 274.655C167.845 275.09 167.672 275.508 167.364 275.816C167.056 276.124 166.638 276.298 166.202 276.298H161.708C161.273 276.298 160.855 276.124 160.547 275.816C160.239 275.508 160.065 275.09 160.065 274.655C160.065 274.219 160.239 273.801 160.547 273.493C160.855 273.185 161.273 273.012 161.708 273.012Z" fill="#3E3126"/>
<path d="M77.9701 260.642C79.4646 260.642 80.676 259.431 80.676 257.936C80.676 256.442 79.4646 255.23 77.9701 255.23C76.4757 255.23 75.2642 256.442 75.2642 257.936C75.2642 259.431 76.4757 260.642 77.9701 260.642Z" fill="#3E3126"/>
<path d="M163.449 165.154C164.943 165.154 166.155 163.943 166.155 162.448C166.155 160.954 164.943 159.742 163.449 159.742C161.954 159.742 160.743 160.954 160.743 162.448C160.743 163.943 161.954 165.154 163.449 165.154Z" fill="#3E3126"/>
<path d="M217.085 244.388C218.579 244.388 219.791 243.177 219.791 241.683C219.791 240.188 218.579 238.977 217.085 238.977C215.59 238.977 214.379 240.188 214.379 241.683C214.379 243.177 215.59 244.388 217.085 244.388Z" fill="#3E3126"/>
</g>
</g>
<defs>
<clipPath id="clip0_16_1247">
<rect width="224" height="346" fill="white"/>
</clipPath>
</defs>
</svg>
