<svg width="363" height="206" viewBox="0 0 363 206" fill="none" xmlns="http://www.w3.org/2000/svg">
<mask id="mask0_237_1935" style="mask-type:luminance" maskUnits="userSpaceOnUse" x="0" y="0" width="363" height="206">
<path d="M362.513 0H0V205.987H362.513V0Z" fill="white"/>
</mask>
<g mask="url(#mask0_237_1935)">
<path d="M362.513 131.12C362.513 135.01 360.966 138.741 358.213 141.491C355.46 144.241 351.726 145.787 347.833 145.787H51.5607C47.8273 145.561 44.3206 143.921 41.7569 141.2C39.1931 138.479 37.7654 134.883 37.7654 131.147C37.7654 127.41 39.1931 123.814 41.7569 121.093C44.3206 118.373 47.8273 116.732 51.5607 116.507H114.038C117.771 116.281 121.278 114.641 123.842 111.92C126.405 109.199 127.833 105.603 127.833 101.867C127.833 98.13 126.405 94.534 123.842 91.8133C121.278 89.0927 117.771 87.452 114.038 87.2267H47.3768C44.0358 86.1847 41.1774 83.9847 39.3168 81.0227C37.4563 78.0607 36.7162 74.5327 37.2299 71.0733C37.7435 67.6147 39.4772 64.453 42.1184 62.1585C44.7595 59.8641 48.1342 58.5879 51.6341 58.56H184.756C186.755 58.6806 188.757 58.3914 190.64 57.7102C192.523 57.0289 194.246 55.9701 195.704 54.5989C197.162 53.2276 198.323 51.5728 199.118 49.7363C199.912 47.8999 200.321 45.9205 200.321 43.92C200.321 41.9195 199.912 39.9401 199.118 38.1037C198.323 36.2672 197.162 34.6124 195.704 33.2411C194.246 31.8699 192.523 30.8111 190.64 30.1298C188.757 29.4486 186.755 29.1594 184.756 29.28H117.228C113.494 29.0547 109.988 27.4143 107.424 24.6935C104.86 21.9727 103.432 18.3768 103.432 14.64C103.432 10.9032 104.86 7.30727 107.424 4.58651C109.988 1.86572 113.494 0.225235 117.228 0H282.259C285.993 0.225235 289.499 1.86572 292.063 4.58651C294.627 7.30727 296.055 10.9032 296.055 14.64C296.055 18.3768 294.627 21.9727 292.063 24.6935C289.499 27.4143 285.993 29.0547 282.259 29.28H245.285C243.287 29.1594 241.284 29.4486 239.402 30.1298C237.519 30.8111 235.796 31.8699 234.338 33.2411C232.88 34.6124 231.718 36.2672 230.924 38.1037C230.13 39.9401 229.72 41.9195 229.72 43.92C229.72 45.9205 230.13 47.8999 230.924 49.7363C231.718 51.5728 232.88 53.2276 234.338 54.5989C235.796 55.9701 237.519 57.0289 239.402 57.7102C241.284 58.3914 243.287 58.6806 245.285 58.56H347.859C351.593 58.7852 355.099 60.4257 357.663 63.1465C360.227 65.8673 361.655 69.4633 361.655 73.2C361.655 76.9367 360.227 80.5327 357.663 83.2533C355.099 85.974 351.593 87.6147 347.859 87.84H343.856C342.478 87.4073 341.043 87.1827 339.599 87.1733H174.567C170.673 87.1733 166.939 88.7187 164.187 91.4693C161.434 94.2193 159.887 97.95 159.887 101.84C159.887 105.73 161.434 109.461 164.187 112.211C166.939 114.961 170.673 116.507 174.567 116.507H347.859C351.739 116.514 355.458 118.055 358.204 120.793C360.949 123.531 362.499 127.244 362.513 131.12Z" fill="url(#paint0_linear_237_1935)"/>
<path d="M82.5024 29.92C90.772 29.92 97.4762 23.2222 97.4762 14.96C97.4762 6.6978 90.772 0 82.5024 0C74.2328 0 67.5287 6.6978 67.5287 14.96C67.5287 23.2222 74.2328 29.92 82.5024 29.92Z" fill="url(#paint1_linear_237_1935)"/>
<path d="M14.9737 147.04C23.2435 147.04 29.9475 140.342 29.9475 132.08C29.9475 123.817 23.2435 117.12 14.9737 117.12C6.70396 117.12 0 123.817 0 132.08C0 140.342 6.70396 147.04 14.9737 147.04Z" fill="url(#paint2_linear_237_1935)"/>
<g opacity="0.5">
<path opacity="0.5" d="M134.21 74.3133C134.837 74.3133 135.344 73.806 135.344 73.18C135.344 72.554 134.837 72.0467 134.21 72.0467C133.583 72.0467 133.076 72.554 133.076 73.18C133.076 73.806 133.583 74.3133 134.21 74.3133Z" fill="white"/>
<path opacity="0.5" d="M149.858 69.1C150.484 69.1 150.992 68.5927 150.992 67.9667C150.992 67.3407 150.484 66.8333 149.858 66.8333C149.231 66.8333 148.723 67.3407 148.723 67.9667C148.723 68.5927 149.231 69.1 149.858 69.1Z" fill="white"/>
<path opacity="0.5" d="M122.419 78.7273C122.129 78.7273 121.845 78.6413 121.604 78.4807C121.362 78.3193 121.174 78.09 121.063 77.822C120.952 77.554 120.922 77.2593 120.979 76.9747C121.036 76.69 121.176 76.4287 121.381 76.224C121.586 76.0187 121.848 75.8793 122.133 75.8227C122.418 75.766 122.713 75.7947 122.981 75.906C123.249 76.0167 123.479 76.2047 123.64 76.446C123.801 76.6873 123.887 76.9707 123.887 77.2607C123.887 77.65 123.732 78.0227 123.457 78.298C123.182 78.5733 122.808 78.7273 122.419 78.7273ZM122.419 76.4607C122.261 76.4607 122.106 76.508 121.974 76.596C121.843 76.684 121.74 76.8087 121.679 76.9547C121.619 77.1007 121.603 77.262 121.634 77.4173C121.664 77.572 121.741 77.7147 121.853 77.8267C121.965 77.9387 122.107 78.0147 122.263 78.0453C122.418 78.0767 122.579 78.0607 122.725 78C122.872 77.9393 122.997 77.8367 123.085 77.7053C123.173 77.574 123.22 77.4193 123.22 77.2607C123.22 77.0487 123.136 76.8453 122.986 76.6953C122.835 76.5453 122.631 76.4607 122.419 76.4607Z" fill="white"/>
<path opacity="0.5" d="M120.718 69.4467L122.719 71.28C123.193 71.7133 123.907 71.0067 123.427 70.5733L121.425 68.74C120.951 68.3067 120.237 69.0133 120.718 69.4467Z" fill="white"/>
<path opacity="0.5" d="M122.639 68.6673L120.778 70.6673C120.344 71.1407 121.051 71.854 121.485 71.374L123.32 69.374C123.754 68.9007 123.046 68.1873 122.613 68.6673H122.639Z" fill="white"/>
<path opacity="0.5" d="M149.864 72.732L148.009 74.732C147.569 75.2053 148.276 75.912 148.717 75.4387L150.572 73.4387C151.012 72.9653 150.305 72.2587 149.864 72.732Z" fill="white"/>
<path opacity="0.5" d="M150.645 74.6667L148.643 72.8133C148.169 72.3733 147.462 73.08 147.936 73.52L149.938 75.3733C150.411 75.8133 151.119 75.1067 150.645 74.6667Z" fill="white"/>
<path opacity="0.5" d="M210.66 74.3133C211.287 74.3133 211.795 73.806 211.795 73.18C211.795 72.554 211.287 72.0467 210.66 72.0467C210.034 72.0467 209.526 72.554 209.526 73.18C209.526 73.806 210.034 74.3133 210.66 74.3133Z" fill="white"/>
<path opacity="0.5" d="M226.308 69.1C226.934 69.1 227.442 68.5927 227.442 67.9667C227.442 67.3407 226.934 66.8333 226.308 66.8333C225.681 66.8333 225.173 67.3407 225.173 67.9667C225.173 68.5927 225.681 69.1 226.308 69.1Z" fill="white"/>
<path opacity="0.5" d="M198.849 78.7273C198.559 78.7273 198.275 78.6413 198.034 78.4807C197.792 78.3193 197.604 78.09 197.493 77.822C197.382 77.554 197.353 77.2593 197.409 76.9747C197.466 76.69 197.606 76.4287 197.811 76.224C198.016 76.0187 198.278 75.8793 198.563 75.8227C198.848 75.766 199.143 75.7947 199.411 75.906C199.679 76.0167 199.909 76.2047 200.07 76.446C200.231 76.6873 200.317 76.9707 200.317 77.2607C200.317 77.65 200.162 78.0227 199.888 78.298C199.612 78.5733 199.239 78.7273 198.849 78.7273ZM198.849 76.4607C198.691 76.4607 198.536 76.508 198.404 76.596C198.273 76.684 198.17 76.8087 198.109 76.9547C198.049 77.1007 198.033 77.262 198.064 77.4173C198.095 77.572 198.171 77.7147 198.283 77.8267C198.395 77.9387 198.538 78.0147 198.693 78.0453C198.849 78.0767 199.009 78.0607 199.156 78C199.302 77.9393 199.427 77.8367 199.515 77.7053C199.603 77.574 199.65 77.4193 199.65 77.2607C199.65 77.0487 199.566 76.8453 199.416 76.6953C199.266 76.5453 199.061 76.4607 198.849 76.4607Z" fill="white"/>
<path opacity="0.5" d="M197.168 69.4467L199.17 71.28C199.643 71.7133 200.357 71.0067 199.877 70.5733L197.875 68.74C197.401 68.3067 196.687 69.0133 197.168 69.4467Z" fill="white"/>
<path opacity="0.5" d="M199.089 68.6673L197.254 70.6673C196.821 71.1407 197.528 71.854 197.962 71.374L199.797 69.374C200.231 68.9007 199.523 68.1873 199.089 68.6673Z" fill="white"/>
<path opacity="0.5" d="M226.315 72.732L224.459 74.732C224.019 75.2053 224.726 75.912 225.167 75.4387L227.022 73.4387C227.462 72.9653 226.755 72.2587 226.315 72.732Z" fill="white"/>
<path opacity="0.5" d="M227.095 74.6667L225.093 72.8133C224.62 72.3733 223.912 73.08 224.386 73.52L226.388 75.3733C226.862 75.8133 227.569 75.1067 227.095 74.6667Z" fill="white"/>
<path opacity="0.5" d="M329.796 74.3133C330.423 74.3133 330.931 73.806 330.931 73.18C330.931 72.554 330.423 72.0467 329.796 72.0467C329.17 72.0467 328.662 72.554 328.662 73.18C328.662 73.806 329.17 74.3133 329.796 74.3133Z" fill="white"/>
<path opacity="0.5" d="M345.451 69.1C346.077 69.1 346.585 68.5927 346.585 67.9667C346.585 67.3407 346.077 66.8333 345.451 66.8333C344.824 66.8333 344.316 67.3407 344.316 67.9667C344.316 68.5927 344.824 69.1 345.451 69.1Z" fill="white"/>
<path opacity="0.5" d="M318.005 78.7273C317.715 78.7273 317.431 78.6413 317.19 78.4807C316.948 78.3193 316.76 78.09 316.649 77.822C316.538 77.554 316.509 77.2593 316.565 76.9747C316.622 76.69 316.762 76.4287 316.967 76.224C317.173 76.0187 317.434 75.8793 317.719 75.8227C318.003 75.766 318.299 75.7947 318.567 75.906C318.835 76.0167 319.064 76.2047 319.226 76.446C319.387 76.6873 319.473 76.9707 319.473 77.2607C319.473 77.65 319.319 78.0227 319.044 78.298C318.768 78.5733 318.394 78.7273 318.005 78.7273ZM318.005 76.4607C317.847 76.4607 317.692 76.508 317.56 76.596C317.429 76.684 317.326 76.8087 317.265 76.9547C317.205 77.1007 317.189 77.262 317.22 77.4173C317.251 77.572 317.327 77.7147 317.439 77.8267C317.551 77.9387 317.694 78.0147 317.849 78.0453C318.005 78.0767 318.165 78.0607 318.312 78C318.458 77.9393 318.583 77.8367 318.671 77.7053C318.759 77.574 318.806 77.4193 318.806 77.2607C318.806 77.0487 318.721 76.8453 318.571 76.6953C318.421 76.5453 318.218 76.4607 318.005 76.4607Z" fill="white"/>
<path opacity="0.5" d="M316.29 69.4467L318.292 71.28C318.766 71.7133 319.48 71.0067 319 70.5733L316.998 68.74C316.524 68.3067 315.81 69.0133 316.29 69.4467Z" fill="white"/>
<path opacity="0.5" d="M318.232 68.6673L316.397 70.6673C315.964 71.1407 316.671 71.854 317.105 71.374L318.94 69.374C319.373 68.9007 318.666 68.1873 318.232 68.6673Z" fill="white"/>
<path opacity="0.5" d="M345.457 72.732L343.602 74.732C343.162 75.2053 343.869 75.912 344.31 75.4387L346.165 73.4387C346.605 72.9653 345.898 72.2587 345.457 72.732Z" fill="white"/>
<path opacity="0.5" d="M346.231 74.6667L344.229 72.8133C343.756 72.3733 343.048 73.08 343.522 73.52L345.524 75.3733C345.998 75.8133 346.705 75.1067 346.231 74.6667Z" fill="white"/>
<path opacity="0.5" d="M65.4001 74.3133C66.0266 74.3133 66.5345 73.806 66.5345 73.18C66.5345 72.554 66.0266 72.0467 65.4001 72.0467C64.7736 72.0467 64.2657 72.554 64.2657 73.18C64.2657 73.806 64.7736 74.3133 65.4001 74.3133Z" fill="white"/>
<path opacity="0.5" d="M81.0544 69.1C81.681 69.1 82.1888 68.5927 82.1888 67.9667C82.1888 67.3407 81.681 66.8333 81.0544 66.8333C80.4278 66.8333 79.92 67.3407 79.92 67.9667C79.92 68.5927 80.4278 69.1 81.0544 69.1Z" fill="white"/>
<path opacity="0.5" d="M53.6092 78.7273C53.3189 78.7273 53.035 78.6413 52.7936 78.4807C52.5521 78.3193 52.364 78.09 52.2529 77.822C52.1418 77.554 52.1127 77.2593 52.1694 76.9747C52.226 76.69 52.3658 76.4287 52.5712 76.224C52.7764 76.0187 53.038 75.8793 53.3228 75.8227C53.6076 75.766 53.9027 75.7947 54.171 75.906C54.4392 76.0167 54.6685 76.2047 54.8298 76.446C54.9911 76.6873 55.0772 76.9707 55.0772 77.2607C55.0772 77.65 54.9225 78.0227 54.6472 78.298C54.3719 78.5733 53.9985 78.7273 53.6092 78.7273ZM53.6092 76.4607C53.4508 76.4607 53.296 76.508 53.1643 76.596C53.0327 76.684 52.93 76.8087 52.8694 76.9547C52.8088 77.1007 52.7929 77.262 52.8238 77.4173C52.8548 77.572 52.931 77.7147 53.043 77.8267C53.155 77.9387 53.2976 78.0147 53.453 78.0453C53.6083 78.0767 53.7693 78.0607 53.9156 78C54.0619 77.9393 54.187 77.8367 54.275 77.7053C54.3629 77.574 54.4099 77.4193 54.4099 77.2607C54.4099 77.0487 54.3256 76.8453 54.1754 76.6953C54.0252 76.5453 53.8215 76.4607 53.6092 76.4607Z" fill="white"/>
<path opacity="0.5" d="M51.9077 69.4467L53.9095 71.28C54.3833 71.7133 55.0973 71.0067 54.6168 70.5733L52.615 68.74C52.1412 68.3067 51.4272 69.0133 51.9077 69.4467Z" fill="white"/>
<path opacity="0.5" d="M53.8295 68.6673L51.9945 70.6673C51.5607 71.1407 52.2681 71.854 52.7018 71.374L54.5368 69.374C54.9705 68.9007 54.2632 68.1873 53.8295 68.6673Z" fill="white"/>
<path opacity="0.5" d="M81.0544 72.732L79.1994 74.732C78.759 75.2053 79.4663 75.912 79.9067 75.4387L81.7617 73.4387C82.2022 72.9653 81.4948 72.2587 81.0544 72.732Z" fill="white"/>
<path opacity="0.5" d="M81.8352 74.6667L79.8333 72.8133C79.3595 72.3733 78.6522 73.08 79.126 73.52L81.1278 75.3733C81.6016 75.8133 82.3089 75.1067 81.8352 74.6667Z" fill="white"/>
</g>
<g opacity="0.5">
<path opacity="0.5" d="M129.112 16.3865C129.739 16.3865 130.246 15.8791 130.246 15.2531C130.246 14.6272 129.739 14.1198 129.112 14.1198C128.485 14.1198 127.978 14.6272 127.978 15.2531C127.978 15.8791 128.485 16.3865 129.112 16.3865Z" fill="white"/>
<path opacity="0.5" d="M144.76 11.1807C145.386 11.1807 145.894 10.6733 145.894 10.0474C145.894 9.42146 145.386 8.91406 144.76 8.91406C144.133 8.91406 143.625 9.42146 143.625 10.0474C143.625 10.6733 144.133 11.1807 144.76 11.1807Z" fill="white"/>
<path opacity="0.5" d="M117.321 20.8005C117.03 20.8031 116.745 20.7193 116.502 20.5598C116.259 20.4003 116.069 20.1721 115.955 19.9043C115.842 19.6366 115.811 19.3413 115.866 19.0559C115.921 18.7705 116.06 18.5079 116.265 18.3015C116.47 18.0951 116.731 17.9541 117.016 17.8963C117.302 17.8387 117.597 17.8669 117.866 17.9775C118.135 18.0881 118.365 18.2761 118.528 18.5176C118.689 18.7591 118.776 19.0431 118.776 19.3338C118.776 19.7205 118.623 20.0915 118.351 20.3662C118.078 20.6409 117.708 20.7969 117.321 20.8005ZM117.321 18.5338C117.162 18.5311 117.006 18.5758 116.873 18.6621C116.739 18.7484 116.634 18.8724 116.572 19.0183C116.509 19.1642 116.492 19.3255 116.521 19.4815C116.55 19.6376 116.625 19.7814 116.737 19.8946C116.848 20.0078 116.991 20.0853 117.146 20.1173C117.302 20.1493 117.464 20.1342 117.611 20.0741C117.758 20.0139 117.884 19.9115 117.972 19.7796C118.061 19.6478 118.108 19.4926 118.108 19.3338C118.108 19.1239 118.026 18.9224 117.878 18.7728C117.731 18.6231 117.531 18.5373 117.321 18.5338Z" fill="white"/>
<path opacity="0.5" d="M115.62 11.5219L117.621 13.3552C118.095 13.7885 118.809 13.0819 118.329 12.6485L116.327 10.8152C115.853 10.3819 115.139 11.0885 115.62 11.5219Z" fill="white"/>
<path opacity="0.5" d="M117.541 10.727L115.706 12.727C115.273 13.2003 115.98 13.9137 116.414 13.4337L118.249 11.4337C118.682 10.9603 117.975 10.247 117.541 10.727Z" fill="white"/>
<path opacity="0.5" d="M144.8 14.8128L142.945 16.8128C142.504 17.2861 143.212 17.9928 143.652 17.5195L145.507 15.5195C145.947 15.0461 145.24 14.3395 144.8 14.8128Z" fill="white"/>
<path opacity="0.5" d="M145.547 16.7345L143.545 14.8811C143.071 14.4411 142.364 15.1478 142.838 15.5878L144.84 17.4411C145.313 17.8811 146.021 17.1745 145.547 16.7345Z" fill="white"/>
<path opacity="0.5" d="M192.183 16.3865C192.81 16.3865 193.318 15.8791 193.318 15.2531C193.318 14.6272 192.81 14.1198 192.183 14.1198C191.557 14.1198 191.049 14.6272 191.049 15.2531C191.049 15.8791 191.557 16.3865 192.183 16.3865Z" fill="white"/>
<path opacity="0.5" d="M207.838 11.1807C208.464 11.1807 208.972 10.6733 208.972 10.0474C208.972 9.42146 208.464 8.91406 207.838 8.91406C207.211 8.91406 206.703 9.42146 206.703 10.0474C206.703 10.6733 207.211 11.1807 207.838 11.1807Z" fill="white"/>
<path opacity="0.5" d="M180.392 20.8005C180.102 20.8005 179.818 20.7145 179.577 20.5533C179.335 20.3922 179.147 20.1631 179.036 19.8951C178.925 19.6271 178.896 19.3322 178.952 19.0477C179.009 18.7632 179.149 18.5019 179.354 18.2967C179.56 18.0917 179.821 17.9519 180.106 17.8954C180.39 17.8388 180.686 17.8678 180.954 17.9788C181.222 18.0899 181.451 18.2778 181.613 18.519C181.774 18.7602 181.86 19.0438 181.86 19.3339C181.86 19.7229 181.706 20.0959 181.431 20.3709C181.155 20.646 180.781 20.8005 180.392 20.8005ZM180.392 18.5339C180.234 18.5339 180.079 18.5808 179.947 18.6687C179.816 18.7566 179.713 18.8815 179.652 19.0277C179.592 19.1739 179.576 19.3347 179.607 19.4899C179.638 19.6451 179.714 19.7877 179.826 19.8995C179.938 20.0114 180.081 20.0876 180.236 20.1185C180.392 20.1493 180.553 20.1335 180.699 20.0729C180.845 20.0124 180.97 19.9099 181.058 19.7783C181.146 19.6467 181.193 19.4921 181.193 19.3339C181.193 19.1217 181.108 18.9182 180.958 18.7682C180.808 18.6181 180.605 18.5339 180.392 18.5339Z" fill="white"/>
<path opacity="0.5" d="M178.691 11.5219L180.693 13.3552C181.166 13.7885 181.88 13.0819 181.4 12.6485L179.398 10.8152C178.924 10.3819 178.21 11.0885 178.691 11.5219Z" fill="white"/>
<path opacity="0.5" d="M180.613 10.727L178.778 12.727C178.344 13.2003 179.051 13.9137 179.485 13.4337L181.32 11.4337C181.754 10.9603 181.046 10.247 180.613 10.727Z" fill="white"/>
<path opacity="0.5" d="M207.838 14.8128L205.983 16.8128C205.542 17.2861 206.249 17.9928 206.69 17.5195L208.545 15.5195C208.985 15.0461 208.278 14.3395 207.838 14.8128Z" fill="white"/>
<path opacity="0.5" d="M208.618 16.7345L206.616 14.8811C206.143 14.4411 205.435 15.1478 205.909 15.5878L207.911 17.4411C208.385 17.8811 209.092 17.1745 208.618 16.7345Z" fill="white"/>
<path opacity="0.5" d="M267.366 16.3865C267.992 16.3865 268.5 15.8791 268.5 15.2531C268.5 14.6272 267.992 14.1198 267.366 14.1198C266.739 14.1198 266.231 14.6272 266.231 15.2531C266.231 15.8791 266.739 16.3865 267.366 16.3865Z" fill="white"/>
<path opacity="0.5" d="M283.013 11.1807C283.64 11.1807 284.148 10.6733 284.148 10.0474C284.148 9.42146 283.64 8.91406 283.013 8.91406C282.387 8.91406 281.879 9.42146 281.879 10.0474C281.879 10.6733 282.387 11.1807 283.013 11.1807Z" fill="white"/>
<path opacity="0.5" d="M255.568 20.8005C255.278 20.8005 254.994 20.7145 254.753 20.5533C254.511 20.3922 254.323 20.1631 254.212 19.8951C254.101 19.6271 254.071 19.3322 254.128 19.0477C254.185 18.7632 254.325 18.5019 254.53 18.2967C254.735 18.0917 254.997 17.9519 255.282 17.8954C255.567 17.8388 255.862 17.8678 256.13 17.9788C256.398 18.0899 256.628 18.2778 256.788 18.519C256.95 18.7602 257.036 19.0438 257.036 19.3339C257.036 19.7229 256.881 20.0959 256.606 20.3709C256.331 20.646 255.958 20.8005 255.568 20.8005ZM255.568 18.5339C255.41 18.5339 255.255 18.5808 255.123 18.6687C254.991 18.7566 254.889 18.8815 254.828 19.0277C254.768 19.1739 254.752 19.3347 254.783 19.4899C254.813 19.6451 254.89 19.7877 255.002 19.8995C255.114 20.0114 255.256 20.0876 255.412 20.1185C255.567 20.1493 255.728 20.1335 255.874 20.0729C256.021 20.0124 256.146 19.9099 256.234 19.7783C256.322 19.6467 256.369 19.4921 256.369 19.3339C256.369 19.1217 256.285 18.9182 256.135 18.7682C255.984 18.6181 255.78 18.5339 255.568 18.5339Z" fill="white"/>
<path opacity="0.5" d="M253.873 11.5219L255.875 13.3552C256.349 13.7885 257.063 13.0819 256.582 12.6485L254.58 10.8152C254.107 10.3819 253.393 11.0885 253.873 11.5219Z" fill="white"/>
<path opacity="0.5" d="M255.795 10.727L253.96 12.727C253.526 13.2003 254.233 13.9137 254.667 13.4337L256.502 11.4337C256.936 10.9603 256.229 10.247 255.795 10.727Z" fill="white"/>
<path opacity="0.5" d="M283.02 14.8128L281.165 16.8128C280.724 17.2861 281.432 17.9928 281.872 17.5195L283.727 15.5195C284.168 15.0461 283.46 14.3395 283.02 14.8128Z" fill="white"/>
<path opacity="0.5" d="M283.794 16.7345L281.792 14.8811C281.318 14.4411 280.611 15.1478 281.085 15.5878L283.087 17.4411C283.56 17.8811 284.268 17.1745 283.794 16.7345Z" fill="white"/>
</g>
<g opacity="0.5">
<path opacity="0.5" d="M92.7986 133.506C93.4251 133.506 93.9329 132.999 93.9329 132.373C93.9329 131.747 93.4251 131.239 92.7986 131.239C92.172 131.239 91.6642 131.747 91.6642 132.373C91.6642 132.999 92.172 133.506 92.7986 133.506Z" fill="white"/>
<path opacity="0.5" d="M108.446 128.293C109.073 128.293 109.581 127.785 109.581 127.159C109.581 126.533 109.073 126.026 108.446 126.026C107.82 126.026 107.312 126.533 107.312 127.159C107.312 127.785 107.82 128.293 108.446 128.293Z" fill="white"/>
<path opacity="0.5" d="M81.0077 137.92C80.7175 137.92 80.4332 137.834 80.1923 137.673C79.9508 137.512 79.7626 137.283 79.6512 137.015C79.5404 136.747 79.511 136.452 79.5677 136.167C79.6245 135.883 79.7646 135.622 79.9695 135.417C80.175 135.211 80.4365 135.072 80.7215 135.015C81.0064 134.959 81.3013 134.987 81.5696 135.099C81.8378 135.209 82.0667 135.397 82.2282 135.639C82.3897 135.88 82.4758 136.163 82.4758 136.453C82.4758 136.646 82.4377 136.837 82.3637 137.015C82.2903 137.193 82.1822 137.355 82.046 137.491C81.9092 137.627 81.7478 137.735 81.5696 137.809C81.3914 137.883 81.2006 137.92 81.0077 137.92ZM81.0077 135.653C80.8496 135.653 80.6948 135.701 80.5627 135.789C80.4312 135.877 80.3285 136.001 80.2677 136.147C80.207 136.294 80.1917 136.455 80.2224 136.61C80.253 136.765 80.3298 136.907 80.4412 137.019C80.5533 137.131 80.6961 137.207 80.8516 137.238C81.0071 137.269 81.1679 137.253 81.314 137.193C81.4602 137.132 81.5856 137.029 81.6737 136.898C81.7618 136.767 81.8085 136.612 81.8085 136.453C81.8085 136.241 81.7244 136.038 81.5736 135.888C81.4235 135.738 81.2199 135.653 81.0077 135.653Z" fill="white"/>
<path opacity="0.5" d="M79.3062 128.665L81.308 130.499C81.7818 130.932 82.4958 130.225 82.0153 129.792L80.0135 127.959C79.5397 127.525 78.8257 128.232 79.3062 128.665Z" fill="white"/>
<path opacity="0.5" d="M81.2279 127.847L79.3929 129.847C78.9592 130.32 79.6665 131.033 80.1002 130.553L81.9352 128.553C82.369 128.08 81.6617 127.367 81.2279 127.847Z" fill="white"/>
<path opacity="0.5" d="M108.453 131.933L106.598 133.933C106.157 134.406 106.865 135.113 107.305 134.639L109.16 132.639C109.601 132.166 108.893 131.459 108.453 131.933Z" fill="white"/>
<path opacity="0.5" d="M109.234 133.852L107.232 131.999C106.758 131.559 106.051 132.265 106.524 132.705L108.526 134.559C109 134.999 109.707 134.292 109.234 133.852Z" fill="white"/>
<path opacity="0.5" d="M192.183 133.506C192.81 133.506 193.318 132.999 193.318 132.373C193.318 131.747 192.81 131.239 192.183 131.239C191.557 131.239 191.049 131.747 191.049 132.373C191.049 132.999 191.557 133.506 192.183 133.506Z" fill="white"/>
<path opacity="0.5" d="M207.838 128.293C208.464 128.293 208.972 127.785 208.972 127.159C208.972 126.533 208.464 126.026 207.838 126.026C207.211 126.026 206.703 126.533 206.703 127.159C206.703 127.785 207.211 128.293 207.838 128.293Z" fill="white"/>
<path opacity="0.5" d="M180.392 137.92C180.102 137.92 179.818 137.834 179.577 137.673C179.335 137.512 179.147 137.283 179.036 137.015C178.925 136.747 178.896 136.452 178.952 136.167C179.009 135.883 179.149 135.622 179.354 135.417C179.56 135.211 179.821 135.072 180.106 135.015C180.391 134.959 180.686 134.987 180.954 135.099C181.222 135.209 181.452 135.397 181.613 135.639C181.774 135.88 181.86 136.163 181.86 136.453C181.86 136.843 181.706 137.216 181.431 137.491C181.155 137.766 180.782 137.92 180.392 137.92ZM180.392 135.653C180.234 135.653 180.079 135.701 179.947 135.789C179.816 135.877 179.713 136.001 179.652 136.147C179.592 136.294 179.576 136.455 179.607 136.61C179.638 136.765 179.714 136.907 179.826 137.019C179.938 137.131 180.081 137.207 180.236 137.238C180.392 137.269 180.552 137.253 180.699 137.193C180.845 137.132 180.97 137.029 181.058 136.898C181.146 136.767 181.193 136.612 181.193 136.453C181.193 136.241 181.109 136.038 180.959 135.888C180.809 135.738 180.604 135.653 180.392 135.653Z" fill="white"/>
<path opacity="0.5" d="M178.691 128.665L180.693 130.499C181.166 130.932 181.88 130.225 181.4 129.792L179.398 127.959C178.924 127.525 178.21 128.232 178.691 128.665Z" fill="white"/>
<path opacity="0.5" d="M180.613 127.847L178.777 129.847C178.344 130.32 179.051 131.033 179.485 130.553L181.32 128.553C181.754 128.08 181.046 127.367 180.613 127.847Z" fill="white"/>
<path opacity="0.5" d="M207.838 131.933L205.982 133.933C205.542 134.406 206.249 135.113 206.69 134.639L208.545 132.639C208.985 132.166 208.278 131.459 207.838 131.933Z" fill="white"/>
<path opacity="0.5" d="M208.618 133.852L206.616 131.999C206.143 131.559 205.435 132.265 205.909 132.705L207.911 134.559C208.385 134.999 209.092 134.292 208.618 133.852Z" fill="white"/>
<path opacity="0.5" d="M311.96 133.506C312.586 133.506 313.094 132.999 313.094 132.373C313.094 131.747 312.586 131.239 311.96 131.239C311.333 131.239 310.825 131.747 310.825 132.373C310.825 132.999 311.333 133.506 311.96 133.506Z" fill="white"/>
<path opacity="0.5" d="M327.608 128.293C328.234 128.293 328.742 127.785 328.742 127.159C328.742 126.533 328.234 126.026 327.608 126.026C326.981 126.026 326.473 126.533 326.473 127.159C326.473 127.785 326.981 128.293 327.608 128.293Z" fill="white"/>
<path opacity="0.5" d="M300.169 137.92C299.879 137.92 299.595 137.834 299.354 137.673C299.112 137.512 298.924 137.283 298.813 137.015C298.702 136.747 298.673 136.452 298.729 136.167C298.786 135.883 298.926 135.622 299.131 135.417C299.336 135.211 299.598 135.072 299.883 135.015C300.168 134.959 300.463 134.987 300.731 135.099C300.999 135.209 301.229 135.397 301.389 135.639C301.551 135.88 301.637 136.163 301.637 136.453C301.637 136.843 301.482 137.216 301.207 137.491C300.932 137.766 300.559 137.92 300.169 137.92ZM300.169 135.653C300.011 135.653 299.856 135.701 299.724 135.789C299.592 135.877 299.49 136.001 299.429 136.147C299.369 136.294 299.353 136.455 299.384 136.61C299.414 136.765 299.491 136.907 299.603 137.019C299.715 137.131 299.857 137.207 300.013 137.238C300.168 137.269 300.329 137.253 300.475 137.193C300.622 137.132 300.747 137.029 300.835 136.898C300.923 136.767 300.97 136.612 300.97 136.453C300.97 136.241 300.886 136.038 300.735 135.888C300.585 135.738 300.381 135.653 300.169 135.653Z" fill="white"/>
<path opacity="0.5" d="M298.467 128.665L300.469 130.499C300.943 130.932 301.657 130.225 301.177 129.792L299.175 127.959C298.701 127.525 297.987 128.232 298.467 128.665Z" fill="white"/>
<path opacity="0.5" d="M300.389 127.847L298.554 129.847C298.12 130.32 298.828 131.033 299.261 130.553L301.097 128.553C301.53 128.08 300.823 127.367 300.389 127.847Z" fill="white"/>
<path opacity="0.5" d="M327.634 131.933L325.779 133.933C325.339 134.406 326.046 135.113 326.486 134.639L328.342 132.639C328.782 132.166 328.075 131.459 327.634 131.933Z" fill="white"/>
<path opacity="0.5" d="M328.395 133.852L326.393 131.999C325.919 131.559 325.212 132.265 325.686 132.705L327.688 134.559C328.161 134.999 328.869 134.292 328.395 133.852Z" fill="white"/>
</g>
<path d="M112.57 28.1592V195.439L120.918 204.319H275.186C276.738 204.269 278.207 203.605 279.27 202.474C280.333 201.343 280.905 199.837 280.858 198.286V28.1592C280.899 26.8269 280.41 25.5329 279.496 24.5615C278.583 23.5901 277.32 23.0209 275.987 22.9792H117.441C116.108 23.0209 114.845 23.5901 113.932 24.5615C113.018 25.5329 112.529 26.8269 112.57 28.1592Z" fill="#5C6569"/>
<path d="M146.708 204.32V144.94C146.711 142.391 147.728 139.947 149.533 138.146C151.338 136.345 153.785 135.333 156.337 135.333H239.08C241.633 135.333 244.083 136.347 245.888 138.151C247.694 139.955 248.708 142.402 248.708 144.953V204.333" fill="#CEC8C2"/>
<path d="M248.695 144.94V204.32H241.355V152.273C241.352 149.724 240.335 147.281 238.53 145.479C236.725 143.679 234.278 142.667 231.726 142.667H148.983C148.288 142.667 147.594 142.743 146.915 142.893C147.388 140.748 148.581 138.829 150.296 137.453C152.011 136.079 154.145 135.331 156.344 135.333H239.086C241.634 135.339 244.076 136.353 245.877 138.153C247.678 139.954 248.692 142.395 248.695 144.94Z" fill="#B0ABA9"/>
<path d="M128.672 22.987V122.32H272.05V22.987" fill="#F9F9F9"/>
<path d="M272.05 22.987V27.6537H133.342V122.32H128.672V22.987H272.05Z" fill="#E2E2E2"/>
<path d="M180.432 142.987H162.816C161.785 142.987 160.948 143.823 160.948 144.853V195.787C160.948 196.818 161.785 197.653 162.816 197.653H180.432C181.464 197.653 182.301 196.818 182.301 195.787V144.853C182.301 143.823 181.464 142.987 180.432 142.987Z" fill="#5C6569"/>
<path d="M180.966 146.187V197.12C180.964 197.615 180.767 198.089 180.417 198.438C180.067 198.788 179.593 198.985 179.098 198.987H177.63V148.853C177.628 148.359 177.43 147.885 177.081 147.535C176.73 147.186 176.257 146.989 175.761 146.987H159.613V146.187C159.615 145.693 159.812 145.219 160.162 144.869C160.512 144.519 160.986 144.322 161.482 144.32H179.098C179.593 144.322 180.067 144.519 180.417 144.869C180.767 145.219 180.964 145.693 180.966 146.187Z" fill="#4B5356"/>
<path d="M265.577 138.667V202C265.577 203.28 264.736 204.32 263.709 204.32H262.241V141.96C262.241 140.68 261.4 139.64 260.372 139.64H244.224V138.667C244.224 137.387 245.065 136.347 246.093 136.347H263.709C264.736 136.32 265.577 137.333 265.577 138.667Z" fill="#4B5356"/>
<path d="M180.099 198.987H162.483C161.545 198.985 160.647 198.613 159.984 197.95C159.321 197.288 158.948 196.39 158.946 195.453V144.52C158.948 143.584 159.321 142.686 159.984 142.024C160.647 141.361 161.545 140.989 162.483 140.987H180.099C181.036 140.989 181.934 141.361 182.598 142.024C183.26 142.686 183.633 143.584 183.635 144.52V195.453C183.633 196.39 183.26 197.288 182.598 197.95C181.934 198.613 181.036 198.985 180.099 198.987ZM162.483 144.32C162.43 144.322 162.38 144.343 162.343 144.381C162.306 144.418 162.284 144.468 162.282 144.52V195.453C162.284 195.506 162.306 195.556 162.343 195.593C162.38 195.631 162.43 195.652 162.483 195.653H180.099C180.151 195.652 180.201 195.631 180.238 195.593C180.276 195.556 180.297 195.506 180.299 195.453V144.52C180.297 144.468 180.276 144.418 180.238 144.381C180.201 144.343 180.151 144.322 180.099 144.32H162.483Z" fill="#172D35"/>
<path d="M273.718 123.987H127.003V22.987H130.34V120.653H270.382V22.987H273.718V123.987Z" fill="#172D35"/>
<path d="M282.533 77.8727H279.196V108.539H282.533V77.8727Z" fill="#172D35"/>
<path d="M275.186 205.999H120.197L110.902 196.099V150.986H114.238V194.779L121.638 202.666H275.186C276.295 202.614 277.339 202.125 278.089 201.307C278.839 200.489 279.235 199.408 279.19 198.299V124.539H282.526V198.279C282.533 202.533 279.236 205.999 275.186 205.999Z" fill="#172D35"/>
<path d="M114.238 132.1H110.902V28.16C110.868 26.3897 111.536 24.678 112.762 23.3988C113.987 22.1197 115.67 21.3771 117.441 21.3333H275.993C277.768 21.377 279.454 22.1224 280.68 23.4059C281.906 24.6894 282.572 26.4063 282.533 28.18V66.4867H279.196V28.16C279.236 27.2702 278.921 26.4009 278.322 25.7423C277.721 25.0839 276.884 24.6899 275.993 24.6467H117.441C116.551 24.6899 115.714 25.0839 115.114 25.7423C114.513 26.4009 114.198 27.2702 114.238 28.16V132.1Z" fill="#172D35"/>
<path d="M256.769 33.3203H141.997V36.6537H256.769V33.3203Z" fill="#172D35"/>
<path d="M256.769 44.7057H141.997V48.0391H256.769V44.7057Z" fill="#172D35"/>
<path d="M256.769 56.0937H141.997V59.4271H256.769V56.0937Z" fill="#172D35"/>
<path d="M256.769 67.4867H141.997V70.82H256.769V67.4867Z" fill="#172D35"/>
<path d="M256.769 78.8727H141.997V82.206H256.769V78.8727Z" fill="#172D35"/>
<path d="M256.769 90.2607H141.997V93.594H256.769V90.2607Z" fill="#172D35"/>
<path d="M256.769 101.653H141.997V104.987H256.769V101.653Z" fill="#172D35"/>
<g opacity="0.1">
<path opacity="0.1" d="M256.769 35.987H141.997V39.3203H256.769V35.987Z" fill="#172D35"/>
<path opacity="0.1" d="M256.769 47.3724H141.997V50.7057H256.769V47.3724Z" fill="#172D35"/>
<path opacity="0.1" d="M256.769 58.7604H141.997V62.0937H256.769V58.7604Z" fill="#172D35"/>
<path opacity="0.1" d="M256.769 70.1533H141.997V73.4867H256.769V70.1533Z" fill="#172D35"/>
<path opacity="0.1" d="M256.769 81.5393H141.997V84.8727H256.769V81.5393Z" fill="#172D35"/>
<path opacity="0.1" d="M256.769 92.9273H141.997V96.2607H256.769V92.9273Z" fill="#172D35"/>
<path opacity="0.1" d="M256.769 104.32H141.997V107.653H256.769V104.32Z" fill="#172D35"/>
</g>
<path d="M123.1 28.3203H118.455C117.527 28.3203 116.774 29.0725 116.774 30.0003V34.6403C116.774 35.5681 117.527 36.3203 118.455 36.3203H123.1C124.029 36.3203 124.781 35.5681 124.781 34.6403V30.0003C124.781 29.0725 124.029 28.3203 123.1 28.3203Z" fill="#172D35"/>
<path d="M267.713 204.32H264.376V139.267C264.376 138.967 264.317 138.671 264.203 138.395C264.088 138.118 263.92 137.867 263.707 137.655C263.496 137.443 263.244 137.275 262.967 137.161C262.691 137.046 262.394 136.987 262.094 136.987H205.429V133.653H262.094C263.583 133.655 265.011 134.247 266.065 135.3C267.118 136.352 267.711 137.779 267.713 139.267V204.32Z" fill="#172D35"/>
<path d="M250.363 204.32H247.027V144.94C247.025 142.831 246.186 140.809 244.693 139.319C243.201 137.827 241.177 136.989 239.066 136.987H156.324C154.213 136.989 152.189 137.827 150.696 139.319C149.204 140.809 148.365 142.831 148.363 144.94V204.32H145.026V144.94C145.039 141.951 146.233 139.087 148.349 136.973C150.465 134.859 153.331 133.666 156.324 133.653H239.066C242.059 133.666 244.925 134.859 247.041 136.973C249.157 139.087 250.351 141.951 250.363 144.94V204.32Z" fill="#172D35"/>
<path d="M122.446 161.873V185.653C122.446 185.917 122.551 186.172 122.739 186.359C122.927 186.547 123.181 186.653 123.447 186.653C123.712 186.653 123.967 186.547 124.155 186.359C124.342 186.172 124.448 185.917 124.448 185.653V161.873C124.448 161.607 124.342 161.353 124.155 161.165C123.967 160.978 123.712 160.873 123.447 160.873C123.181 160.873 122.927 160.978 122.739 161.165C122.551 161.353 122.446 161.607 122.446 161.873Z" fill="white"/>
<path d="M122.446 148.987V154.987C122.446 155.252 122.551 155.507 122.739 155.694C122.927 155.881 123.181 155.987 123.447 155.987C123.712 155.987 123.967 155.881 124.155 155.694C124.342 155.507 124.448 155.252 124.448 154.987V148.987C124.448 148.722 124.342 148.467 124.155 148.28C123.967 148.093 123.712 147.987 123.447 147.987C123.181 147.987 122.927 148.093 122.739 148.28C122.551 148.467 122.446 148.722 122.446 148.987Z" fill="white"/>
</g>
<defs>
<linearGradient id="paint0_linear_237_1935" x1="36.9539" y1="72.88" x2="362.513" y2="72.88" gradientUnits="userSpaceOnUse">
<stop stop-color="#5B38D2"/>
<stop offset="1" stop-color="#CF4DA7"/>
</linearGradient>
<linearGradient id="paint1_linear_237_1935" x1="3098.52" y1="671.407" x2="4442.26" y2="671.407" gradientUnits="userSpaceOnUse">
<stop stop-color="#5B38D2"/>
<stop offset="1" stop-color="#CF4DA7"/>
</linearGradient>
<linearGradient id="paint2_linear_237_1935" x1="0" y1="6044.88" x2="1343.75" y2="6044.88" gradientUnits="userSpaceOnUse">
<stop stop-color="#5B38D2"/>
<stop offset="1" stop-color="#CF4DA7"/>
</linearGradient>
</defs>
</svg>
