<svg width="26" height="28" viewBox="0 0 26 28" fill="none" xmlns="http://www.w3.org/2000/svg">
<path d="M12.9998 18.9639C11.7621 18.9639 10.5751 18.4722 9.69995 17.597C8.82478 16.7219 8.33312 15.5349 8.33312 14.2972C8.33312 13.0595 8.82478 11.8725 9.69995 10.9974C10.5751 10.1222 11.7621 9.63054 12.9998 9.63054C14.2375 9.63054 15.4244 10.1222 16.2996 10.9974C17.1748 11.8725 17.6665 13.0595 17.6665 14.2972C17.6665 15.5349 17.1748 16.7219 16.2996 17.597C15.4244 18.4722 14.2375 18.9639 12.9998 18.9639ZM22.9065 15.5905C22.9598 15.1639 22.9998 14.7372 22.9998 14.2972C22.9998 13.8572 22.9598 13.4172 22.9065 12.9639L25.7198 10.7905C25.9731 10.5905 26.0398 10.2305 25.8798 9.9372L23.2131 5.32387C23.0531 5.03054 22.6931 4.91054 22.3998 5.03054L19.0798 6.36387C18.3865 5.84387 17.6665 5.39054 16.8265 5.0572L16.3331 1.52387C16.306 1.36683 16.2242 1.22444 16.1022 1.12194C15.9802 1.01944 15.8258 0.963441 15.6665 0.96387H10.3331C9.99979 0.96387 9.71979 1.20387 9.66645 1.52387L9.17312 5.0572C8.33312 5.39054 7.61312 5.84387 6.91979 6.36387L3.59979 5.03054C3.30645 4.91054 2.94645 5.03054 2.78645 5.32387L0.119786 9.9372C-0.0535475 10.2305 0.0264527 10.5905 0.279786 10.7905L3.09312 12.9639C3.03979 13.4172 2.99979 13.8572 2.99979 14.2972C2.99979 14.7372 3.03979 15.1639 3.09312 15.5905L0.279786 17.8039C0.0264527 18.0039 -0.0535475 18.3639 0.119786 18.6572L2.78645 23.2705C2.94645 23.5639 3.30645 23.6705 3.59979 23.5639L6.91979 22.2172C7.61312 22.7505 8.33312 23.2039 9.17312 23.5372L9.66645 27.0705C9.71979 27.3905 9.99979 27.6305 10.3331 27.6305H15.6665C15.9998 27.6305 16.2798 27.3905 16.3331 27.0705L16.8265 23.5372C17.6665 23.1905 18.3865 22.7505 19.0798 22.2172L22.3998 23.5639C22.6931 23.6705 23.0531 23.5639 23.2131 23.2705L25.8798 18.6572C26.0398 18.3639 25.9731 18.0039 25.7198 17.8039L22.9065 15.5905Z" fill="#7EA8A6"/>
</svg>
