<svg width="13" height="13" viewBox="0 0 13 13" fill="none" xmlns="http://www.w3.org/2000/svg">
<path d="M11.5002 0.5H2.16683C1.81321 0.5 1.47407 0.640476 1.22402 0.890524C0.973972 1.14057 0.833496 1.47971 0.833496 1.83333V11.1667C0.833496 11.5203 0.973972 11.8594 1.22402 12.1095C1.47407 12.3595 1.81321 12.5 2.16683 12.5H11.5002C11.8538 12.5 12.1929 12.3595 12.443 12.1095C12.693 11.8594 12.8335 11.5203 12.8335 11.1667V1.83333C12.8335 1.47971 12.693 1.14057 12.443 0.890524C12.1929 0.640476 11.8538 0.5 11.5002 0.5ZM9.2335 9.83333L6.8335 7.43333L4.4335 9.83333L3.50016 8.9L5.90016 6.5L3.50016 4.1L4.4335 3.16667L6.8335 5.56667L9.2335 3.16667L10.1668 4.1L7.76683 6.5L10.1668 8.9L9.2335 9.83333Z" fill="#743833"/>
</svg>
