<svg width="294" height="167" viewBox="0 0 294 167" fill="none" xmlns="http://www.w3.org/2000/svg">
<mask id="mask0_237_122" style="mask-type:luminance" maskUnits="userSpaceOnUse" x="0" y="0" width="294" height="167">
<path d="M294 0.5H3.05176e-05V166.5H294V0.5Z" fill="white"/>
</mask>
<g mask="url(#mask0_237_122)">
<path d="M22.4405 46.6781C22.1579 46.6786 21.8839 46.5797 21.6662 46.3986C21.4206 46.1946 21.265 45.9015 21.2333 45.5829C21.2016 45.2642 21.2964 44.946 21.4969 44.6973C22.1478 43.8977 22.851 43.1425 23.6018 42.4369C23.8285 42.2106 24.135 42.0835 24.4547 42.0835C24.7743 42.0835 25.0808 42.2106 25.3075 42.4369C25.4208 42.5498 25.5109 42.6843 25.5723 42.8324C25.6338 42.9804 25.6653 43.1394 25.6653 43.2997C25.6653 43.4601 25.6338 43.619 25.5723 43.7671C25.5109 43.9152 25.4208 44.0495 25.3075 44.1625C24.6384 44.7961 24.0083 45.4696 23.4203 46.1799C23.3076 46.3346 23.1602 46.4605 22.99 46.5471C22.8196 46.6337 22.6314 46.6786 22.4405 46.6781Z" fill="#183154"/>
<g opacity="0.3">
<path opacity="0.3" d="M66.0028 69.8291V158.614C66.0044 159.5 65.8313 160.377 65.4933 161.196C65.1554 162.014 64.6595 162.757 64.0341 163.382C63.4087 164.007 62.6664 164.501 61.8497 164.836C61.0332 165.171 60.1587 165.34 59.2767 165.334H47.748C49.9938 165.334 52.1477 164.437 53.7358 162.842C55.3239 161.247 56.216 159.083 56.216 156.827C56.216 154.571 55.3239 152.407 53.7358 150.812C52.1477 149.217 49.9938 148.321 47.748 148.321H8.46813C6.22225 148.321 4.06834 147.424 2.48027 145.829C0.892202 144.234 3.05176e-05 142.07 3.05176e-05 139.814C3.05176e-05 137.558 0.892202 135.394 2.48027 133.799C4.06834 132.204 6.22225 131.308 8.46813 131.308H29.9286C32.1746 131.308 34.3285 130.411 35.9165 128.816C37.5046 127.221 38.3968 125.057 38.3968 122.801C38.3968 120.545 37.5046 118.381 35.9165 116.786C34.3285 115.191 32.1746 114.294 29.9286 114.294H8.46813C6.22225 114.294 4.06834 113.398 2.48027 111.803C0.892202 110.207 3.08745e-05 108.044 3.08745e-05 105.788C3.08745e-05 103.532 0.892202 101.368 2.48027 99.7727C4.06834 98.1773 6.22225 97.281 8.46813 97.281H36.1103C38.3563 97.281 40.5102 96.3849 42.0982 94.7895C43.6863 93.1942 44.5785 91.0307 44.5785 88.7745C44.5785 86.5185 43.6863 84.3548 42.0982 82.7594C40.5102 81.1641 38.3563 80.2679 36.1103 80.2679H20.1178C17.8719 80.2679 15.718 79.3716 14.1299 77.7765C12.5419 76.1811 11.6497 74.0174 11.6497 71.7614C11.6497 69.5052 12.5419 67.3415 14.1299 65.7464C15.718 64.151 17.8719 63.2547 20.1178 63.2547H59.2767C61.0332 63.2416 62.7242 63.9242 63.9833 65.1549C65.2422 66.3855 65.9677 68.0648 66.0028 69.8291Z" fill="#BDDFE9"/>
<path opacity="0.3" d="M227.998 33.3113V122.096C227.998 123.875 228.7 125.581 229.953 126.839C231.205 128.097 232.904 128.804 234.676 128.804H246.239C243.994 128.804 241.839 127.908 240.253 126.312C238.665 124.717 237.771 122.553 237.771 120.297C237.771 118.041 238.665 115.877 240.253 114.282C241.839 112.687 243.994 111.791 246.239 111.791H285.496C287.742 111.791 289.895 110.894 291.484 109.299C293.072 107.704 293.963 105.54 293.963 103.284C293.963 101.028 293.072 98.8642 291.484 97.269C289.895 95.6737 287.742 94.7774 285.496 94.7774H264.072C261.825 94.7774 259.672 93.8812 258.084 92.2859C256.495 90.6906 255.604 88.5269 255.604 86.2708C255.604 84.0148 256.495 81.8511 258.084 80.2558C259.672 78.6604 261.825 77.7643 264.072 77.7643H285.496C287.742 77.7643 289.895 76.868 291.484 75.2726C293.072 73.6775 293.963 71.5138 293.963 69.2576C293.963 67.0016 293.072 64.8379 291.484 63.2425C289.895 61.6474 287.742 60.7511 285.496 60.7511H257.878C255.631 60.7511 253.478 59.8549 251.89 58.2596C250.302 56.6643 249.41 54.5005 249.41 52.2445C249.41 49.9883 250.302 47.8248 251.89 46.2295C253.478 44.6341 255.631 43.738 257.878 43.738H273.882C276.129 43.738 278.282 42.8417 279.87 41.2463C281.459 39.651 282.35 37.4875 282.35 35.2313C282.35 32.9753 281.459 30.8116 279.87 29.2162C278.282 27.6209 276.129 26.7247 273.882 26.7247H234.686C232.935 26.7212 231.251 27.4099 230 28.6421C228.748 29.8741 228.029 31.5513 227.998 33.3113Z" fill="#BDDFE9"/>
</g>
<path d="M234.736 91.8728H64.309V145.963H234.736V91.8728Z" fill="#8BBBC6"/>
<path d="M239.079 116.007H56.325C50.9734 116.007 46.6349 120.366 46.6349 125.742V155.259C46.6349 160.635 50.9734 164.993 56.325 164.993H239.079C244.431 164.993 248.768 160.635 248.768 155.259V125.742C248.768 120.366 244.431 116.007 239.079 116.007Z" fill="#EBEDED"/>
<path d="M235.981 85.1163H65.5551V111.353H235.981V85.1163Z" fill="#6798A0"/>
<path d="M22.9848 67.8356C22.9848 63.3444 24.3083 58.9536 26.7883 55.2167C29.2683 51.4797 32.794 48.5639 36.921 46.8365C36.5947 45.1019 36.4326 43.34 36.4371 41.5746C36.5316 34.6457 39.0789 27.9772 43.6226 22.7632C48.1663 17.5495 54.4097 14.1311 61.234 13.1207C68.0586 12.1102 75.0181 13.5736 80.866 17.2487C86.7141 20.9239 91.0685 26.5707 93.1491 33.1774C95.4029 32.6292 97.7135 32.352 100.032 32.351C112.275 32.351 107.412 48.6594 111.646 59.4505C112.952 62.7559 129.005 57.6884 129.005 61.4558C129.005 69.1909 125.946 76.6093 120.502 82.0788C115.057 87.5483 107.672 90.6211 99.972 90.6211L48.8609 91.8728V74.0211" fill="#BDDFE9"/>
<path d="M60.6073 22.702L55.0668 19.7977L48.8488 20.3566L51.74 14.7909L51.1835 8.54468L56.7241 11.4491L62.9421 10.8901L60.0509 16.4558L60.6073 22.702Z" fill="#EEF0F1"/>
<path d="M47.869 45.4512C49.0249 45.4512 49.9619 44.5099 49.9619 43.3488C49.9619 42.1877 49.0249 41.2465 47.869 41.2465C46.7132 41.2465 45.7762 42.1877 45.7762 43.3488C45.7762 44.5099 46.7132 45.4512 47.869 45.4512Z" fill="#EEF0F1"/>
<path d="M192.782 71.4084C197.171 71.3957 201.418 69.8577 204.806 67.0556C208.195 64.2536 210.512 60.3603 211.368 56.0364C212.223 51.7126 211.561 47.2249 209.498 43.3351C207.432 39.4452 204.091 36.3929 200.041 34.6964C200.309 33.2376 200.443 31.7567 200.439 30.273C200.435 24.4127 198.334 18.7494 194.519 14.3154C190.704 9.8815 185.431 6.97217 179.659 6.11783C173.887 5.26349 168.002 6.52102 163.077 9.66118C158.151 12.8013 154.513 17.615 152.825 23.2247C150.934 22.7711 148.998 22.5386 147.055 22.532C143.86 22.532 140.696 23.1641 137.745 24.3923C134.793 25.6204 132.111 27.4206 129.852 29.6899C127.593 31.9592 125.801 34.6531 124.579 37.6181C123.356 40.5831 122.727 43.761 122.727 46.9703C122.727 50.1796 123.356 53.3573 124.579 56.3223C125.801 59.2873 127.593 61.9814 129.852 64.2507C132.111 66.52 134.793 68.3202 137.745 69.5483C140.696 70.7765 143.86 71.4084 147.055 71.4084H192.782Z" fill="white"/>
<path d="M209.562 51.0047C209.558 55.9563 207.597 60.7042 204.111 64.2044C200.624 67.7046 195.896 69.6706 190.968 69.6706H146.208C142.205 69.6752 138.265 68.6626 134.756 66.727C131.247 64.7914 128.283 61.9957 126.138 58.6C129.952 61.0513 134.386 62.3506 138.913 62.3428H183.672C188.602 62.3428 193.33 60.3766 196.817 56.8764C200.303 53.3763 202.264 48.6286 202.266 43.677C202.273 40.5266 201.477 37.427 199.957 34.6722C202.867 36.2797 205.296 38.6441 206.985 41.5173C208.674 44.3907 209.564 47.6676 209.562 51.0047Z" fill="#BDDFE9"/>
<path d="M191.632 71.0564H146.873C143.399 71.0291 139.97 70.2754 136.802 68.8435C133.634 67.4114 130.798 65.3324 128.474 62.7389C126.15 60.1453 124.389 57.0939 123.304 53.7791C122.218 50.4644 121.832 46.9589 122.169 43.486C122.506 40.0129 123.56 36.6487 125.263 33.6071C126.966 30.5656 129.28 27.9137 132.06 25.8203C134.839 23.7268 138.021 22.2376 141.405 21.4478C144.788 20.6578 148.299 20.5842 151.712 21.232C153.64 15.5853 157.508 10.8132 162.621 7.771C167.734 4.72883 173.759 3.61553 179.615 4.63061C185.471 5.6457 190.777 8.72284 194.579 13.3105C198.381 17.8981 200.434 23.6962 200.368 29.6656C200.371 30.8855 200.287 32.104 200.113 33.3113C204.179 35.242 207.467 38.5056 209.439 42.5648C211.41 46.624 211.948 51.2366 210.963 55.6436C209.976 60.0504 207.526 63.9887 204.015 66.81C200.503 69.6313 196.142 71.1675 191.645 71.1656L191.632 71.0564ZM146.873 23.2371C140.972 23.3744 135.358 25.8255 131.233 30.0667C127.108 34.3077 124.798 40.0018 124.798 45.9314C124.798 51.861 127.108 57.5553 131.233 61.7963C135.358 66.0375 140.972 68.4886 146.873 68.6259H191.632C195.647 68.618 199.535 67.2146 202.636 64.654C205.738 62.0933 207.861 58.5332 208.646 54.5783C209.431 50.6233 208.83 46.5173 206.944 42.9574C205.057 39.3975 202.003 36.6033 198.299 35.0491L197.391 34.6602L197.572 33.6881C197.827 32.3422 197.954 30.975 197.948 29.605C197.943 24.1648 195.991 18.9075 192.452 14.7911C188.91 10.6748 184.015 7.97359 178.658 7.17972C173.3 6.38583 167.837 7.55218 163.264 10.4662C158.691 13.3802 155.312 17.8478 153.744 23.0549L153.405 24.1607L152.292 23.8812C150.534 23.454 148.731 23.2379 146.921 23.2371H146.873Z" fill="#183154"/>
<path d="M239.429 59.4749H56.6758C51.3242 59.4749 46.9859 63.8329 46.9859 69.2088V98.7266C46.9859 104.103 51.3242 108.461 56.6758 108.461H239.429C244.781 108.461 249.119 104.103 249.119 98.7266V69.2088C249.119 63.8329 244.781 59.4749 239.429 59.4749Z" fill="white"/>
<path d="M240.312 58.6484H57.5589C52.2073 58.6484 47.869 63.0066 47.869 68.3824V97.9003C47.869 103.276 52.2073 107.634 57.5589 107.634H240.312C245.663 107.634 250.003 103.276 250.003 97.9003V68.3824C250.003 63.0066 245.663 58.6484 240.312 58.6484Z" fill="#EBEDED"/>
<path d="M132.489 58.9403C132.489 66.6754 129.43 74.0936 123.985 79.5633C118.541 85.0328 111.156 88.1056 103.456 88.1056H49.0181H48.0502V82.1145H94.6247C101.37 82.1167 107.904 79.7525 113.099 75.4305C118.294 71.1084 121.823 65.0996 123.078 58.4419H132.477C132.489 58.6 132.489 58.8308 132.489 58.9403Z" fill="#C5D1D1"/>
<path d="M64.3092 91.2044C69.0594 91.2044 72.9104 87.3361 72.9104 82.5641C72.9104 77.7923 69.0594 73.9238 64.3092 73.9238C59.559 73.9238 55.708 77.7923 55.708 82.5641C55.708 87.3361 59.559 91.2044 64.3092 91.2044Z" fill="white"/>
<path d="M90.1007 91.2044C94.8509 91.2044 98.7019 87.3361 98.7019 82.5641C98.7019 77.7923 94.8509 73.9238 90.1007 73.9238C85.3504 73.9238 81.4995 77.7923 81.4995 82.5641C81.4995 87.3361 85.3504 91.2044 90.1007 91.2044Z" fill="white"/>
<path d="M248.877 68.3945V97.9003C248.877 100.479 247.857 102.951 246.043 104.775C244.227 106.598 241.766 107.622 239.2 107.622H185.548C184.255 107.622 183.015 107.106 182.101 106.188C181.187 105.269 180.673 104.024 180.673 102.725C180.673 101.426 181.187 100.18 182.101 99.2617C183.015 98.3432 184.255 97.8274 185.548 97.8274H234.881C236.174 97.8274 237.414 97.3113 238.329 96.3929C239.242 95.4744 239.756 94.2288 239.756 92.9299C239.756 91.631 239.242 90.3854 238.329 89.4669C237.414 88.5485 236.174 88.0326 234.881 88.0326H203.429C202.789 88.0326 202.154 87.9059 201.562 87.6597C200.971 87.4138 200.434 87.053 199.981 86.5981C199.528 86.1434 199.168 85.6036 198.924 85.0094C198.678 84.4153 198.552 83.7783 198.552 83.1352C198.552 82.4922 198.678 81.8553 198.924 81.2611C199.168 80.6669 199.528 80.1271 199.981 79.6722C200.434 79.2175 200.971 78.8568 201.562 78.6106C202.154 78.3645 202.789 78.2379 203.429 78.2379H218.538C219.832 78.2379 221.074 77.7213 221.989 76.8017C222.904 75.8822 223.418 74.6349 223.418 73.3344C223.418 72.034 222.904 70.7867 221.989 69.8671C221.074 68.9476 219.832 68.431 218.538 68.431H196.109C194.816 68.431 193.576 67.9149 192.663 66.9965C191.747 66.0781 191.234 64.8324 191.234 63.5337C191.234 62.2348 191.747 60.9892 192.663 60.0708C193.576 59.1523 194.816 58.6363 196.109 58.6363H239.174C240.451 58.6331 241.715 58.8833 242.894 59.3729C244.073 59.8622 245.146 60.5811 246.047 61.4879C246.949 62.3949 247.662 63.472 248.149 64.6574C248.635 65.8426 248.882 67.1128 248.877 68.3945Z" fill="#C5D1D1"/>
<path d="M155.571 60.1555H147.708C147.387 60.1555 147.079 60.0275 146.853 59.7996C146.626 59.5719 146.498 59.2627 146.498 58.9403C146.498 58.618 146.626 58.3089 146.853 58.081C147.079 57.8531 147.387 57.7252 147.708 57.7252H155.571C155.892 57.7252 156.2 57.8531 156.427 58.081C156.653 58.3089 156.781 58.618 156.781 58.9403C156.781 59.2627 156.653 59.5719 156.427 59.7996C156.2 60.0275 155.892 60.1555 155.571 60.1555Z" fill="#183154"/>
<path d="M239.598 109.154H56.8572C53.9697 109.154 51.2002 108.002 49.1585 105.95C47.1167 103.899 45.9697 101.117 45.9697 98.2168V68.6867C45.9697 65.786 47.1167 63.0042 49.1585 60.953C51.2002 58.9021 53.9697 57.7496 56.8572 57.7496H139.191C139.512 57.7496 139.82 57.8777 140.047 58.1056C140.273 58.3335 140.401 58.6426 140.401 58.9649C140.401 59.2873 140.273 59.5963 140.047 59.8242C139.82 60.0521 139.512 60.1801 139.191 60.1801H56.8572C54.6112 60.1801 52.4573 61.0765 50.8694 62.6716C49.2812 64.2669 48.389 66.4306 48.389 68.6867V98.1925C48.389 100.448 49.2812 102.612 50.8694 104.208C52.4573 105.803 54.6112 106.699 56.8572 106.699H239.598C241.845 106.699 243.998 105.803 245.586 104.208C247.175 102.612 248.066 100.448 248.066 98.1925V68.6867C248.066 66.4306 247.175 64.2669 245.586 62.6716C243.998 61.0765 241.845 60.1801 239.598 60.1801H170.572C170.251 60.1801 169.943 60.0521 169.716 59.8242C169.489 59.5963 169.362 59.2873 169.362 58.9649C169.362 58.6426 169.489 58.3335 169.716 58.1056C169.943 57.8777 170.251 57.7496 170.572 57.7496H239.611C242.498 57.7496 245.267 58.9021 247.308 60.953C249.352 63.0042 250.498 65.786 250.498 68.6867V98.1925C250.502 99.6317 250.221 101.058 249.674 102.388C249.128 103.719 248.326 104.928 247.314 105.946C246.302 106.964 245.098 107.772 243.774 108.323C242.45 108.873 241.03 109.155 239.598 109.154Z" fill="#183154"/>
<path d="M162.793 60.1555H159.962C159.641 60.1555 159.334 60.0275 159.107 59.7996C158.88 59.5719 158.753 59.2627 158.753 58.9403C158.753 58.618 158.88 58.3089 159.107 58.081C159.334 57.8531 159.641 57.7252 159.962 57.7252H162.793C163.114 57.7252 163.421 57.8531 163.648 58.081C163.875 58.3089 164.003 58.618 164.003 58.9403C164.003 59.2627 163.875 59.5719 163.648 59.7996C163.421 60.0275 163.114 60.1555 162.793 60.1555Z" fill="#183154"/>
<path d="M248.066 126.969V156.474C248.066 159.053 247.046 161.526 245.232 163.349C243.417 165.172 240.955 166.196 238.389 166.196H184.738C183.445 166.196 182.204 165.68 181.29 164.762C180.376 163.843 179.862 162.598 179.862 161.299C179.862 160 180.376 158.754 181.29 157.836C182.204 156.917 183.445 156.401 184.738 156.401H234.07C235.363 156.401 236.603 155.885 237.516 154.967C238.432 154.049 238.945 152.803 238.945 151.504C238.945 150.205 238.432 148.96 237.516 148.041C236.603 147.123 235.363 146.607 234.07 146.607H202.618C201.325 146.607 200.083 146.091 199.17 145.172C198.255 144.254 197.741 143.008 197.741 141.709C197.741 140.411 198.255 139.165 199.17 138.246C200.083 137.328 201.325 136.812 202.618 136.812H217.751C219.046 136.812 220.287 136.295 221.202 135.376C222.118 134.456 222.631 133.209 222.631 131.909C222.631 130.608 222.118 129.361 221.202 128.441C220.287 127.522 219.046 127.005 217.751 127.005H195.298C194.005 127.005 192.765 126.489 191.85 125.571C190.937 124.652 190.423 123.407 190.423 122.108C190.423 120.809 190.937 119.563 191.85 118.645C192.765 117.726 194.005 117.21 195.298 117.21H238.316C239.596 117.201 240.865 117.446 242.05 117.933C243.235 118.419 244.312 119.137 245.22 120.045C246.126 120.952 246.844 122.032 247.334 123.22C247.822 124.409 248.071 125.683 248.066 126.969Z" fill="#C5D1D1"/>
<path d="M225.36 59.2196C225.039 59.2196 224.731 59.0916 224.506 58.8637C224.278 58.6358 224.15 58.3266 224.15 58.0044V31.1842C224.15 30.862 224.278 30.5528 224.506 30.3249C224.731 30.097 225.039 29.969 225.36 29.969C225.681 29.969 225.989 30.097 226.215 30.3249C226.442 30.5528 226.571 30.862 226.571 31.1842V58.0044C226.571 58.3266 226.442 58.6358 226.215 58.8637C225.989 59.0916 225.681 59.2196 225.36 59.2196Z" fill="#183154"/>
<path d="M235.316 59.5233C234.995 59.5233 234.688 59.3952 234.461 59.1673C234.233 58.9394 234.107 58.6303 234.107 58.308V8.77541C234.107 8.45312 234.233 8.14402 234.461 7.91611C234.688 7.68821 234.995 7.56018 235.316 7.56018C235.637 7.56018 235.945 7.68821 236.172 7.91611C236.398 8.14402 236.526 8.45312 236.526 8.77541V58.308C236.526 58.6303 236.398 58.9394 236.172 59.1673C235.945 59.3952 235.637 59.5233 235.316 59.5233Z" fill="#183154"/>
<path d="M234.736 11.3646C237.562 11.3646 239.853 9.06311 239.853 6.22414C239.853 3.38518 237.562 1.08374 234.736 1.08374C231.91 1.08374 229.619 3.38518 229.619 6.22414C229.619 9.06311 231.91 11.3646 234.736 11.3646Z" fill="#FFADAD"/>
<path d="M235.158 13.1991C233.907 13.2015 232.682 12.8304 231.638 12.133C230.597 11.4356 229.784 10.4431 229.304 9.28124C228.823 8.11941 228.696 6.84049 228.94 5.60649C229.184 4.37249 229.788 3.2389 230.674 2.34932C231.558 1.45974 232.687 0.854171 233.916 0.609326C235.143 0.36448 236.416 0.491367 237.573 0.973916C238.731 1.45646 239.717 2.27296 240.412 3.32C241.106 4.36704 241.476 5.59752 241.474 6.85558C241.471 8.53699 240.803 10.1486 239.62 11.3375C238.437 12.5265 236.832 13.1958 235.158 13.1991ZM235.158 2.93039C234.386 2.92799 233.628 3.15614 232.984 3.58599C232.341 4.01582 231.838 4.62801 231.539 5.34504C231.242 6.06204 231.163 6.85166 231.314 7.61386C231.462 8.37607 231.833 9.07661 232.379 9.62677C232.926 10.1769 233.621 10.552 234.38 10.7044C235.138 10.8569 235.924 10.7798 236.64 10.4831C237.353 10.1864 237.964 9.68329 238.395 9.03755C238.824 8.39179 239.053 7.63243 239.053 6.85558C239.053 5.81665 238.644 4.8201 237.914 4.08434C237.184 3.34858 236.192 2.93361 235.158 2.93039Z" fill="#183154"/>
<path d="M174.939 130.809H147.938C143.187 130.809 139.336 134.677 139.336 139.449V139.461C139.336 144.233 143.187 148.101 147.938 148.101H174.939C179.689 148.101 183.54 144.233 183.54 139.461V139.449C183.54 134.677 179.689 130.809 174.939 130.809Z" fill="#7DADB5"/>
<path d="M174.927 149.305H147.938C145.336 149.305 142.84 148.266 141 146.418C139.16 144.57 138.127 142.063 138.127 139.449C138.127 136.835 139.16 134.329 141 132.48C142.84 130.632 145.336 129.594 147.938 129.594H174.927C177.529 129.594 180.024 130.632 181.864 132.48C183.703 134.329 184.738 136.835 184.738 139.449C184.738 142.063 183.703 144.57 181.864 146.418C180.024 148.266 177.529 149.305 174.927 149.305ZM147.938 132.024C145.977 132.024 144.097 132.806 142.711 134.199C141.325 135.591 140.546 137.48 140.546 139.449C140.546 141.419 141.325 143.307 142.711 144.699C144.097 146.092 145.977 146.874 147.938 146.874H174.927C176.887 146.874 178.767 146.092 180.153 144.699C181.539 143.307 182.318 141.419 182.318 139.449C182.318 137.48 181.539 135.591 180.153 134.199C178.767 132.806 176.887 132.024 174.927 132.024H147.938Z" fill="#183154"/>
<path d="M64.5027 92.4322C62.5593 92.4346 60.659 91.8579 59.0419 90.7751C57.425 89.6921 56.1641 88.1519 55.4188 86.3491C54.6734 84.5461 54.4771 82.5617 54.8548 80.6469C55.2326 78.7319 56.167 76.9726 57.5404 75.5914C58.9137 74.2101 60.664 73.269 62.5698 72.8873C64.4755 72.5055 66.4512 72.7003 68.2469 73.4468C70.0425 74.1933 71.5774 75.458 72.6573 77.0811C73.7372 78.7041 74.3136 80.6123 74.3136 82.5645C74.3136 85.1794 73.2803 87.6874 71.4407 89.5376C69.6012 91.3879 67.1058 92.4288 64.5027 92.4322ZM64.5027 75.1394C63.0374 75.137 61.6043 75.5715 60.385 76.3878C59.1656 77.204 58.2148 78.3655 57.653 79.725C57.091 81.0843 56.9434 82.5807 57.2288 84.0246C57.514 85.4683 58.2194 86.7946 59.2554 87.8356C60.2917 88.8763 61.612 89.5849 63.0492 89.8714C64.4865 90.1581 65.9762 90.0098 67.3293 89.4453C68.6827 88.8809 69.8389 87.9258 70.6514 86.7008C71.464 85.476 71.8965 84.0364 71.8941 82.5645C71.8908 80.5962 71.1112 78.7094 69.7257 77.3177C68.3403 75.9259 66.462 75.1426 64.5027 75.1394Z" fill="#183154"/>
<path d="M90.2942 92.4322C88.3508 92.4346 86.4505 91.8579 84.8334 90.7751C83.2165 89.6921 81.9556 88.1519 81.2102 86.3491C80.4649 84.5461 80.2686 82.5617 80.6463 80.6469C81.0241 78.7319 81.9585 76.9726 83.3319 75.5914C84.7052 74.2101 86.4555 73.269 88.3612 72.8873C90.267 72.5055 92.2427 72.7003 94.0384 73.4468C95.8339 74.1933 97.3689 75.458 98.4488 77.0811C99.5287 78.7041 100.105 80.6123 100.105 82.5645C100.105 85.1794 99.0718 87.6874 97.2322 89.5376C95.3927 91.3879 92.8972 92.4288 90.2942 92.4322ZM90.2942 75.1394C88.8289 75.137 87.3958 75.5715 86.1765 76.3878C84.957 77.204 84.0063 78.3655 83.4445 79.725C82.8825 81.0843 82.7349 82.5807 83.0203 84.0246C83.3055 85.4683 84.0109 86.7946 85.0469 87.8356C86.0832 88.8763 87.4035 89.5849 88.8407 89.8714C90.278 90.1581 91.7675 90.0098 93.1208 89.4453C94.4742 88.8809 95.6304 87.9258 96.4429 86.7008C97.2555 85.476 97.688 84.0364 97.6856 82.5645C97.6823 80.5962 96.9027 78.7094 95.5172 77.3177C94.1318 75.9259 92.2535 75.1426 90.2942 75.1394Z" fill="#183154"/>
<path d="M116.086 91.2044C120.836 91.2044 124.687 87.3361 124.687 82.5641C124.687 77.7923 120.836 73.9238 116.086 73.9238C111.335 73.9238 107.484 77.7923 107.484 82.5641C107.484 87.3361 111.335 91.2044 116.086 91.2044Z" fill="#EEF0F1"/>
<path d="M117.138 92.5291C115.197 92.5171 113.304 91.9279 111.696 90.8357C110.088 89.7437 108.839 88.1978 108.105 86.3929C107.371 84.5881 107.186 82.6053 107.572 80.695C107.959 78.7844 108.901 77.0319 110.278 75.6584C111.655 74.2851 113.407 73.3523 115.311 72.9777C117.216 72.6032 119.189 72.804 120.98 73.5544C122.771 74.3048 124.301 75.5714 125.376 77.1944C126.451 78.8174 127.024 80.7241 127.021 82.6735C127.02 83.9735 126.762 85.2604 126.264 86.4602C125.766 87.66 125.037 88.749 124.119 89.6647C123.2 90.5805 122.111 91.305 120.913 91.7965C119.715 92.2881 118.432 92.5372 117.138 92.5291ZM117.138 75.2363C115.676 75.2485 114.251 75.6947 113.041 76.5192C111.832 77.3436 110.892 78.5093 110.341 79.8694C109.79 81.2293 109.652 82.7227 109.944 84.1614C110.237 85.6 110.947 86.9195 111.985 87.9536C113.022 88.9876 114.342 89.6899 115.776 89.972C117.21 90.2541 118.696 90.1034 120.045 89.5387C121.395 88.974 122.547 88.0207 123.358 86.799C124.169 85.5773 124.602 84.1419 124.602 82.6735C124.602 81.6917 124.408 80.7197 124.033 79.8134C123.657 78.9071 123.106 78.0845 122.412 77.393C121.718 76.7018 120.895 76.1551 119.99 75.785C119.084 75.4148 118.115 75.2284 117.138 75.2363Z" fill="#183154"/>
<path d="M228.456 74.0211H153.067C148.317 74.0211 144.466 77.8894 144.466 82.6614V82.6736C144.466 87.4454 148.317 91.3137 153.067 91.3137H228.456C233.208 91.3137 237.058 87.4454 237.058 82.6736V82.6614C237.058 77.8894 233.208 74.0211 228.456 74.0211Z" fill="#EEF0F1"/>
<path d="M227.429 92.48H152.063C150.745 92.5265 149.431 92.3057 148.199 91.8311C146.968 91.3565 145.844 90.6376 144.895 89.7172C143.946 88.7969 143.192 87.694 142.676 86.4744C142.161 85.2549 141.895 83.9435 141.895 82.6184C141.895 81.2934 142.161 79.9819 142.676 78.7625C143.192 77.5428 143.946 76.4399 144.895 75.5197C145.844 74.5992 146.968 73.8803 148.199 73.4057C149.431 72.9311 150.745 72.7104 152.063 72.7568H227.429C228.748 72.7104 230.061 72.9311 231.292 73.4057C232.524 73.8803 233.647 74.5992 234.597 75.5197C235.545 76.4399 236.3 77.5428 236.816 78.7625C237.331 79.9819 237.597 81.2934 237.597 82.6184C237.597 83.9435 237.331 85.2549 236.816 86.4744C236.3 87.694 235.545 88.7969 234.597 89.7172C233.647 90.6376 232.524 91.3565 231.292 91.8311C230.061 92.3057 228.748 92.5265 227.429 92.48ZM152.063 75.1873C151.066 75.1468 150.072 75.3091 149.139 75.6643C148.206 76.0195 147.355 76.5602 146.635 77.2543C145.916 77.9483 145.344 78.7812 144.952 79.703C144.562 80.6247 144.36 81.6165 144.36 82.6184C144.36 83.6203 144.562 84.6121 144.952 85.5338C145.344 86.4556 145.916 87.2885 146.635 87.9825C147.355 88.6766 148.206 89.2173 149.139 89.5725C150.072 89.9278 151.066 90.0901 152.063 90.0495H227.429C228.425 90.0901 229.419 89.9278 230.353 89.5725C231.284 89.2173 232.137 88.6766 232.856 87.9825C233.575 87.2885 234.147 86.4556 234.54 85.5338C234.93 84.6121 235.132 83.6203 235.132 82.6184C235.132 81.6165 234.93 80.6247 234.54 79.703C234.147 78.7812 233.575 77.9483 232.856 77.2543C232.137 76.5602 231.284 76.0195 230.353 75.6643C229.419 75.3091 228.425 75.1468 227.429 75.1873H152.063Z" fill="#183154"/>
<path d="M64.5029 117.223C64.1819 117.223 63.8743 117.095 63.6475 116.867C63.4206 116.639 63.2931 116.33 63.2931 116.008V108.327C63.2931 108.005 63.4206 107.696 63.6475 107.468C63.8743 107.24 64.1819 107.112 64.5029 107.112C64.8236 107.112 65.1314 107.24 65.3583 107.468C65.5851 107.696 65.7124 108.005 65.7124 108.327V116.008C65.7124 116.33 65.5851 116.639 65.3583 116.867C65.1314 117.095 64.8236 117.223 64.5029 117.223Z" fill="#183154"/>
<path d="M234.686 117.223C234.366 117.223 234.059 117.095 233.832 116.867C233.604 116.639 233.478 116.33 233.478 116.008V108.327C233.478 108.005 233.604 107.696 233.832 107.468C234.059 107.24 234.366 107.112 234.686 107.112C235.007 107.112 235.316 107.24 235.543 107.468C235.769 107.696 235.897 108.005 235.897 108.327V116.008C235.897 116.33 235.769 116.639 235.543 116.867C235.316 117.095 235.007 117.223 234.686 117.223Z" fill="#183154"/>
<path d="M39.5943 82.9771C34.3535 82.9856 29.2722 81.167 25.2175 77.8315C21.1629 74.496 18.3859 69.8504 17.3609 64.6875C16.3359 59.5245 17.1261 54.1642 19.5968 49.5214C22.0675 44.8786 26.0655 41.2408 30.9085 39.229C30.5821 37.4942 30.4201 35.7324 30.4245 33.967C30.5472 27.0587 33.1076 20.4187 37.6491 15.2297C42.1906 10.0408 48.4183 6.63996 55.2231 5.63322C62.0278 4.62649 68.9671 6.07921 74.8051 9.73257C80.643 13.3859 85.0001 19.0026 87.1003 25.582C89.3718 25.0464 91.6989 24.7852 94.032 24.8042C101.411 25.2587 108.339 28.5236 113.404 33.9331C118.468 39.3423 121.288 46.4888 121.288 53.915C121.288 61.3411 118.468 68.4876 113.404 73.8969C108.339 79.3063 101.411 82.5712 94.032 83.0258L39.5943 82.9771Z" fill="#FFADAD"/>
<path opacity="0.7" d="M109.589 28.6326C112.309 33.0429 113.809 38.1021 113.934 43.2887C114.058 48.4752 112.804 53.6013 110.299 58.1384C107.794 62.6755 104.13 66.4592 99.6842 69.0994C95.2384 71.7397 90.172 73.1408 85.0075 73.1585H30.5696C26.8342 73.1596 23.1563 72.2327 19.8636 70.4607C21.8015 74.0814 24.6795 77.1073 28.1919 79.2171C31.7042 81.3266 35.7197 82.4414 39.812 82.4429H94.2497C100.524 82.4026 106.617 80.3214 111.615 76.5111C116.613 72.7009 120.248 67.3666 121.976 61.3071C123.703 55.2477 123.43 48.7891 121.197 42.8986C118.964 37.0083 114.891 32.0031 109.589 28.6326Z" fill="#99394C"/>
<path d="M52.7924 12.543C53.2736 12.543 53.7353 12.351 54.0755 12.0091C54.4159 11.6673 54.607 11.2036 54.607 10.7202C54.607 10.2367 54.4159 9.77309 54.0755 9.43125C53.7353 9.08939 53.2736 8.89734 52.7924 8.89734C52.3111 8.89734 51.8495 9.08939 51.5093 9.43125C51.169 9.77309 50.9778 10.2367 50.9778 10.7202C50.9778 11.2036 51.169 11.6673 51.5093 12.0091C51.8495 12.351 52.3111 12.543 52.7924 12.543Z" fill="#FDFEFF"/>
<path d="M41.6631 21.2196C43.3846 18.9778 45.4657 17.0394 47.8206 15.4838C49.2723 14.5116 47.9053 12.1419 46.4537 13.1263C43.7108 14.9411 41.2935 17.2091 39.3041 19.8343C38.2518 21.244 40.6107 22.6051 41.6631 21.2196Z" fill="#FDFEFF"/>
<path d="M180.842 127.807C182.967 127.807 184.69 126.077 184.69 123.942C184.69 121.808 182.967 120.078 180.842 120.078C178.718 120.078 176.995 121.808 176.995 123.942C176.995 126.077 178.718 127.807 180.842 127.807Z" fill="#C5D1D1"/>
<path opacity="0.5" d="M172.664 127.114C173.727 127.114 174.588 126.249 174.588 125.182C174.588 124.115 173.727 123.25 172.664 123.25C171.602 123.25 170.741 124.115 170.741 125.182C170.741 126.249 171.602 127.114 172.664 127.114Z" fill="#C5D1D1"/>
<path d="M181.653 69.2455C183.777 69.2455 185.499 67.5153 185.499 65.381C185.499 63.2466 183.777 61.5166 181.653 61.5166C179.528 61.5166 177.806 63.2466 177.806 65.381C177.806 67.5153 179.528 69.2455 181.653 69.2455Z" fill="#C5D1D1"/>
<path opacity="0.5" d="M173.475 68.5527C174.537 68.5527 175.398 67.6875 175.398 66.6204C175.398 65.5532 174.537 64.6882 173.475 64.6882C172.413 64.6882 171.552 65.5532 171.552 66.6204C171.552 67.6875 172.413 68.5527 173.475 68.5527Z" fill="#C5D1D1"/>
<path d="M58.1517 127.722C59.8687 127.722 61.2606 126.324 61.2606 124.599C61.2606 122.874 59.8687 121.476 58.1517 121.476C56.4347 121.476 55.0426 122.874 55.0426 124.599C55.0426 126.324 56.4347 127.722 58.1517 127.722Z" fill="white"/>
<path opacity="0.5" d="M54.1958 131.575C55.0576 131.575 55.7564 130.873 55.7564 130.007C55.7564 129.141 55.0576 128.439 54.1958 128.439C53.334 128.439 52.6352 129.141 52.6352 130.007C52.6352 130.873 53.334 131.575 54.1958 131.575Z" fill="white"/>
<path d="M72.9709 127.309C74.6879 127.309 76.0798 125.911 76.0798 124.186C76.0798 122.461 74.6879 121.063 72.9709 121.063C71.2539 121.063 69.8618 122.461 69.8618 124.186C69.8618 125.911 71.2539 127.309 72.9709 127.309Z" fill="white"/>
<path opacity="0.5" d="M66.2931 125.559C67.1549 125.559 67.8537 124.857 67.8537 123.991C67.8537 123.125 67.1549 122.424 66.2931 122.424C65.4313 122.424 64.7325 123.125 64.7325 123.991C64.7325 124.857 65.4313 125.559 66.2931 125.559Z" fill="white"/>
<path d="M139.203 75.0902C142.103 75.0902 144.454 72.729 144.454 69.8162C144.454 66.9033 142.103 64.5421 139.203 64.5421C136.304 64.5421 133.953 66.9033 133.953 69.8162C133.953 72.729 136.304 75.0902 139.203 75.0902Z" fill="white"/>
<path opacity="0.5" d="M136.977 82.5647C138.427 82.5647 139.603 81.3841 139.603 79.9277C139.603 78.4713 138.427 77.2906 136.977 77.2906C135.528 77.2906 134.352 78.4713 134.352 79.9277C134.352 81.3841 135.528 82.5647 136.977 82.5647Z" fill="white"/>
<path d="M65.7122 148.089C70.4626 148.089 74.3134 144.221 74.3134 139.449C74.3134 134.677 70.4626 130.809 65.7122 130.809C60.962 130.809 57.1112 134.677 57.1112 139.449C57.1112 144.221 60.962 148.089 65.7122 148.089Z" fill="#FFADAD"/>
<path opacity="0.7" d="M73.9989 138.926C73.9785 140.8 73.352 142.617 72.214 144.102C71.076 145.587 69.488 146.66 67.6897 147.159C65.8914 147.659 63.9803 147.557 62.2446 146.87C60.5088 146.183 59.0425 144.947 58.067 143.35C59.3926 144.15 60.9114 144.57 62.4582 144.565C64.7393 144.565 66.9271 143.655 68.5402 142.034C70.1532 140.414 71.0593 138.216 71.0593 135.925C71.0648 134.371 70.6464 132.845 69.8497 131.513C71.1205 132.283 72.1709 133.37 72.8983 134.67C73.6255 135.969 74.0048 137.436 73.9989 138.926Z" fill="#99394C"/>
<path d="M65.5552 149.414C63.6124 149.414 61.7133 148.835 60.0978 147.751C58.4824 146.667 57.2235 145.126 56.48 143.322C55.7364 141.519 55.542 139.535 55.9209 137.621C56.3 135.707 57.2356 133.949 58.6093 132.569C59.983 131.189 61.7334 130.249 63.6388 129.868C65.5442 129.488 67.5193 129.683 69.3143 130.43C71.1092 131.177 72.6433 132.441 73.7227 134.064C74.802 135.687 75.3781 137.595 75.3781 139.546C75.3781 142.163 74.3433 144.673 72.501 146.524C70.6589 148.374 68.1603 149.414 65.5552 149.414ZM65.5552 132.121C64.0904 132.121 62.6585 132.558 61.4407 133.376C60.2231 134.193 59.2741 135.356 58.714 136.715C58.1541 138.075 58.0081 139.571 58.2948 141.014C58.5814 142.457 59.2877 143.782 60.3243 144.822C61.3609 145.861 62.6813 146.569 64.1183 146.854C65.5552 147.14 67.0441 146.991 68.3968 146.426C69.7494 145.861 70.9048 144.906 71.717 143.682C72.5289 142.457 72.9612 141.018 72.9588 139.546C72.9555 137.576 72.174 135.687 70.786 134.295C69.398 132.903 67.5166 132.121 65.5552 132.121Z" fill="#183154"/>
<path d="M90.2942 148.089C95.0444 148.089 98.8954 144.221 98.8954 139.449C98.8954 134.677 95.0444 130.809 90.2942 130.809C85.5438 130.809 81.693 134.677 81.693 139.449C81.693 144.221 85.5438 148.089 90.2942 148.089Z" fill="#FFADAD"/>
<path d="M116.086 148.089C120.836 148.089 124.687 144.221 124.687 139.449C124.687 134.677 120.836 130.809 116.086 130.809C111.335 130.809 107.484 134.677 107.484 139.449C107.484 144.221 111.335 148.089 116.086 148.089Z" fill="#EEF0F1"/>
<path d="M117.138 149.414C115.195 149.414 113.296 148.835 111.68 147.751C110.065 146.667 108.806 145.126 108.063 143.322C107.319 141.519 107.125 139.535 107.504 137.621C107.883 135.707 108.818 133.949 110.192 132.569C111.566 131.189 113.316 130.249 115.221 129.868C117.127 129.488 119.102 129.683 120.897 130.43C122.692 131.177 124.226 132.441 125.305 134.064C126.385 135.687 126.961 137.595 126.961 139.546C126.961 142.163 125.926 144.673 124.084 146.524C122.241 148.374 119.743 149.414 117.138 149.414ZM117.138 132.121C115.673 132.121 114.241 132.558 113.023 133.376C111.806 134.193 110.857 135.356 110.297 136.715C109.737 138.075 109.591 139.571 109.877 141.014C110.164 142.457 110.87 143.782 111.907 144.822C112.944 145.861 114.264 146.569 115.701 146.854C117.138 147.14 118.627 146.991 119.979 146.426C121.332 145.861 122.487 144.906 123.3 143.682C124.111 142.457 124.544 141.018 124.541 139.546C124.538 137.576 123.757 135.687 122.369 134.295C120.981 132.903 119.099 132.121 117.138 132.121Z" fill="#183154"/>
<g opacity="0.4">
<path opacity="0.4" d="M42.6187 58.1501C46.8678 58.1501 50.3125 54.6897 50.3125 50.4212C50.3125 46.1526 46.8678 42.6924 42.6187 42.6924C38.3693 42.6924 34.9248 46.1526 34.9248 50.4212C34.9248 54.6897 38.3693 58.1501 42.6187 58.1501Z" fill="white"/>
<path opacity="0.4" d="M33.7634 65.6965C35.888 65.6965 37.6104 63.9663 37.6104 61.8321C37.6104 59.6978 35.888 57.9677 33.7634 57.9677C31.6389 57.9677 29.9165 59.6978 29.9165 61.8321C29.9165 63.9663 31.6389 65.6965 33.7634 65.6965Z" fill="white"/>
</g>
<path d="M94.359 83.8278H39.9211C35.9106 83.8239 31.9657 82.8038 28.4518 80.8619C24.9378 78.92 21.9682 76.119 19.8178 72.7183C17.6674 69.3174 16.4057 65.4267 16.1494 61.4062C15.8932 57.3855 16.6507 53.3649 18.3518 49.7164C18.4918 49.4308 18.7379 49.2119 19.037 49.1065C19.336 49.0013 19.6643 49.0181 19.9511 49.1535C20.238 49.2887 20.4606 49.5318 20.571 49.8302C20.6813 50.1287 20.6706 50.4587 20.5413 50.7494C19.2019 53.6031 18.5119 56.7206 18.5211 59.8757C18.5275 65.5774 20.7834 71.0441 24.7947 75.0781C28.8058 79.1122 34.2452 81.3846 39.9211 81.3973H94.359C98.3303 81.4607 102.269 80.669 105.911 79.0757C109.552 77.4824 112.812 75.1245 115.471 72.1603C118.129 69.1962 120.125 65.6946 121.325 61.8909C122.524 58.0873 122.899 54.0698 122.424 50.1084C121.949 46.1471 120.635 42.3339 118.571 38.9251C116.507 35.5163 113.74 32.5909 110.457 30.3458C107.174 28.1004 103.45 26.5875 99.536 25.9084C95.6221 25.2292 91.6088 25.3997 87.7659 26.4084L86.653 26.6757L86.3142 25.5699C84.3226 19.2356 80.1503 13.8209 74.5453 10.2964C68.9402 6.77187 62.2688 5.36793 55.7267 6.33622C49.1846 7.30449 43.1999 10.5817 38.8449 15.5804C34.4899 20.579 32.0495 26.9725 31.9611 33.6147C31.9587 35.3064 32.1126 36.9948 32.4209 38.6579L32.6144 39.6178L31.7071 40.0067C30.5414 40.5064 29.4237 41.1126 28.3684 41.8175C28.2343 41.9053 28.0843 41.9656 27.9271 41.9949C27.7697 42.024 27.6081 42.0216 27.4519 41.9877C27.2954 41.9538 27.1472 41.8891 27.0159 41.7974C26.8846 41.7054 26.7727 41.5884 26.6867 41.4528C26.5139 41.182 26.4551 40.8533 26.5231 40.539C26.5912 40.2247 26.7806 39.9502 27.0497 39.7759C27.9647 39.1777 28.9184 38.6417 29.9046 38.1717C28.9217 30.747 30.7039 23.2194 34.9086 17.034C39.1134 10.8487 45.4446 6.44162 52.6864 4.65909C59.9283 2.87655 67.5703 3.84418 74.1454 7.37616C80.7205 10.9082 85.7649 16.7556 88.3103 23.7957C92.4804 22.864 96.7998 22.8303 100.984 23.6969C105.168 24.5634 109.122 26.3107 112.585 28.8236C116.048 31.3362 118.942 34.5577 121.076 38.2753C123.21 41.993 124.536 46.1226 124.966 50.3923C125.396 54.6619 124.921 58.9748 123.572 63.0465C122.223 67.1184 120.03 70.8568 117.138 74.0157C114.247 77.1747 110.721 79.6824 106.795 81.3735C102.869 83.0649 98.6303 83.9013 94.359 83.8278Z" fill="#183154"/>
<path d="M138.659 162.016H166.132C166.915 162.016 167.665 162.328 168.219 162.884C168.773 163.44 169.083 164.194 169.083 164.981H135.707C135.707 164.194 136.018 163.44 136.572 162.884C137.125 162.328 137.876 162.016 138.659 162.016Z" fill="#C5D1D1"/>
<path d="M101.847 162.016H129.32C130.103 162.016 130.854 162.328 131.407 162.884C131.961 163.44 132.272 164.194 132.272 164.981H98.8952C98.8952 164.194 99.206 163.44 99.7597 162.884C100.313 162.328 101.064 162.016 101.847 162.016Z" fill="#C5D1D1"/>
<path d="M238.316 166.5H55.6475C52.7599 166.5 49.9907 165.348 47.9488 163.296C45.907 161.245 44.7599 158.464 44.7599 155.563V126.045C44.7599 123.144 45.907 120.362 47.9488 118.311C49.9907 116.26 52.7599 115.108 55.6475 115.108H238.316C241.203 115.108 243.972 116.26 246.016 118.311C248.057 120.362 249.203 123.144 249.203 126.045V155.551C249.205 156.988 248.924 158.412 248.378 159.74C247.831 161.068 247.03 162.275 246.019 163.292C245.009 164.309 243.807 165.116 242.485 165.666C241.164 166.217 239.747 166.5 238.316 166.5ZM55.6475 117.514C53.4017 117.514 51.2477 118.41 49.6596 120.006C48.0715 121.601 47.1794 123.765 47.1794 126.021V155.526C47.1794 157.783 48.0715 159.946 49.6596 161.541C51.2477 163.137 53.4017 164.033 55.6475 164.033H238.316C240.563 164.033 242.716 163.137 244.304 161.541C245.893 159.946 246.784 157.783 246.784 155.526V126.045C246.784 123.789 245.893 121.625 244.304 120.03C242.716 118.435 240.563 117.538 238.316 117.538L55.6475 117.514Z" fill="#183154"/>
<path d="M115.59 19.2024C117.086 19.2024 118.299 17.9836 118.299 16.4802C118.299 14.9768 117.086 13.7581 115.59 13.7581C114.093 13.7581 112.88 14.9768 112.88 16.4802C112.88 17.9836 114.093 19.2024 115.59 19.2024Z" fill="#E0F0F5"/>
<path opacity="0.7" d="M98.8952 139.875C98.8963 141.767 98.2788 143.608 97.1372 145.114C95.9959 146.62 94.3938 147.707 92.5774 148.21C90.7609 148.712 88.8304 148.602 87.0825 147.895C85.3347 147.188 83.8661 145.924 82.9027 144.298C84.2284 145.098 85.7472 145.519 87.294 145.513C89.5752 145.513 91.7629 144.603 93.3759 142.982C94.989 141.362 95.8952 139.164 95.8952 136.873C95.9005 135.319 95.4822 133.794 94.6855 132.462C95.9675 133.224 97.0299 134.308 97.7681 135.608C98.5063 136.908 98.8948 138.378 98.8952 139.875Z" fill="#99394C"/>
<path d="M91.3465 149.414C89.4037 149.414 87.5045 148.835 85.8891 147.751C84.2738 146.667 83.0148 145.126 82.2712 143.322C81.5277 141.519 81.3333 139.535 81.7122 137.621C82.0913 135.707 83.0269 133.949 84.4006 132.569C85.7743 131.189 87.5247 130.249 89.4301 129.868C91.3355 129.488 93.3106 129.683 95.1056 130.43C96.9004 131.177 98.4346 132.441 99.514 134.064C100.593 135.687 101.169 137.595 101.169 139.546C101.169 142.163 100.135 144.673 98.2923 146.524C96.4502 148.374 93.9516 149.414 91.3465 149.414ZM91.3465 132.121C89.8817 132.121 88.4498 132.558 87.232 133.376C86.0144 134.193 85.0654 135.356 84.5053 136.715C83.9454 138.075 83.7996 139.571 84.086 141.014C84.3727 142.457 85.0792 143.782 86.1158 144.822C87.1524 145.861 88.4726 146.569 89.9096 146.854C91.3465 147.14 92.8354 146.991 94.1881 146.426C95.5407 145.861 96.6961 144.906 97.5083 143.682C98.3202 142.457 98.7525 141.018 98.7501 139.546C98.7468 137.576 97.9655 135.687 96.5773 134.295C95.1893 132.903 93.3079 132.121 91.3465 132.121Z" fill="#183154"/>
</g>
</svg>
