<svg width="286" height="166" viewBox="0 0 286 166" fill="none" xmlns="http://www.w3.org/2000/svg">
<mask id="mask0_237_2268" style="mask-type:luminance" maskUnits="userSpaceOnUse" x="0" y="0" width="286" height="166">
<path d="M285.787 0H0V165.918H285.787V0Z" fill="white"/>
</mask>
<g mask="url(#mask0_237_2268)">
<path d="M270.707 100.013C260.607 126.2 241.618 149.141 215.242 159.224C211.812 160.533 208.309 161.644 204.751 162.55C185.933 167.355 165.347 165.684 148 156.93C140.638 153.211 133.924 148.298 126.536 144.633C119.147 140.968 110.709 138.569 102.667 140.379C95.7422 141.936 89.9 146.4 84.0178 150.376C70.1511 159.751 53.4778 167.17 37.0578 163.95C29.5022 162.47 22.0622 158.372 18.5533 151.52C10.7977 136.373 25.4245 118.365 22.4622 101.613C20.5666 90.8924 11.9088 82.8638 6.5266 73.4023C-2.68451 57.2184 -1.59561 35.7207 9.20438 20.556C20.0044 5.3913 39.9422 -2.6528 58.2222 0.787357C80.5133 4.98409 97.3667 23.8737 119.042 30.5583C132.598 34.735 147.316 33.4888 160.262 27.9881C181.18 19.0985 209.918 5.46473 233.458 7.68548C245.976 8.86706 258.253 14.4301 266.516 23.9294C276.96 35.921 280.091 52.946 278.349 68.7583C277.153 79.4622 274.584 89.9671 270.707 100.013Z" fill="url(#paint0_linear_237_2268)"/>
<path d="M277.427 120.726C276.962 120.726 276.5 120.669 276.049 120.559C274.622 120.208 273.385 119.325 272.587 118.091C271.789 116.856 271.491 115.363 271.753 113.916C272.018 112.47 272.825 111.179 274.007 110.306C275.189 109.434 276.66 109.047 278.118 109.223C279.576 109.4 280.911 110.127 281.851 111.257C282.793 112.386 283.267 113.832 283.18 115.3C283.091 116.768 282.447 118.147 281.378 119.155C280.309 120.164 278.896 120.726 277.427 120.726ZM277.411 111.785C276.647 111.788 275.909 112.07 275.338 112.58C274.767 113.09 274.402 113.791 274.311 114.552C274.222 115.313 274.413 116.08 274.849 116.709C275.284 117.338 275.936 117.786 276.68 117.967C277.487 118.163 278.338 118.03 279.047 117.597C279.756 117.165 280.262 116.468 280.458 115.66C280.656 114.853 280.522 114 280.089 113.291C279.658 112.581 278.962 112.072 278.156 111.876C277.911 111.816 277.662 111.784 277.411 111.783V111.785Z" fill="#E7F6FF"/>
<path d="M272.167 126.847C272.493 125.494 271.664 124.131 270.311 123.803C268.96 123.475 267.6 124.306 267.271 125.659C266.944 127.012 267.773 128.375 269.124 128.703C270.478 129.031 271.838 128.2 272.167 126.847Z" fill="#E7F6FF"/>
<path d="M12.2644 120.176C10.7375 120.143 9.28534 119.508 8.22323 118.409C7.1611 117.31 6.57474 115.836 6.59141 114.306C6.6081 112.777 7.22648 111.316 8.3123 110.241C9.39814 109.165 10.8638 108.562 12.3911 108.562C13.9184 108.562 15.384 109.165 16.4698 110.241C17.5557 111.316 18.1741 112.777 18.1907 114.306C18.2074 115.836 17.621 117.31 16.5589 118.409C15.4968 119.508 14.0447 120.143 12.5177 120.176H12.2644ZM12.2644 111.238H12.1333C11.3085 111.256 10.524 111.599 9.95034 112.193C9.37666 112.786 9.05997 113.583 9.06903 114.409C9.0781 115.235 9.41221 116.024 9.99879 116.605C10.5854 117.186 11.3771 117.512 12.2022 117.512C13.0272 117.512 13.819 117.186 14.4056 116.605C14.9922 116.024 15.3263 115.235 15.3353 114.409C15.3444 113.583 15.0277 112.786 14.454 112.193C13.8803 111.599 13.0959 111.256 12.2711 111.238H12.2644Z" fill="#E7F6FF"/>
<path d="M8.13091 129.918C9.52016 129.858 10.5978 128.682 10.5378 127.291C10.4779 125.9 9.30314 124.821 7.91389 124.881C6.52467 124.941 5.44705 126.117 5.50696 127.508C5.56689 128.899 6.74167 129.978 8.13091 129.918Z" fill="#E7F6FF"/>
<path d="M157.573 26.3146C156.189 26.3159 154.85 25.8212 153.799 24.9196C152.748 24.0182 152.054 22.7696 151.842 21.3999C151.631 20.0302 151.916 18.63 152.646 17.4527C153.376 16.2754 154.504 15.3987 155.823 14.9815C157.143 14.5643 158.569 14.634 159.842 15.1781C161.115 15.7222 162.151 16.7047 162.763 17.9477C163.376 19.1907 163.523 20.6121 163.179 21.9546C162.835 23.297 162.023 24.4719 160.889 25.2665C159.917 25.9476 158.76 26.3135 157.573 26.3146ZM157.556 17.3782C156.747 17.3774 155.969 17.6892 155.384 18.2487C154.799 18.8082 154.452 19.5721 154.416 20.3813C154.379 21.1904 154.656 21.9824 155.189 22.5923C155.721 23.202 156.468 23.5825 157.274 23.6541C158.08 23.726 158.882 23.4839 159.514 22.9779C160.145 22.4721 160.558 21.7415 160.665 20.9386C160.772 20.1358 160.566 19.3225 160.088 18.6683C159.612 18.0141 158.901 17.5695 158.104 17.4272C157.923 17.3948 157.74 17.3784 157.556 17.3782Z" fill="#E7F6FF"/>
<path d="M145.752 25.9977C146.891 25.1982 147.167 23.6261 146.368 22.4859C145.57 21.3459 144 21.0698 142.861 21.8693C141.723 22.6688 141.447 24.2409 142.245 25.3811C143.044 26.5211 144.614 26.7972 145.752 25.9977Z" fill="#E7F6FF"/>
<path d="M285.778 56.2212C285.778 53.7746 284.807 51.4279 283.08 49.6978C281.351 47.9675 279.009 46.9955 276.564 46.9955C276.36 46.9955 276.158 46.9955 275.958 47.0155C275.971 46.8153 275.978 46.6128 275.978 46.4081C275.978 45.097 275.698 43.8008 275.158 42.6063C274.618 41.4116 273.831 40.3459 272.847 39.4803C271.862 38.6147 270.707 37.969 269.453 37.5863C268.202 37.2033 266.882 37.0923 265.584 37.2603C264.284 37.4285 263.038 37.8717 261.922 38.5607C260.809 39.2498 259.853 40.1688 259.122 41.2563C258.391 42.344 257.9 43.5752 257.68 44.8678C257.462 46.1606 257.52 47.4853 257.853 48.7534C256.74 47.945 255.46 47.3963 254.107 47.1477C252.753 46.8992 251.362 46.9572 250.036 47.3175C248.707 47.6775 247.478 48.3309 246.433 49.2294C245.391 50.1279 244.564 51.2488 244.009 52.5096C243.456 53.7706 243.191 55.1395 243.236 56.5163C243.28 57.893 243.631 59.2421 244.264 60.4653C244.896 61.6883 245.793 62.7539 246.891 63.5839C247.989 64.4142 249.258 64.9876 250.607 65.2622C251.158 66.7237 252.069 68.0214 253.258 69.0337C254.444 70.0457 255.871 70.7393 257.398 71.0493C258.927 71.3592 260.511 71.2756 261.998 70.8061C263.484 70.3363 264.829 69.4961 265.904 68.3641C267.004 69.1955 268.276 69.7691 269.627 70.0428C270.978 70.3167 272.371 70.2838 273.707 69.9465C275.044 69.6091 276.287 68.9758 277.347 68.0938C278.407 67.2115 279.253 66.1024 279.829 64.8483C281.578 64.1845 283.082 63.0038 284.147 61.4629C285.209 59.9219 285.778 58.0939 285.778 56.2212Z" fill="white"/>
<path d="M42.5445 34.0451C42.5456 32.8331 42.3083 31.6326 41.8458 30.5124C41.3836 29.3923 40.7052 28.3742 39.8498 27.5166C38.9945 26.659 37.9787 25.9786 36.8605 25.5144C35.7423 25.05 34.5438 24.8108 33.3334 24.8106C33.1289 24.8106 32.9267 24.8106 32.7267 24.8306C32.74 24.6303 32.7467 24.4278 32.7467 24.2231C32.7465 22.912 32.4669 21.6158 31.9272 20.4212C31.3872 19.2266 30.5992 18.161 29.6156 17.2954C28.632 16.4297 27.4756 15.784 26.2232 15.4012C24.9707 15.0184 23.6512 14.9073 22.3525 15.0754C21.0538 15.2434 19.8058 15.6867 18.6918 16.3758C17.5777 17.0648 16.623 17.9838 15.8916 19.0713C15.1601 20.1589 14.6685 21.3901 14.4496 22.6828C14.2307 23.9757 14.2896 25.3003 14.6222 26.5685C13.5087 25.7598 12.2285 25.2111 10.8756 24.9628C9.52262 24.7142 8.13129 24.7723 6.80367 25.1323C5.47603 25.4926 4.2458 26.1459 3.20325 27.0444C2.16068 27.943 1.33226 29.0638 0.778763 30.3246C0.22527 31.5856 -0.0392456 32.9546 0.00462713 34.3313C0.0484999 35.7078 0.399647 37.0572 1.0323 38.2801C1.66495 39.5033 2.56307 40.569 3.66071 41.399C4.75836 42.229 6.02769 42.8026 7.37556 43.0772C7.92638 44.5374 8.8382 45.8338 10.0256 46.845C11.2131 47.8563 12.6374 48.5492 14.1651 48.8592C15.6929 49.1692 17.2742 49.0857 18.7611 48.6171C20.2479 48.1485 21.5917 47.3096 22.6667 46.1792C23.7665 47.0105 25.0383 47.5842 26.3889 47.8579C27.7394 48.1318 29.1338 48.0989 30.47 47.7613C31.806 47.4239 33.0496 46.7909 34.1089 45.9086C35.1683 45.0263 36.0165 43.9175 36.5912 42.6633C38.3392 42.0009 39.8447 40.8218 40.908 39.2826C41.9712 37.7434 42.542 35.9168 42.5445 34.0451Z" fill="white"/>
<path d="M212.04 165.317H79.4844V162.424H212.04C212.423 162.424 212.79 162.577 213.061 162.848C213.332 163.119 213.484 163.487 213.484 163.87C213.484 164.254 213.332 164.622 213.061 164.893C212.79 165.164 212.423 165.317 212.04 165.317Z" fill="#426572"/>
<path d="M73.5556 165.317H65.4512C65.068 165.317 64.7007 165.164 64.4298 164.893C64.1589 164.622 64.0067 164.254 64.0067 163.87C64.0067 163.487 64.1589 163.119 64.4298 162.848C64.7007 162.577 65.068 162.424 65.4512 162.424H73.5556C73.9387 162.424 74.306 162.577 74.5769 162.848C74.8478 163.119 75 163.487 75 163.87C75 164.254 74.8478 164.622 74.5769 164.893C74.306 165.164 73.9387 165.317 73.5556 165.317Z" fill="#426572"/>
<path d="M60.1912 165.317H57.6089C57.2258 165.317 56.8585 165.164 56.5876 164.893C56.3167 164.622 56.1645 164.254 56.1645 163.87C56.1645 163.487 56.3167 163.119 56.5876 162.848C56.8585 162.577 57.2258 162.424 57.6089 162.424H60.1912C60.5743 162.424 60.9416 162.577 61.2125 162.848C61.4834 163.119 61.6356 163.487 61.6356 163.87C61.6356 164.254 61.4834 164.622 61.2125 164.893C60.9416 165.164 60.5743 165.317 60.1912 165.317Z" fill="#426572"/>
<path d="M258.52 165.317H217.778V162.424H258.52C258.902 162.424 259.271 162.577 259.542 162.848C259.813 163.119 259.964 163.487 259.964 163.87C259.964 164.254 259.813 164.622 259.542 164.893C259.271 165.164 258.902 165.317 258.52 165.317Z" fill="#426572"/>
<path d="M50.2222 165.317H9.47778V162.424H50.2222C50.6054 162.424 50.9727 162.577 51.2436 162.848C51.5145 163.119 51.6667 163.487 51.6667 163.87C51.6667 164.254 51.5145 164.622 51.2436 164.893C50.9727 165.164 50.6054 165.317 50.2222 165.317Z" fill="#426572"/>
<path d="M63.1334 52.4166H211.538C214.216 52.4166 216.785 53.4816 218.68 55.3777C220.574 57.274 221.639 59.8457 221.64 62.5279V158.714H53.0311V62.5279C53.0322 59.8457 54.0971 57.274 55.9916 55.3777C57.8858 53.4816 60.4547 52.4166 63.1334 52.4166Z" fill="#EBF0F9"/>
<path d="M215.78 59.7927H59.56V149.157H215.78V59.7927Z" fill="#637F91"/>
<path d="M58.3889 148.99H216.445C216.445 149.7 216.164 150.38 215.664 150.883C215.165 151.386 214.486 151.67 213.778 151.674H61.0667C60.3558 151.674 59.6743 151.391 59.1716 150.888C58.6689 150.385 58.3867 149.702 58.3867 148.99H58.3889Z" fill="white"/>
<g opacity="0.5">
<path opacity="0.5" d="M106.242 59.4589L82.8845 149.66H71.1223L94.48 59.4589H106.242Z" fill="#A7BCD5"/>
<path opacity="0.5" d="M136.222 59.4589L112.867 149.66H88.2L111.558 59.4589H136.222Z" fill="#A7BCD5"/>
</g>
<path d="M222.973 160.05H51.6978V58.2154C51.7 56.324 52.4514 54.5109 53.7872 53.1733C55.1227 51.836 56.9334 51.0836 58.8223 51.0814H215.849C217.738 51.0836 219.548 51.836 220.884 53.1733C222.22 54.5109 222.971 56.324 222.973 58.2154V160.05ZM54.3645 157.379H220.307V58.2154C220.305 57.0318 219.835 55.8972 219 55.0603C218.164 54.2234 217.031 53.7528 215.849 53.7517H58.8223C57.6403 53.7528 56.5071 54.2234 55.6714 55.0603C54.8356 55.8972 54.3656 57.0318 54.3645 58.2154V157.379Z" fill="#426572"/>
<path d="M31.7667 155.53H247.427V156.24C247.427 158.542 246.513 160.749 244.889 162.377C243.262 164.004 241.058 164.918 238.76 164.918H40.4333C38.1347 164.918 35.9302 164.004 34.3051 162.377C32.6798 160.749 31.7667 158.542 31.7667 156.24V155.53Z" fill="#EBF0F9"/>
<path opacity="0.5" d="M246.322 160.056C245.849 161.291 245.011 162.352 243.922 163.101C242.833 163.849 241.542 164.249 240.222 164.248H37.6267C36.3065 164.248 35.0174 163.848 33.9291 163.099C32.8411 162.351 32.0049 161.29 31.5311 160.056H246.322Z" fill="#A7BCD5"/>
<path d="M237.753 165.917H39.4267C36.7754 165.914 34.2336 164.858 32.3589 162.981C30.484 161.104 29.4296 158.559 29.4267 155.904V153.859H247.753V155.904C247.751 158.559 246.696 161.104 244.822 162.981C242.947 164.858 240.404 165.914 237.753 165.917ZM32.12 156.529C32.2765 158.362 33.114 160.069 34.4669 161.313C35.82 162.557 37.5898 163.247 39.4267 163.247H237.753C239.591 163.247 241.36 162.557 242.713 161.313C244.067 160.069 244.904 158.362 245.06 156.529H32.12Z" fill="#426572"/>
<path d="M216.778 149.989H57.8889V58.4575H216.778V149.989ZM60.5556 147.319H214.111V61.1278H60.5556V147.319Z" fill="#426572"/>
<path d="M191.9 31.1058V148.654H85.4089V31.1058C85.4129 30.576 85.6249 30.0689 85.9992 29.6942C86.3734 29.3194 86.8798 29.1072 87.4089 29.1031H189.891C190.012 29.1031 190.132 29.1145 190.251 29.1365C190.712 29.2218 191.128 29.465 191.429 29.8243C191.73 30.1837 191.896 30.637 191.9 31.1058Z" fill="white"/>
<path d="M87.0844 38.8186H192.236V31.7469L190.224 29.0945H98.1356H89.0933L85.7444 31.7469V38.8186H87.0844Z" fill="#E2F2FF"/>
<path d="M193.567 149.989H84.4111V31.1059C84.4145 30.2218 84.7669 29.3749 85.3911 28.7496C86.0156 28.1243 86.8614 27.7716 87.7445 27.7681H190.222C191.105 27.7716 191.951 28.1243 192.575 28.7496C193.2 29.3749 193.552 30.2218 193.556 31.1059L193.567 149.989ZM87.0756 147.319H190.9V31.1059C190.895 30.9303 190.824 30.763 190.7 30.6388C190.576 30.5146 190.409 30.4428 190.233 30.4383H87.7534C87.5778 30.4428 87.4109 30.5146 87.2869 30.6388C87.1627 30.763 87.0911 30.9303 87.0867 31.1059L87.0756 147.319Z" fill="#426572"/>
<path d="M185.684 33.2156H92.0089C91.2687 33.2156 90.6689 33.8162 90.6689 34.5574C90.6689 35.2984 91.2687 35.8992 92.0089 35.8992H185.684C186.424 35.8992 187.024 35.2984 187.024 34.5574C187.024 33.8162 186.424 33.2156 185.684 33.2156Z" fill="#CADCE8"/>
<path d="M69.16 142.288H37.3689C36.8454 142.292 36.3296 142.163 35.8689 141.914C35.2022 141.549 34.7756 140.951 34.7756 140.276L34.7934 96.5156C34.7938 96.2292 34.8705 95.9482 35.0156 95.7012C35.42 94.998 36.3334 94.504 37.3867 94.504H69.1778C70.2889 94.504 71.2245 95.0425 71.5978 95.7946C71.7113 96.0172 71.7707 96.2635 71.7711 96.5134L71.7556 140.276C71.7556 141.287 70.78 142.13 69.52 142.268C69.4005 142.282 69.2802 142.288 69.16 142.288Z" fill="white"/>
<path d="M70.0245 141.952L38.2222 141.946C37.6987 141.949 37.1827 141.821 36.7222 141.572C36.0556 141.207 35.6289 140.608 35.6289 139.934L35.6467 96.1732C35.6471 95.8868 35.7238 95.6058 35.8689 95.3588C36.2734 94.6556 37.1867 94.1616 38.24 94.1616H38.6734L38.6667 137.25C38.6667 137.918 39.0978 138.523 39.76 138.888C40.2205 139.137 40.7365 139.266 41.26 139.262H72.62V139.93C72.62 140.94 71.6445 141.783 70.3845 141.921C70.2651 141.938 70.1449 141.949 70.0245 141.952Z" fill="#D6DEE9"/>
<path d="M69.5911 143.287H37.7978C37.048 143.291 36.3096 143.105 35.6511 142.746C34.54 142.13 33.8734 141.08 33.8734 139.94L33.8911 96.1796C33.894 95.6578 34.0342 95.1457 34.2978 94.6953C34.9645 93.5494 36.2978 92.8351 37.82 92.8351H69.6134C71.1689 92.8351 72.5578 93.6028 73.1889 94.7955L73.3667 95.0692V95.1938C73.4816 95.5113 73.5402 95.8464 73.54 96.184L73.5222 139.943C73.5222 141.62 72.0489 143.058 70.0978 143.26C69.9296 143.279 69.7602 143.288 69.5911 143.287ZM37.8134 95.4942C37.2156 95.4942 36.7489 95.759 36.6 96.0216C36.5709 96.0661 36.5547 96.1177 36.5534 96.1707L36.5356 139.929C36.5356 140.076 36.6978 140.263 36.94 140.399C37.204 140.539 37.4989 140.611 37.7978 140.608H69.5889C69.6587 140.608 69.7285 140.605 69.7978 140.597C70.4645 140.526 70.8511 140.152 70.8511 139.929L70.8689 96.1684C70.8691 96.1419 70.8645 96.1155 70.8556 96.0906L70.7311 95.8992C70.4238 95.6215 70.0202 95.4753 69.6067 95.492H37.8134V95.4942Z" fill="#426572"/>
<path d="M65.9245 113.44H44.3645V116.11H65.9245V113.44Z" fill="#426572"/>
<path d="M65.9245 107.868H44.3645V110.539H65.9245V107.868Z" fill="#426572"/>
<path d="M65.9245 119.753H44.3645V122.423H65.9245V119.753Z" fill="#426572"/>
<path opacity="0.2" d="M238.222 63.1956C239.776 60.2764 240.729 57.0752 241.027 53.781C241.324 50.4866 240.96 47.1662 239.956 44.0151C238.951 40.8642 237.324 37.9467 235.176 35.4347C233.027 32.9229 230.398 30.8675 227.442 29.3897C224.487 27.9119 221.266 27.0419 217.969 26.8309C214.673 26.62 211.367 27.0724 208.248 28.1612C205.129 29.2502 202.26 30.9538 199.808 33.1712C197.358 35.3888 195.375 38.0753 193.978 41.0727C192.048 44.7009 191.051 48.7527 191.075 52.8631C191.099 56.9737 192.144 61.0136 194.117 64.6186C196.089 68.2237 198.926 71.2807 202.372 73.5141C205.818 75.7475 209.766 77.0873 213.858 77.4124C213.144 77.5815 212.418 77.7186 211.682 77.8241C215.556 78.3833 219.507 78.0141 223.211 76.7469C226.913 75.4796 230.264 73.3505 232.987 70.5343C235.164 68.4286 236.94 65.9413 238.222 63.1956Z" fill="#606060"/>
<path d="M213.058 71.6285C226.718 71.6285 237.791 60.5401 237.791 46.862C237.791 33.1839 226.718 22.0955 213.058 22.0955C199.398 22.0955 188.324 33.1839 188.324 46.862C188.324 60.5401 199.398 71.6285 213.058 71.6285Z" fill="#A8EF9E"/>
<path d="M236.611 48.6317C236.611 52.1827 235.847 55.6918 234.373 58.9215C232.9 62.1511 230.749 65.0256 228.069 67.3503C225.389 69.675 222.24 71.3953 218.837 72.3946C215.434 73.394 211.856 73.649 208.347 73.1423C214.232 72.2905 219.614 69.3436 223.507 64.8421C227.398 60.3405 229.542 54.5852 229.542 48.6306C229.542 42.6759 227.398 36.9207 223.507 32.4191C219.614 27.9175 214.232 24.9709 208.347 24.1189C211.857 23.612 215.435 23.8668 218.838 24.8661C222.242 25.8654 225.391 27.5857 228.071 29.9106C230.751 32.2355 232.902 35.1105 234.376 38.3406C235.849 41.5707 236.613 45.0805 236.613 48.6317H236.611Z" fill="#A7E59C"/>
<path d="M212.469 74.1415C207.313 74.1415 202.274 72.6105 197.987 69.7425C193.7 66.8744 190.359 62.7978 188.387 58.0286C186.413 53.2591 185.897 48.0109 186.903 42.9477C187.909 37.8845 190.391 33.2336 194.037 29.5832C197.683 25.9329 202.327 23.4469 207.383 22.4398C212.44 21.4326 217.681 21.9495 222.444 23.9251C227.207 25.9007 231.278 29.2463 234.142 33.5387C237.007 37.8309 238.536 42.8774 238.536 48.0399C238.529 54.96 235.78 61.5947 230.893 66.4881C226.005 71.3813 219.38 74.1337 212.469 74.1415ZM212.469 24.6107C207.841 24.6107 203.317 25.985 199.468 28.5596C195.62 31.1343 192.621 34.7937 190.85 39.0752C189.079 43.3567 188.616 48.0681 189.519 52.6133C190.421 57.1585 192.65 61.3337 195.923 64.6105C199.195 67.8875 203.365 70.1192 207.904 71.0233C212.443 71.9274 217.148 71.4632 221.424 69.6897C225.7 67.9162 229.353 64.9131 231.925 61.0597C234.496 57.2066 235.869 52.6763 235.869 48.0421C235.862 41.8298 233.396 35.8736 229.009 31.4808C224.62 27.0878 218.673 24.6172 212.469 24.6107Z" fill="#426572"/>
<path d="M156.222 111.057H122.096C119.902 111.054 117.798 110.181 116.246 108.627C114.695 107.074 113.822 104.967 113.82 102.77V56.159C113.822 53.9618 114.695 51.8554 116.246 50.302C117.798 48.7484 119.902 47.8745 122.096 47.8723H156.222C158.416 47.8745 160.52 48.7484 162.071 50.302C163.623 51.8554 164.495 53.9618 164.498 56.159V102.77C164.495 104.967 163.623 107.074 162.071 108.627C160.52 110.181 158.416 111.054 156.222 111.057ZM124.156 100.699H154.156V58.2306H124.156V100.699Z" fill="#FBC907"/>
<path opacity="0.6" d="M164.562 73.251V104.849C164.56 107.046 163.687 109.152 162.136 110.706C160.584 112.259 158.481 113.133 156.287 113.135H122.149C119.955 113.133 117.851 112.259 116.3 110.706C114.748 109.152 113.876 107.046 113.873 104.849V73.251H124.222V102.77H154.222V73.251H164.562Z" fill="#F3A70F"/>
<path d="M156.222 113.688H122.096C119.548 113.685 117.106 112.67 115.304 110.866C113.503 109.062 112.49 106.617 112.487 104.066V57.4547C112.492 54.9053 113.506 52.462 115.307 50.66C117.108 48.8583 119.55 47.8447 122.096 47.8418H156.222C158.77 47.8447 161.212 48.8594 163.014 50.6631C164.815 52.4671 165.828 54.9126 165.831 57.4636V104.066C165.828 106.617 164.815 109.062 163.014 110.866C161.212 112.67 158.77 113.685 156.222 113.688ZM122.096 50.512C120.255 50.5145 118.491 51.2475 117.189 52.5508C115.888 53.8538 115.156 55.6207 115.153 57.4636V104.066C115.155 105.909 115.887 107.676 117.189 108.979C118.49 110.283 120.255 111.016 122.096 111.017H156.222C158.063 111.016 159.828 110.283 161.129 108.979C162.431 107.676 163.163 105.909 163.164 104.066V57.4547C163.16 55.6133 162.426 53.8487 161.125 52.5477C159.824 51.2464 158.061 50.5145 156.222 50.512H122.096ZM155.496 103.338H122.829V58.1912H155.496V103.338ZM125.496 100.668H152.829V60.8614H125.496V100.668Z" fill="#426572"/>
<path d="M168.198 79.0233H109.609C108.136 79.0233 106.942 80.2187 106.942 81.6936V133.683C106.942 135.158 108.136 136.353 109.609 136.353H168.198C169.67 136.353 170.864 135.158 170.864 133.683V81.6936C170.864 80.2187 169.67 79.0233 168.198 79.0233Z" fill="#FBC907"/>
<path opacity="0.6" d="M171.384 82.0832V133.459C171.382 134.247 171.068 135.003 170.511 135.561C169.954 136.119 169.199 136.433 168.411 136.436H139.938V79.1058H168.411C169.199 79.1083 169.954 79.4227 170.511 79.9806C171.068 80.5384 171.382 81.2943 171.384 82.0832Z" fill="#F3A70F"/>
<path d="M168.198 137.132H109.609C108.548 137.132 107.53 136.71 106.78 135.959C106.03 135.208 105.609 134.189 105.609 133.127V81.1372C105.609 80.0749 106.03 79.0562 106.78 78.305C107.53 77.5537 108.548 77.1318 109.609 77.1318H168.198C169.259 77.1318 170.276 77.5537 171.026 78.305C171.776 79.0562 172.198 80.0749 172.198 81.1372V133.127C172.198 134.189 171.776 135.208 171.026 135.959C170.276 136.71 169.259 137.132 168.198 137.132ZM109.609 79.8021C109.255 79.8021 108.916 79.9427 108.666 80.193C108.416 80.4434 108.276 80.7832 108.276 81.1372V133.127C108.276 133.481 108.416 133.82 108.666 134.071C108.916 134.321 109.255 134.462 109.609 134.462H168.198C168.551 134.462 168.89 134.321 169.14 134.071C169.391 133.82 169.531 133.481 169.531 133.127V81.1372C169.531 80.7832 169.391 80.4434 169.14 80.193C168.89 79.9427 168.551 79.8021 168.198 79.8021H109.609Z" fill="#426572"/>
<path d="M225.407 38.5805C224.873 38.2819 224.244 38.2018 223.653 38.3569C223.062 38.512 222.553 38.8905 222.236 39.4125L217.953 46.4219L211.111 57.6102L210.92 57.9239L203.02 51.5955L201.58 50.443C200.636 49.6865 199.211 49.4484 198.302 50.443C197.529 51.2864 197.291 52.915 198.302 53.725L208.46 61.8603L209.9 63.013C210.498 63.4936 211.067 63.7562 211.847 63.6516C212.195 63.6089 212.529 63.486 212.823 63.2931C213.116 63.1002 213.362 62.8423 213.54 62.539L217.822 55.5296L224.667 44.3435L226.247 41.7581C226.871 40.7211 226.498 39.1635 225.407 38.5805Z" fill="white"/>
</g>
<defs>
<linearGradient id="paint0_linear_237_2268" x1="0.293278" y1="82.5968" x2="278.8" y2="82.5968" gradientUnits="userSpaceOnUse">
<stop stop-color="#C5E9FA"/>
<stop offset="1" stop-color="#C4F4EA"/>
</linearGradient>
</defs>
</svg>
