<svg width="224" height="256" viewBox="0 0 224 256" fill="none" xmlns="http://www.w3.org/2000/svg">
<mask id="mask0_237_239" style="mask-type:luminance" maskUnits="userSpaceOnUse" x="0" y="0" width="224" height="256">
<path d="M223.253 0.512024H0.0453491V255.849H223.253V0.512024Z" fill="white"/>
</mask>
<g mask="url(#mask0_237_239)">
<path d="M211.797 48.8042H183.417C178.178 48.8042 173.932 53.058 173.932 58.3053V214.644C173.932 219.892 178.178 224.146 183.417 224.146H211.797C217.035 224.146 221.282 219.892 221.282 214.644V58.3053C221.282 53.058 217.035 48.8042 211.797 48.8042Z" fill="white"/>
<path opacity="0.45" d="M196.139 117.317V46.8976H58.5167V223.133H196.139V117.317Z" fill="#C9D2DF"/>
<path d="M131.345 171.612H209.529V165.501H131.345V171.612Z" fill="#C9D2DF"/>
<path d="M131.345 185.497H209.529V179.387H131.345V185.497Z" fill="#C9D2DF"/>
<path d="M131.345 199.398H209.529V193.287H131.345V199.398Z" fill="#C9D2DF"/>
<path d="M131.345 120.076H209.529V113.965H131.345V120.076Z" fill="#C9D2DF"/>
<path d="M131.345 133.93H209.529V127.82H131.345V133.93Z" fill="#C9D2DF"/>
<path d="M131.345 147.873H209.529V141.763H131.345V147.873Z" fill="#C9D2DF"/>
<path d="M131.345 66.9096H209.529V60.7991H131.345V66.9096Z" fill="#C9D2DF"/>
<path d="M131.345 94.7377H209.529V60.3851H131.345V94.7377Z" fill="#C9D2DF"/>
<path d="M217.71 224.441C217.365 224.441 217.034 224.304 216.79 224.059C216.546 223.814 216.409 223.483 216.409 223.137C216.409 222.791 216.546 222.459 216.79 222.215C217.034 221.97 217.365 221.832 217.71 221.832C218.012 221.832 218.31 221.773 218.588 221.657C218.865 221.539 219.117 221.369 219.328 221.154C219.539 220.939 219.705 220.684 219.818 220.404C219.929 220.124 219.984 219.825 219.979 219.523V134.274C219.979 133.928 220.117 133.596 220.361 133.352C220.605 133.107 220.936 132.97 221.281 132.97C221.627 132.97 221.958 133.107 222.202 133.352C222.446 133.596 222.583 133.928 222.583 134.274V219.523C222.583 220.821 222.071 222.066 221.158 222.988C220.246 223.908 219.007 224.431 217.71 224.441Z" fill="#3E3126"/>
<path d="M208.859 224.433H192.493C192.148 224.433 191.816 224.296 191.572 224.052C191.328 223.807 191.191 223.475 191.191 223.129C191.191 222.783 191.328 222.452 191.572 222.207C191.816 221.963 192.148 221.826 192.493 221.826H208.859C209.204 221.826 209.535 221.963 209.779 222.207C210.023 222.452 210.16 222.783 210.16 223.129C210.16 223.475 210.023 223.807 209.779 224.052C209.535 224.296 209.204 224.433 208.859 224.433Z" fill="#3E3126"/>
<path d="M174.862 224.446H87.2299C85.9344 224.436 84.6951 223.914 83.7821 222.992C82.87 222.071 82.3573 220.825 82.3573 219.528V54.4328C82.3673 52.0938 83.2995 49.8535 84.9506 48.1996C86.601 46.5457 88.8379 45.6121 91.1726 45.6024H213.917C216.252 45.6121 218.488 46.5457 220.139 48.1996C221.79 49.8535 222.722 52.0938 222.731 54.4328V117.326C222.731 117.672 222.594 118.004 222.35 118.248C222.106 118.493 221.775 118.631 221.43 118.631C221.085 118.631 220.754 118.493 220.509 118.248C220.265 118.004 220.128 117.672 220.128 117.326V54.4328C220.128 52.7825 219.474 51.1999 218.309 50.033C217.144 48.866 215.564 48.2106 213.917 48.2106H91.1726C89.5253 48.2106 87.9458 48.866 86.7803 50.033C85.6157 51.1999 84.9614 52.7825 84.9614 54.4328V219.528C84.956 219.829 85.0114 220.129 85.123 220.409C85.2347 220.689 85.4009 220.944 85.6126 221.159C85.8235 221.374 86.0752 221.545 86.3531 221.661C86.631 221.778 86.9289 221.838 87.2299 221.838H174.862C175.207 221.838 175.538 221.975 175.782 222.22C176.026 222.465 176.163 222.796 176.163 223.142C176.163 223.488 176.026 223.82 175.782 224.064C175.538 224.308 175.207 224.446 174.862 224.446Z" fill="#3E3126"/>
<path d="M184.757 26.7108H1.23669V234.281H184.757V26.7108Z" fill="white"/>
<path opacity="0.2" d="M184.757 87.0963V230.022C184.757 230.74 184.614 231.45 184.34 232.113C184.064 232.775 183.661 233.376 183.153 233.882C182.645 234.387 182.042 234.787 181.378 235.059C180.716 235.329 180.005 235.467 179.288 235.462H17.3043C114.458 207.22 163.89 130.391 184.757 87.0963Z" fill="#C9D2DF"/>
<path opacity="0.5" d="M184.719 91.3164H2.12842V92.0991H184.719V91.3164Z" fill="#C9D2DF"/>
<path opacity="0.5" d="M184.719 146.711H2.12842V147.493H184.719V146.711Z" fill="#C9D2DF"/>
<path opacity="0.5" d="M184.719 205.991H2.12842V206.773H184.719V205.991Z" fill="#C9D2DF"/>
<path d="M4.9183 7.58454H181.966C182.697 7.58454 183.397 7.87504 183.913 8.39212C184.429 8.90914 184.719 9.61044 184.719 10.3417V25.5434H2.12867V10.379C2.12367 10.0106 2.1924 9.64498 2.33083 9.3037C2.46925 8.96242 2.67454 8.65236 2.93459 8.39182C3.19463 8.13134 3.50415 7.9257 3.84487 7.78705C4.18558 7.64839 4.55057 7.57953 4.9183 7.58454Z" fill="#C3C6E3"/>
<path d="M18.5697 17.7977C20.3979 17.7977 21.88 16.3131 21.88 14.4817C21.88 12.6503 20.3979 11.1656 18.5697 11.1656C16.7414 11.1656 15.2593 12.6503 15.2593 14.4817C15.2593 16.3131 16.7414 17.7977 18.5697 17.7977Z" fill="#57A8B2"/>
<path d="M28.6113 17.7977C30.4395 17.7977 31.9216 16.3131 31.9216 14.4817C31.9216 12.6503 30.4395 11.1656 28.6113 11.1656C26.783 11.1656 25.3009 12.6503 25.3009 14.4817C25.3009 16.3131 26.783 17.7977 28.6113 17.7977Z" fill="#57A8B2"/>
<path d="M38.691 17.7977C40.5193 17.7977 42.0014 16.3131 42.0014 14.4817C42.0014 12.6503 40.5193 11.1656 38.691 11.1656C36.8628 11.1656 35.3807 12.6503 35.3807 14.4817C35.3807 16.3131 36.8628 17.7977 38.691 17.7977Z" fill="#57A8B2"/>
<path opacity="0.2" d="M184.757 30.3207H2.12886C1.78869 30.2656 1.4792 30.091 1.25583 29.8282C1.03246 29.5653 0.90979 29.2314 0.90979 28.8862C0.90979 28.541 1.03246 28.2071 1.25583 27.9443C1.4792 27.6815 1.78869 27.5068 2.12886 27.4518H184.757C185.097 27.5068 185.407 27.6815 185.63 27.9443C185.853 28.2071 185.975 28.541 185.975 28.8862C185.975 29.2314 185.853 29.5653 185.63 29.8282C185.407 30.091 185.097 30.2656 184.757 30.3207Z" fill="#C9D2DF"/>
<path d="M18.5697 17.7977C20.3979 17.7977 21.88 16.3131 21.88 14.4817C21.88 12.6503 20.3979 11.1656 18.5697 11.1656C16.7414 11.1656 15.2593 12.6503 15.2593 14.4817C15.2593 16.3131 16.7414 17.7977 18.5697 17.7977Z" fill="#8F98D8"/>
<path d="M28.6113 17.7977C30.4395 17.7977 31.9216 16.3131 31.9216 14.4817C31.9216 12.6503 30.4395 11.1656 28.6113 11.1656C26.783 11.1656 25.3009 12.6503 25.3009 14.4817C25.3009 16.3131 26.783 17.7977 28.6113 17.7977Z" fill="#8F98D8"/>
<path d="M38.691 17.7977C40.5193 17.7977 42.0014 16.3131 42.0014 14.4817C42.0014 12.6503 40.5193 11.1656 38.691 11.1656C36.8628 11.1656 35.3807 12.6503 35.3807 14.4817C35.3807 16.3131 36.8628 17.7977 38.691 17.7977Z" fill="#8F98D8"/>
<path d="M18.6424 18.4317C17.8547 18.4764 17.0717 18.2834 16.3946 17.8775C15.7176 17.4716 15.1777 16.8716 14.8448 16.1549C14.5118 15.4384 14.4012 14.6382 14.5272 13.858C14.6532 13.0777 15.0099 12.3533 15.5514 11.7783C16.0928 11.2034 16.7941 10.8045 17.5643 10.6331C18.3345 10.4617 19.1385 10.5257 19.872 10.817C20.6055 11.1082 21.2349 11.6132 21.6788 12.2666C22.1227 12.92 22.3607 13.6919 22.362 14.4822C22.3636 15.4921 21.979 16.4642 21.2872 17.1988C20.5954 17.9334 19.649 18.3746 18.6424 18.4317ZM18.6424 11.6878C18.1113 11.6804 17.5899 11.8315 17.1446 12.1217C16.6993 12.4119 16.3503 12.8283 16.1419 13.3178C15.9335 13.8073 15.8751 14.3478 15.9742 14.8706C16.0733 15.3934 16.3254 15.8749 16.6984 16.2538C17.0714 16.6327 17.5485 16.8919 18.069 16.9985C18.5895 17.1051 19.1298 17.0542 19.6213 16.8523C20.1128 16.6504 20.5333 16.3066 20.8292 15.8647C21.1252 15.4227 21.2832 14.9026 21.2833 14.3705C21.2883 14.02 21.2236 13.672 21.093 13.3467C20.9626 13.0214 20.7688 12.7254 20.5231 12.4758C20.2774 12.2261 19.9846 12.0279 19.6618 11.8927C19.3389 11.7574 18.9924 11.6877 18.6424 11.6878Z" fill="#3E3126"/>
<path d="M28.6107 18.4379C27.8325 18.4305 27.0739 18.1926 26.4304 17.7542C25.787 17.3158 25.2875 16.6965 24.9948 15.9741C24.702 15.2518 24.6293 14.4589 24.7855 13.6953C24.9419 12.9317 25.3203 12.2314 25.8731 11.6828C26.426 11.1342 27.1285 10.7617 27.8923 10.6123C28.656 10.463 29.4469 10.5433 30.1651 10.8433C30.8834 11.1433 31.497 11.6495 31.9286 12.2981C32.3602 12.9468 32.5905 13.7088 32.5906 14.4884C32.5807 15.5393 32.1571 16.5438 31.4118 17.2833C30.6665 18.023 29.6598 18.4379 28.6107 18.4379ZM28.6107 11.694C28.081 11.694 27.5632 11.8513 27.1228 12.1461C26.6824 12.4409 26.3392 12.8598 26.1365 13.35C25.9338 13.8402 25.8807 14.3796 25.9841 14.9C26.0874 15.4203 26.3424 15.8984 26.717 16.2735C27.0916 16.6487 27.5687 16.9042 28.0882 17.0078C28.6077 17.1112 29.1461 17.0581 29.6356 16.8551C30.1249 16.6521 30.5431 16.3082 30.8374 15.867C31.1317 15.4259 31.2887 14.9072 31.2887 14.3766C31.2937 14.023 31.2279 13.6718 31.0951 13.3441C30.9622 13.0164 30.7652 12.7186 30.5155 12.4685C30.2658 12.2184 29.9686 12.021 29.6414 11.8879C29.3143 11.7549 28.9637 11.689 28.6107 11.694Z" fill="#3E3126"/>
<path d="M38.6913 18.4381C37.6456 18.4381 36.6428 18.022 35.9034 17.2813C35.164 16.5406 34.7487 15.5361 34.7487 14.4886C34.7487 13.4412 35.164 12.4366 35.9034 11.696C36.6428 10.9553 37.6456 10.5392 38.6913 10.5392C39.7369 10.5392 40.7398 10.9553 41.4792 11.696C42.2186 12.4366 42.634 13.4412 42.634 14.4886C42.634 15.5361 42.2186 16.5406 41.4792 17.2813C40.7398 18.022 39.7369 18.4381 38.6913 18.4381ZM38.6913 11.806C38.0401 11.8833 37.4399 12.1972 37.0044 12.6881C36.5689 13.1791 36.3283 13.8131 36.3283 14.47C36.3283 15.1268 36.5689 15.7608 37.0044 16.2518C37.4399 16.7429 38.0401 17.0568 38.6913 17.134C39.3424 17.0568 39.9427 16.7429 40.3782 16.2518C40.8137 15.7608 41.0543 15.1268 41.0543 14.47C41.0543 13.8131 40.8137 13.1791 40.3782 12.6881C39.9427 12.1972 39.3424 11.8833 38.6913 11.806Z" fill="#3E3126"/>
<path d="M121.748 65.3072H104.862V68.3625H121.748V65.3072Z" fill="#C9D2DF"/>
<path d="M122.306 120.076H105.419V123.131H122.306V120.076Z" fill="#C9D2DF"/>
<path d="M122.306 175.105H105.419V178.161H122.306V175.105Z" fill="#C9D2DF"/>
<path d="M95.2284 103.12H19.202C18.6063 103.12 18.1234 103.604 18.1234 104.201V108.151C18.1234 108.748 18.6063 109.231 19.202 109.231H95.2284C95.8242 109.231 96.3076 108.748 96.3076 108.151V104.201C96.3076 103.604 95.8242 103.12 95.2284 103.12Z" fill="#C9D2DF"/>
<path d="M95.2284 117.018H19.202C18.6063 117.018 18.1234 117.502 18.1234 118.098V122.048C18.1234 122.645 18.6063 123.128 19.202 123.128H95.2284C95.8242 123.128 96.3076 122.645 96.3076 122.048V118.098C96.3076 117.502 95.8242 117.018 95.2284 117.018Z" fill="#C9D2DF"/>
<path d="M95.2284 130.919H19.202C18.6063 130.919 18.1234 131.403 18.1234 131.999V135.948C18.1234 136.545 18.6063 137.029 19.202 137.029H95.2284C95.8242 137.029 96.3076 136.545 96.3076 135.948V131.999C96.3076 131.403 95.8242 130.919 95.2284 130.919Z" fill="#C9D2DF"/>
<path d="M95.2284 43.3163H19.202C18.6063 43.3163 18.1234 43.8001 18.1234 44.3968V48.3462C18.1234 48.943 18.6063 49.4267 19.202 49.4267H95.2284C95.8242 49.4267 96.3076 48.943 96.3076 48.3462V44.3968C96.3076 43.8001 95.8242 43.3163 95.2284 43.3163Z" fill="#C9D2DF"/>
<path d="M95.2284 57.2168H19.202C18.6063 57.2168 18.1234 57.7006 18.1234 58.2973V62.2468C18.1234 62.8436 18.6063 63.3273 19.202 63.3273H95.2284C95.8242 63.3273 96.3076 62.8436 96.3076 62.2468V58.2973C96.3076 57.7006 95.8242 57.2168 95.2284 57.2168Z" fill="#C9D2DF"/>
<path d="M95.2284 71.1144H19.202C18.6063 71.1144 18.1234 71.5981 18.1234 72.1949V76.1444C18.1234 76.7411 18.6063 77.2248 19.202 77.2248H95.2284C95.8242 77.2248 96.3076 76.7411 96.3076 76.1444V72.1949C96.3076 71.5981 95.8242 71.1144 95.2284 71.1144Z" fill="#C9D2DF"/>
<path d="M95.2284 157.93H19.202C18.6063 157.93 18.1234 158.415 18.1234 159.011V162.961C18.1234 163.558 18.6063 164.041 19.202 164.041H95.2284C95.8242 164.041 96.3076 163.558 96.3076 162.961V159.011C96.3076 158.415 95.8242 157.93 95.2284 157.93Z" fill="#C9D2DF"/>
<path d="M95.2284 171.832H19.202C18.6063 171.832 18.1234 172.315 18.1234 172.912V176.861C18.1234 177.458 18.6063 177.942 19.202 177.942H95.2284C95.8242 177.942 96.3076 177.458 96.3076 176.861V172.912C96.3076 172.315 95.8242 171.832 95.2284 171.832Z" fill="#C9D2DF"/>
<path d="M95.2284 185.732H19.202C18.6063 185.732 18.1234 186.215 18.1234 186.812V190.762C18.1234 191.358 18.6063 191.843 19.202 191.843H95.2284C95.8242 191.843 96.3076 191.358 96.3076 190.762V186.812C96.3076 186.215 95.8242 185.732 95.2284 185.732Z" fill="#C9D2DF"/>
<path d="M109.362 47.6385L110.589 50.0976L113.305 50.5075L111.333 52.445L111.817 55.1649L109.362 53.8608L106.907 55.1649L107.391 52.445L105.419 50.5075L108.134 50.0976L109.362 47.6385Z" fill="#FF9C01"/>
<path d="M119.554 47.6385L120.781 50.0976L123.497 50.5075L121.526 52.445L122.009 55.1649L119.554 53.8608L117.1 55.1649L117.583 52.445L115.612 50.5075L118.327 50.0976L119.554 47.6385Z" fill="#FF9C01"/>
<path d="M129.745 47.6385L130.973 50.0976L133.688 50.5075L131.717 52.445L132.163 55.1649L129.745 53.8608L127.291 55.1649L127.774 52.445L125.766 50.5075L128.518 50.0976L129.745 47.6385Z" fill="#FF9C01"/>
<path d="M139.936 47.6385L141.164 50.0976L143.879 50.5075L141.907 52.445L142.354 55.1649L139.936 53.8608L137.481 55.1649L137.965 52.445L135.956 50.5075L138.708 50.0976L139.936 47.6385Z" fill="#FF9C01"/>
<path d="M150.128 47.6385L151.318 50.0976L154.071 50.5075L152.1 52.445L152.546 55.1649L150.128 53.8608L147.674 55.1649L148.12 52.445L146.149 50.5075L148.901 50.0976L150.128 47.6385Z" fill="#FF9C01"/>
<path d="M109.362 102.422L110.589 104.918L113.305 105.291L111.333 107.228L111.817 109.948L109.362 108.681L106.907 109.948L107.391 107.228L105.419 105.291L108.134 104.918L109.362 102.422Z" fill="#FF9C01"/>
<path d="M119.554 102.422L120.781 104.918L123.497 105.291L121.526 107.228L122.009 109.948L119.554 108.681L117.1 109.948L117.583 107.228L115.612 105.291L118.327 104.918L119.554 102.422Z" fill="#FF9C01"/>
<path d="M129.745 102.422L130.973 104.918L133.688 105.291L131.717 107.228L132.163 109.948L129.745 108.681L127.291 109.948L127.774 107.228L125.766 105.291L128.518 104.918L129.745 102.422Z" fill="#FF9C01"/>
<path d="M139.936 102.422L141.164 104.918L143.879 105.291L141.907 107.228L142.354 109.948L139.936 108.681L137.481 109.948L137.965 107.228L135.956 105.291L138.708 104.918L139.936 102.422Z" fill="#FF9C01"/>
<path d="M150.128 102.422L151.318 104.918L154.071 105.291L152.1 107.228L152.546 109.948L150.128 108.681L147.674 109.948L148.12 107.228L146.149 105.291L148.901 104.918L150.128 102.422Z" fill="#FF9C01"/>
<path d="M109.362 157.22L110.589 159.679L113.305 160.089L111.333 162.026L111.817 164.746L109.362 163.442L106.907 164.746L107.391 162.026L105.419 160.089L108.134 159.679L109.362 157.22Z" fill="#FF9C01"/>
<path d="M119.554 157.22L120.781 159.679L123.497 160.089L121.526 162.026L122.009 164.746L119.554 163.442L117.1 164.746L117.583 162.026L115.612 160.089L118.327 159.679L119.554 157.22Z" fill="#FF9C01"/>
<path d="M129.745 157.22L130.973 159.679L133.688 160.089L131.717 162.026L132.163 164.746L129.745 163.442L127.291 164.746L127.774 162.026L125.766 160.089L128.518 159.679L129.745 157.22Z" fill="#FF9C01"/>
<path d="M139.936 157.22L141.164 159.679L143.879 160.089L141.907 162.026L142.354 164.746L139.936 163.442L137.481 164.746L137.965 162.026L135.956 160.089L138.708 159.679L139.936 157.22Z" fill="#FF9C01"/>
<path d="M150.128 157.22L151.318 159.679L154.071 160.089L152.1 162.026L152.546 164.746L150.128 163.442L147.674 164.746L148.12 162.026L146.149 160.089L148.901 159.679L150.128 157.22Z" fill="#FF9C01"/>
<path opacity="0.45" d="M86.1522 4.61743H68.5591C66.9156 4.61743 65.5835 5.95195 65.5835 7.59816V7.63542C65.5835 9.28166 66.9156 10.6162 68.5591 10.6162H86.1522C87.7957 10.6162 89.1281 9.28166 89.1281 7.63542V7.59816C89.1281 5.95195 87.7957 4.61743 86.1522 4.61743Z" fill="white"/>
<path opacity="0.45" d="M85.3717 17.2788C87.4462 17.2788 89.1281 16.1612 89.1281 14.7825C89.1281 13.4038 87.4462 12.2861 85.3717 12.2861C83.2964 12.2861 81.6145 13.4038 81.6145 14.7825C81.6145 16.1612 83.2964 17.2788 85.3717 17.2788Z" fill="white"/>
<path d="M221.282 127.941C222.371 127.941 223.253 127.056 223.253 125.966C223.253 124.875 222.371 123.991 221.282 123.991C220.194 123.991 219.311 124.875 219.311 125.966C219.311 127.056 220.194 127.941 221.282 127.941Z" fill="#3E3126"/>
<path d="M184.72 22.6777H1.23669V25.5466H184.72V22.6777Z" fill="#8F98D8"/>
<path d="M184.756 27.4123H2.12812C1.78285 27.4123 1.45172 27.2749 1.20759 27.0304C0.96345 26.7858 0.826294 26.4541 0.826294 26.1083C0.826294 25.7623 0.96345 25.4307 1.20759 25.1861C1.45172 24.9416 1.78285 24.8042 2.12812 24.8042H184.756C185.101 24.8042 185.432 24.9416 185.677 25.1861C185.921 25.4307 186.058 25.7623 186.058 26.1083C186.058 26.4541 185.921 26.7858 185.677 27.0304C185.432 27.2749 185.101 27.4123 184.756 27.4123Z" fill="#3E3126"/>
<path d="M2.12867 171.897C1.84755 171.913 1.56611 171.87 1.30328 171.768C1.04044 171.667 0.802327 171.511 0.604967 171.31C0.407604 171.108 0.255573 170.867 0.15911 170.602C0.0626478 170.337 0.0239923 170.054 0.0457468 169.773V110.159C0.0457468 109.635 0.253441 109.132 0.623139 108.762C0.992835 108.392 1.49426 108.184 2.01708 108.184C2.53992 108.184 3.04133 108.392 3.41103 108.762C3.78073 109.132 3.98842 109.635 3.98842 110.159V169.773C4.00864 170.036 3.97627 170.299 3.89323 170.549C3.81019 170.799 3.67816 171.03 3.5049 171.227C3.33163 171.425 3.12063 171.586 2.88429 171.701C2.64795 171.816 2.39104 171.882 2.12867 171.897Z" fill="#3E3126"/>
<path d="M69.0794 238.378H6.88924C5.99049 238.378 5.10054 238.2 4.2702 237.856C3.43986 237.512 2.68539 237.007 2.04988 236.37C1.41437 235.733 0.910244 234.977 0.566309 234.146C0.222371 233.314 0.0453491 232.423 0.0453491 231.522V183.867C0.0452635 183.311 0.26352 182.776 0.65311 182.379C1.0427 181.982 1.57245 181.754 2.12827 181.744C2.68409 181.754 3.21385 181.982 3.60344 182.379C3.99303 182.776 4.21128 183.311 4.2112 183.867V231.522C4.2112 232.234 4.49335 232.916 4.99558 233.419C5.49781 233.922 6.17898 234.204 6.88924 234.204H69.0794C69.6318 234.204 70.1617 234.424 70.5522 234.816C70.9429 235.207 71.1623 235.738 71.1623 236.291C71.1623 236.845 70.9429 237.375 70.5522 237.767C70.1617 238.158 69.6318 238.378 69.0794 238.378Z" fill="#3E3126"/>
<path d="M179.997 238.003H125.766C125.312 238.003 124.877 237.822 124.556 237.501C124.235 237.179 124.055 236.744 124.055 236.29C124.055 235.835 124.235 235.399 124.556 235.077C124.877 234.756 125.312 234.575 125.766 234.575H179.997C180.45 234.575 180.885 234.756 181.206 235.077C181.527 235.399 181.707 235.835 181.707 236.29C181.707 236.744 181.527 237.179 181.206 237.501C180.885 237.822 180.45 238.003 179.997 238.003Z" fill="#3E3126"/>
<path d="M184.757 215.609C184.234 215.609 183.733 215.401 183.363 215.031C182.993 214.66 182.786 214.158 182.786 213.634V12.4349C182.766 10.3327 181.927 8.32136 180.446 6.83125C178.966 5.34116 176.962 4.4906 174.863 4.46149H137.892C137.368 4.46149 136.867 4.25344 136.498 3.8831C136.127 3.51277 135.92 3.01049 135.92 2.48675C135.92 1.96303 136.127 1.46074 136.498 1.09041C136.867 0.720076 137.368 0.512025 137.892 0.512025L174.863 0.512024C178.03 0.512025 181.067 1.77211 183.306 4.01507C185.545 6.25804 186.803 9.30018 186.803 12.4722V213.671C186.803 213.936 186.75 214.197 186.646 214.439C186.541 214.682 186.389 214.901 186.197 215.082C186.006 215.264 185.779 215.404 185.531 215.495C185.284 215.585 185.02 215.624 184.757 215.609Z" fill="#3E3126"/>
<path d="M2.12827 93.6605C1.86017 93.6752 1.59177 93.6358 1.33957 93.5433C1.08736 93.4508 0.856661 93.3081 0.661619 93.1231C0.466579 92.938 0.311308 92.7151 0.205335 92.4676C0.0993624 92.2209 0.0449211 91.9549 0.0453517 91.6858V12.4727C0.0501872 10.8908 0.367253 9.32562 0.978298 7.86696C1.58935 6.40838 2.48232 5.08521 3.60583 3.97362C4.72933 2.86204 6.06118 1.98398 7.52475 1.38999C8.98834 0.796004 10.5547 0.4978 12.1337 0.512545H120.409C120.932 0.512545 121.433 0.720596 121.803 1.09093C122.172 1.46126 122.38 1.96354 122.38 2.48728C122.38 3.01101 122.172 3.51329 121.803 3.88363C121.433 4.25396 120.932 4.46201 120.409 4.46201H12.1337C10.0094 4.46199 7.97149 5.30477 6.46587 6.80601C4.96024 8.30725 4.10945 10.3447 4.09961 12.4727V91.6858C4.09961 92.2093 3.89192 92.7113 3.52222 93.0822C3.15252 93.4523 2.65111 93.6605 2.12827 93.6605Z" fill="#3E3126"/>
<path opacity="0.2" d="M54.5742 226.076C57.4912 226.076 59.8559 223.707 59.8559 220.785C59.8559 217.863 57.4912 215.494 54.5742 215.494C51.6572 215.494 49.2925 217.863 49.2925 220.785C49.2925 223.707 51.6572 226.076 54.5742 226.076Z" fill="#C9D2DF"/>
<path opacity="0.2" d="M61.9754 213.482C63.1463 213.482 64.0955 212.532 64.0955 211.359C64.0955 210.186 63.1463 209.235 61.9754 209.235C60.8045 209.235 59.8553 210.186 59.8553 211.359C59.8553 212.532 60.8045 213.482 61.9754 213.482Z" fill="#C9D2DF"/>
<path opacity="0.2" d="M39.8817 222.914C41.0526 222.914 42.0018 221.962 42.0018 220.789C42.0018 219.616 41.0526 218.666 39.8817 218.666C38.7108 218.666 37.7616 219.616 37.7616 220.789C37.7616 221.962 38.7108 222.914 39.8817 222.914Z" fill="#C9D2DF"/>
<path d="M102.22 254.429C106.937 254.43 111.514 252.827 115.204 249.883C118.893 246.939 121.476 242.827 122.529 238.221H149.309V249.734H159.054V238.221H165.414V249.734H175.16V238.221H186.021C186.637 238.231 187.249 238.114 187.818 237.876C188.388 237.639 188.903 237.287 189.331 236.842C189.769 236.417 190.116 235.907 190.352 235.343C190.589 234.781 190.709 234.175 190.707 233.564C190.707 232.318 190.213 231.125 189.335 230.244C188.456 229.364 187.263 228.869 186.021 228.869H122.529C121.647 225.045 119.707 221.548 116.93 218.778C114.154 216.009 110.654 214.081 106.833 213.214C103.011 212.347 99.0234 212.578 95.327 213.879C91.6306 215.18 88.3761 217.5 85.9359 220.57C83.4958 223.641 81.9701 227.339 81.5337 231.239C81.0972 235.14 81.7677 239.084 83.4681 242.62C85.1685 246.156 87.8303 249.14 91.1472 251.229C94.4641 253.317 98.3021 254.426 102.22 254.429ZM102.22 224.137C104.081 224.137 105.9 224.69 107.448 225.726C108.996 226.762 110.202 228.234 110.914 229.957C111.626 231.679 111.813 233.575 111.45 235.403C111.086 237.232 110.19 238.911 108.874 240.23C107.558 241.548 105.881 242.446 104.056 242.809C102.23 243.173 100.338 242.986 98.6185 242.273C96.8996 241.559 95.4294 240.351 94.3956 238.801C93.3618 237.251 92.8099 235.428 92.8099 233.564C92.7999 232.32 93.0362 231.086 93.5042 229.934C93.973 228.782 94.6642 227.734 95.5394 226.85C96.4139 225.967 97.4546 225.266 98.6015 224.787C99.7477 224.309 100.978 224.062 102.22 224.062V224.137Z" fill="#FFB320"/>
<path d="M111.594 235.054H190.41V232.707H111.594V235.054Z" fill="#FFE56B"/>
<path d="M81.2427 235.054H92.8476V232.707H81.2427V235.054Z" fill="#FFE56B"/>
<path d="M111.594 233.907H190.41V231.559H111.594V233.907Z" fill="#FFE56B"/>
<path d="M81.2427 233.907H92.8476V231.559H81.2427V233.907Z" fill="#FFE56B"/>
<path d="M111.63 241.545H121.487L120.334 243.892H111.63V241.545Z" fill="#FFE56B"/>
<path d="M82.9531 241.545H92.8468V243.892H83.6228L82.9531 241.545Z" fill="#FFE56B"/>
<path d="M82.285 227.79C83.3388 223.42 85.7735 219.509 89.2259 216.638C92.6783 213.766 96.9635 212.088 101.445 211.854C105.926 211.619 110.363 212.841 114.095 215.336C117.827 217.831 120.655 221.468 122.158 225.703C116.803 221.447 110.135 219.194 103.3 219.332C99.4044 219.212 95.5256 219.902 91.9085 221.357C88.2922 222.813 85.0153 225.003 82.285 227.79Z" fill="#F27C00"/>
<path d="M173.784 246.419C173.548 246.419 173.321 246.324 173.153 246.156C172.986 245.989 172.892 245.762 172.892 245.524V236.954C172.892 236.837 172.915 236.721 172.96 236.613C173.004 236.504 173.07 236.405 173.153 236.322C173.236 236.239 173.334 236.173 173.443 236.128C173.551 236.084 173.667 236.061 173.784 236.061H183.381C183.618 236.061 183.845 236.155 184.012 236.322C184.18 236.49 184.274 236.718 184.274 236.954C184.274 237.192 184.18 237.419 184.012 237.587C183.845 237.755 183.618 237.849 183.381 237.849H174.863V245.673C174.818 245.915 174.679 246.129 174.477 246.268C174.275 246.408 174.026 246.462 173.784 246.419Z" fill="white"/>
<path d="M171.144 249.399H166.791C166.555 249.399 166.328 249.305 166.16 249.137C165.993 248.969 165.899 248.742 165.899 248.505V237.849H159.985C159.748 237.849 159.521 237.755 159.354 237.587C159.186 237.419 159.092 237.192 159.092 236.954C159.092 236.718 159.186 236.49 159.354 236.322C159.521 236.155 159.748 236.061 159.985 236.061H166.718C166.835 236.061 166.951 236.084 167.059 236.128C167.167 236.173 167.266 236.239 167.349 236.322C167.431 236.405 167.497 236.504 167.542 236.613C167.587 236.721 167.61 236.837 167.61 236.954V247.611H171.329C171.45 247.605 171.57 247.625 171.682 247.668C171.795 247.71 171.898 247.776 171.985 247.859C172.072 247.942 172.141 248.042 172.188 248.153C172.235 248.265 172.26 248.384 172.259 248.505C172.257 248.642 172.224 248.776 172.164 248.898C172.104 249.021 172.017 249.128 171.91 249.214C171.804 249.299 171.68 249.36 171.548 249.392C171.415 249.424 171.277 249.427 171.144 249.399Z" fill="white"/>
<path d="M155.26 249.399H150.723C150.486 249.399 150.259 249.305 150.092 249.137C149.924 248.969 149.83 248.742 149.83 248.505V237.849H143.99C143.753 237.849 143.526 237.755 143.359 237.587C143.191 237.419 143.098 237.192 143.098 236.954C143.098 236.718 143.191 236.49 143.359 236.322C143.526 236.155 143.753 236.061 143.99 236.061H150.723C150.959 236.061 151.186 236.155 151.354 236.322C151.521 236.49 151.615 236.718 151.615 236.954V247.611H155.334C155.571 247.611 155.799 247.705 155.966 247.873C156.133 248.04 156.227 248.268 156.227 248.505C156.228 248.628 156.203 248.752 156.153 248.865C156.103 248.979 156.031 249.081 155.94 249.165C155.849 249.249 155.742 249.313 155.625 249.353C155.508 249.394 155.384 249.41 155.26 249.399Z" fill="white"/>
<path d="M102.22 255.856C99.2227 255.857 96.2553 255.254 93.4957 254.082C90.7354 252.91 88.2398 251.193 86.1568 249.033C84.0739 246.874 82.4466 244.317 81.372 241.513C80.2982 238.71 79.7979 235.718 79.9033 232.718C80.1989 227.476 82.3265 222.506 85.9136 218.679C89.5007 214.851 94.3178 212.41 99.5214 211.783C104.724 211.157 109.982 212.384 114.372 215.251C118.762 218.119 122.005 222.442 123.533 227.464H186.021C186.859 227.398 187.702 227.507 188.497 227.783C189.292 228.06 190.02 228.498 190.639 229.07C191.256 229.642 191.749 230.336 192.086 231.108C192.423 231.88 192.597 232.713 192.597 233.556C192.597 234.399 192.423 235.232 192.086 236.004C191.749 236.776 191.256 237.47 190.639 238.042C190.02 238.614 189.292 239.052 188.497 239.328C187.702 239.604 186.859 239.713 186.021 239.648H176.573V248.254C176.573 249.019 176.273 249.753 175.737 250.296C175.2 250.841 174.472 251.151 173.709 251.161H166.902C166.133 251.161 165.395 250.855 164.851 250.309C164.307 249.764 164.001 249.026 164.001 248.254V239.648H160.468V248.069C160.468 248.888 160.142 249.675 159.563 250.255C158.985 250.835 158.199 251.161 157.38 251.161H150.983C150.164 251.161 149.379 250.835 148.8 250.255C148.221 249.675 147.895 248.888 147.895 248.069V239.648H136.03C135.699 239.594 135.399 239.423 135.182 239.167C134.965 238.911 134.846 238.587 134.846 238.25C134.846 237.915 134.965 237.59 135.182 237.334C135.399 237.078 135.699 236.908 136.03 236.853H149.309C149.677 236.863 150.028 237.017 150.285 237.281C150.542 237.546 150.686 237.9 150.685 238.269V248.069C150.693 248.145 150.727 248.216 150.781 248.27C150.836 248.325 150.907 248.359 150.983 248.366H157.38C157.457 248.359 157.527 248.325 157.582 248.27C157.636 248.216 157.67 248.145 157.678 248.069V238.269C157.678 237.9 157.821 237.546 158.079 237.281C158.336 237.017 158.686 236.863 159.054 236.853H165.414C165.598 236.853 165.781 236.89 165.95 236.962C166.119 237.034 166.273 237.139 166.401 237.27C166.53 237.402 166.63 237.559 166.697 237.73C166.764 237.902 166.796 238.085 166.791 238.269V248.254H173.709V238.157C173.709 237.789 173.852 237.434 174.11 237.169C174.367 236.905 174.717 236.751 175.086 236.741H186.021C186.45 236.745 186.877 236.662 187.273 236.495C187.67 236.329 188.028 236.083 188.327 235.773C188.633 235.471 188.876 235.112 189.042 234.715C189.208 234.319 189.294 233.893 189.294 233.463C189.298 233.029 189.218 232.598 189.055 232.197C188.893 231.794 188.653 231.429 188.349 231.12C188.044 230.812 187.681 230.567 187.282 230.4C186.882 230.233 186.453 230.146 186.021 230.146H122.529C122.216 230.146 121.913 230.038 121.67 229.842C121.426 229.645 121.257 229.372 121.189 229.066C120.146 224.738 117.653 220.899 114.128 218.187C110.601 215.475 106.254 214.055 101.811 214.163C96.8904 214.323 92.2095 216.325 88.6901 219.774C85.1716 223.223 83.0716 227.868 82.8045 232.792C82.6683 236.15 83.4034 239.486 84.9375 242.475C86.4724 245.464 88.754 248.003 91.5598 249.846C94.3656 251.688 97.6001 252.771 100.949 252.989C104.296 253.206 107.643 252.551 110.664 251.087C110.829 251.005 111.009 250.958 111.193 250.948C111.377 250.938 111.561 250.965 111.735 251.027C111.908 251.09 112.068 251.187 112.203 251.312C112.339 251.438 112.447 251.589 112.523 251.757C112.68 252.089 112.7 252.469 112.583 252.816C112.465 253.164 112.217 253.452 111.891 253.62C108.876 255.082 105.57 255.847 102.22 255.856ZM119.441 246.727C119.165 246.728 118.894 246.651 118.661 246.503C118.508 246.402 118.376 246.271 118.274 246.119C118.172 245.965 118.102 245.794 118.067 245.613C118.033 245.432 118.034 245.247 118.072 245.067C118.11 244.887 118.183 244.717 118.288 244.566C119.658 242.555 120.642 240.306 121.189 237.934C121.257 237.628 121.426 237.354 121.67 237.159C121.913 236.962 122.216 236.855 122.529 236.853H130.711C130.914 236.82 131.121 236.832 131.319 236.886C131.516 236.941 131.699 237.038 131.855 237.172C132.011 237.304 132.137 237.47 132.223 237.656C132.309 237.843 132.353 238.045 132.353 238.25C132.353 238.456 132.309 238.658 132.223 238.845C132.137 239.032 132.011 239.197 131.855 239.33C131.699 239.463 131.516 239.56 131.319 239.614C131.121 239.67 130.914 239.681 130.711 239.648H123.644C122.982 241.959 121.953 244.148 120.594 246.131C120.468 246.32 120.296 246.474 120.095 246.578C119.893 246.682 119.668 246.734 119.441 246.727ZM102.22 244.38C100.086 244.38 98.0011 243.746 96.2276 242.558C94.4533 241.372 93.0708 239.684 92.2549 237.709C91.4382 235.735 91.2249 233.562 91.6406 231.466C92.057 229.371 93.0847 227.445 94.5926 225.934C96.1014 224.423 98.0235 223.394 100.116 222.977C102.208 222.56 104.377 222.774 106.348 223.592C108.319 224.409 110.003 225.794 111.189 227.572C112.374 229.348 113.007 231.437 113.007 233.575C113.007 236.44 111.87 239.189 109.848 241.215C107.825 243.241 105.081 244.38 102.22 244.38ZM102.22 225.564C100.638 225.564 99.0927 226.033 97.7771 226.914C96.4624 227.794 95.4371 229.045 94.832 230.509C94.227 231.973 94.0684 233.583 94.3771 235.138C94.6858 236.691 95.4471 238.119 96.5655 239.239C97.684 240.359 99.1088 241.122 100.66 241.431C102.211 241.74 103.819 241.582 105.281 240.975C106.742 240.369 107.99 239.342 108.869 238.025C109.748 236.707 110.217 235.159 110.217 233.575C110.217 231.45 109.374 229.412 107.875 227.91C106.375 226.408 104.341 225.564 102.22 225.564Z" fill="#3E3126"/>
<path d="M115.908 251.124C116.771 251.124 117.47 250.423 117.47 249.559C117.47 248.695 116.771 247.994 115.908 247.994C115.045 247.994 114.345 248.695 114.345 249.559C114.345 250.423 115.045 251.124 115.908 251.124Z" fill="#3E3126"/>
<path d="M2.12938 102.681C3.13595 102.681 3.95194 101.864 3.95194 100.855C3.95194 99.8477 3.13595 99.0303 2.12938 99.0303C1.12281 99.0303 0.306824 99.8477 0.306824 100.855C0.306824 101.864 1.12281 102.681 2.12938 102.681Z" fill="#3E3126"/>
<path d="M129.15 4.30801C130.157 4.30801 130.973 3.49062 130.973 2.48231C130.973 1.47401 130.157 0.656616 129.15 0.656616C128.143 0.656616 127.327 1.47401 127.327 2.48231C127.327 3.49062 128.143 4.30801 129.15 4.30801Z" fill="#3E3126"/>
<path d="M162.477 65.1924C162.33 65.2287 162.177 65.2287 162.031 65.1924C161.898 65.1392 161.778 65.0602 161.676 64.9601C161.574 64.8599 161.493 64.7405 161.438 64.6088C161.382 64.4772 161.354 64.3358 161.354 64.193C161.353 64.0501 161.381 63.9085 161.435 63.7765L167.424 49.6553C167.532 49.3885 167.742 49.1758 168.007 49.064C168.272 48.9522 168.571 48.9505 168.837 49.0591C169.104 49.1679 169.316 49.3781 169.428 49.6436C169.54 49.9092 169.541 50.2082 169.433 50.475L163.482 64.5217C163.409 64.7274 163.272 64.9041 163.09 65.0251C162.91 65.146 162.694 65.2047 162.477 65.1924Z" fill="#3E3126"/>
<path d="M170.325 58.4206C170.191 58.4537 170.051 58.4537 169.917 58.4206C169.784 58.3674 169.663 58.2884 169.562 58.1882C169.46 58.0881 169.379 57.9687 169.324 57.8371C169.269 57.7054 169.24 57.5641 169.239 57.4212C169.239 57.2783 169.267 57.1368 169.321 57.0047L172.483 49.553C172.536 49.4208 172.616 49.3006 172.716 49.1992C172.816 49.0977 172.935 49.017 173.067 48.9616C173.197 48.9062 173.338 48.8773 173.481 48.8765C173.623 48.8757 173.764 48.9029 173.896 48.9568C174.028 49.0106 174.148 49.0899 174.25 49.1902C174.351 49.2905 174.431 49.4098 174.487 49.5412C174.541 49.6727 174.571 49.8138 174.571 49.9565C174.572 50.0991 174.545 50.2405 174.491 50.3726L171.292 57.8244C171.206 58.0069 171.069 58.1603 170.897 58.2661C170.726 58.372 170.527 58.4256 170.325 58.4206Z" fill="#3E3126"/>
</g>
</svg>
