<svg width="32" height="33" viewBox="0 0 32 33" fill="none" xmlns="http://www.w3.org/2000/svg">
<rect y="0.297241" width="32" height="32" rx="4" fill="#EAF0F1"/>
<path d="M15.9998 20.9639C14.7621 20.9639 13.5751 20.4722 12.7 19.597C11.8248 18.7219 11.3331 17.5349 11.3331 16.2972C11.3331 15.0595 11.8248 13.8725 12.7 12.9974C13.5751 12.1222 14.7621 11.6305 15.9998 11.6305C17.2375 11.6305 18.4244 12.1222 19.2996 12.9974C20.1748 13.8725 20.6665 15.0595 20.6665 16.2972C20.6665 17.5349 20.1748 18.7219 19.2996 19.597C18.4244 20.4722 17.2375 20.9639 15.9998 20.9639ZM25.9065 17.5905C25.9598 17.1639 25.9998 16.7372 25.9998 16.2972C25.9998 15.8572 25.9598 15.4172 25.9065 14.9639L28.7198 12.7905C28.9731 12.5905 29.0398 12.2305 28.8798 11.9372L26.2131 7.32387C26.0531 7.03054 25.6931 6.91054 25.3998 7.03054L22.0798 8.36387C21.3865 7.84387 20.6665 7.39054 19.8265 7.0572L19.3331 3.52387C19.306 3.36683 19.2242 3.22444 19.1022 3.12194C18.9802 3.01944 18.8258 2.96344 18.6665 2.96387H13.3331C12.9998 2.96387 12.7198 3.20387 12.6665 3.52387L12.1731 7.0572C11.3331 7.39054 10.6131 7.84387 9.91979 8.36387L6.59979 7.03054C6.30645 6.91054 5.94645 7.03054 5.78645 7.32387L3.11979 11.9372C2.94645 12.2305 3.02645 12.5905 3.27979 12.7905L6.09312 14.9639C6.03979 15.4172 5.99979 15.8572 5.99979 16.2972C5.99979 16.7372 6.03979 17.1639 6.09312 17.5905L3.27979 19.8039C3.02645 20.0039 2.94645 20.3639 3.11979 20.6572L5.78645 25.2705C5.94645 25.5639 6.30645 25.6705 6.59979 25.5639L9.91979 24.2172C10.6131 24.7505 11.3331 25.2039 12.1731 25.5372L12.6665 29.0705C12.7198 29.3905 12.9998 29.6305 13.3331 29.6305H18.6665C18.9998 29.6305 19.2798 29.3905 19.3331 29.0705L19.8265 25.5372C20.6665 25.1905 21.3865 24.7505 22.0798 24.2172L25.3998 25.5639C25.6931 25.6705 26.0531 25.5639 26.2131 25.2705L28.8798 20.6572C29.0398 20.3639 28.9731 20.0039 28.7198 19.8039L25.9065 17.5905Z" fill="#7EA8A6"/>
</svg>
