<svg width="20" height="20" viewBox="0 0 20 20" fill="none" xmlns="http://www.w3.org/2000/svg">
<path d="M13.3334 14.1666V15.8333H1.66675V14.1666C1.66675 14.1666 1.66675 10.8333 7.50008 10.8333C13.3334 10.8333 13.3334 14.1666 13.3334 14.1666ZM10.4167 6.24996C10.4167 5.6731 10.2457 5.10919 9.9252 4.62955C9.60471 4.14991 9.14919 3.77607 8.61624 3.55531C8.08329 3.33456 7.49685 3.2768 6.93107 3.38934C6.36529 3.50188 5.84559 3.77966 5.43769 4.18757C5.02978 4.59547 4.752 5.11517 4.63946 5.68095C4.52692 6.24673 4.58468 6.83317 4.80543 7.36612C5.02619 7.89907 5.40003 8.3546 5.87967 8.67508C6.35931 8.99557 6.92322 9.16663 7.50008 9.16663C8.27363 9.16663 9.0155 8.85934 9.56248 8.31236C10.1095 7.76538 10.4167 7.02351 10.4167 6.24996ZM13.2834 10.8333C13.7957 11.2298 14.2149 11.7337 14.5115 12.3096C14.8081 12.8854 14.9748 13.5193 15.0001 14.1666V15.8333H18.3334V14.1666C18.3334 14.1666 18.3334 11.1416 13.2834 10.8333ZM12.5001 3.3333C11.9265 3.3301 11.3655 3.50159 10.8917 3.82496C11.3979 4.53224 11.6701 5.3802 11.6701 6.24996C11.6701 7.11972 11.3979 7.96768 10.8917 8.67496C11.3655 8.99833 11.9265 9.16982 12.5001 9.16663C13.2736 9.16663 14.0155 8.85934 14.5625 8.31236C15.1095 7.76538 15.4167 7.02351 15.4167 6.24996C15.4167 5.47641 15.1095 4.73455 14.5625 4.18757C14.0155 3.64059 13.2736 3.3333 12.5001 3.3333Z" fill="#A9C5C3"/>
</svg>
