<svg width="237" height="54" viewBox="0 0 237 54" fill="none" xmlns="http://www.w3.org/2000/svg">
<path d="M36.3216 31.7279C33.733 40.033 25.5169 45.2042 16.9599 43.9142C8.40295 42.6242 2.05487 35.2572 2.00035 26.5537C1.94584 17.8502 8.20113 10.4034 16.7412 9.00496C25.2814 7.60657 33.5616 12.6733 36.2541 20.9449" stroke="#055F95" stroke-width="2.60898" stroke-miterlimit="2.9" stroke-linecap="round" stroke-linejoin="round"/>
<path d="M43.0542 2.84216L37.4513 47.8007L53.1006 49.8089" stroke="#055F95" stroke-width="2.59555" stroke-miterlimit="2.9" stroke-linecap="round" stroke-linejoin="round"/>
<path d="M63.2115 45.47C74.1316 45.47 82.9841 36.5652 82.9841 25.5805C82.9841 14.5958 74.1316 5.69092 63.2115 5.69092C52.2914 5.69092 43.439 14.5958 43.439 25.5805C43.439 36.5652 52.2914 45.47 63.2115 45.47Z" stroke="#055F95" stroke-width="2.56237" stroke-miterlimit="2.9" stroke-linecap="round" stroke-linejoin="round"/>
<path d="M115.569 4.1378L88.843 2L85.2366 50.3272C85.2366 50.3272 85.2366 50.3271 111.834 52.4002C125.844 53.4921 137.202 42.6809 137.852 29.9857C138.502 17.2904 130.02 5.22627 115.569 4.1378Z" stroke="#055F95" stroke-width="2.59555" stroke-miterlimit="2.9" stroke-linecap="round" stroke-linejoin="round"/>
<path d="M94.5746 7.31213L92.6426 39.703C92.6426 39.703 92.5138 45.339 97.8591 45.6629C103.204 45.9868 103.848 40.6747 103.848 40.6747L105.845 8.15429" stroke="#055F95" stroke-width="2.59555" stroke-miterlimit="2.9" stroke-linecap="round" stroke-linejoin="round"/>
<path d="M141.924 22.1365L156.356 22.3655M141.924 22.1365L141.423 51.4075M141.924 22.1365L142.061 7.0658L157.544 7.20322C157.544 7.20322 165.012 7.47806 165.012 15.0363C165.012 22.5946 156.356 22.3655 156.356 22.3655M156.356 22.3655L171.478 51.6824" stroke="#055F95" stroke-width="2.59555" stroke-miterlimit="2.9" stroke-linecap="round" stroke-linejoin="round"/>
<path d="M175.204 11.5876L176.814 50.9101" stroke="#055F95" stroke-width="2.59555" stroke-miterlimit="2.9" stroke-linecap="round" stroke-linejoin="round"/>
<path d="M179.712 4.46167L195.04 49.0315L196.778 49.0963L214.811 5.62773" stroke="#055F95" stroke-width="2.59555" stroke-miterlimit="2.9" stroke-linecap="round" stroke-linejoin="round"/>
<path d="M219.852 33.9389L229.687 33.6134M234.26 7.83032L218.997 8.47814L220.478 52.5945L235.612 52.141" stroke="#055F95" stroke-width="2.59555" stroke-miterlimit="2.9" stroke-linecap="round" stroke-linejoin="round"/>
</svg>
